<svg version="1.1" id="Layer_1" xmlns="http://www.w3.org/2000/svg" xmlns:xlink="http://www.w3.org/1999/xlink" x="0px" y="0px"
	 width="100%" viewBox="0 0 774 241" enable-background="new 0 0 774 241" xml:space="preserve">
<path fill="#C3E1DB" opacity="1.000000" stroke="none" 
	d="
M89.000000,1.000000 
	C195.355972,1.000000 301.711945,1.000000 408.536469,1.399939 
	C409.592072,4.031541 409.857727,6.414661 410.824890,8.467208 
	C414.066742,15.347039 417.489075,22.144876 420.972443,28.907097 
	C425.800873,38.280510 430.353516,47.827812 435.743164,56.872234 
	C442.412811,68.064644 449.764862,78.854179 456.986786,89.708199 
	C457.746246,90.849617 459.614166,91.253502 461.068237,92.458878 
	C461.168671,108.248146 461.168671,123.578087 461.168671,140.368744 
	C459.116821,137.594009 458.031555,136.168030 456.989685,134.710999 
	C447.126068,120.916779 437.301025,107.094696 427.362244,93.354874 
	C426.389404,92.009949 424.821747,90.407005 423.371399,90.230804 
	C419.699463,89.784714 415.937073,90.082779 411.462769,90.082779 
	C412.872406,92.219040 413.720673,93.590454 414.651917,94.903015 
	C429.370483,115.648071 444.391266,136.188248 458.645660,157.247238 
	C462.819336,163.413376 467.411743,164.335068 474.146912,162.786011 
	C474.146912,146.901245 474.146912,130.949738 474.503876,115.011444 
	C475.491638,115.192093 476.371490,115.150230 476.715088,115.559036 
	C480.493988,120.055443 484.332458,124.515320 487.841248,129.218964 
	C489.372070,131.271072 489.044220,131.515640 491.500732,129.944382 
	C496.467346,129.717682 500.973877,129.439972 505.550415,129.570953 
	C503.821808,130.985275 502.120544,132.295792 500.196930,132.909546 
	C498.327393,133.506058 496.229889,133.388199 493.025299,133.702377 
	C494.994385,136.056244 496.163483,137.361755 497.230194,138.746155 
	C500.508575,143.000900 503.747864,147.285828 506.543884,151.658936 
	C501.493256,151.758865 496.901093,151.758865 492.086090,151.758865 
	C492.086090,155.813522 492.086090,159.377823 492.086090,163.068100 
	C501.180389,163.068100 510.090759,163.068100 519.057251,163.408478 
	C523.129089,167.804688 527.119751,171.885864 531.166931,175.910141 
	C536.709351,181.421204 542.123596,187.077637 547.908447,192.323669 
	C554.012451,197.859116 560.344360,203.168350 566.833374,208.248489 
	C577.194519,216.360062 587.840454,224.107605 598.213562,232.204330 
	C602.031555,235.184479 605.417175,238.718567 609.000000,242.000000 
	C471.644012,242.000000 334.288055,242.000000 196.452637,241.624344 
	C192.808975,236.492828 189.582565,231.776810 186.501175,226.967880 
	C184.236862,223.434082 182.162415,219.778595 180.468231,216.116302 
	C187.958084,215.985657 194.983063,215.916031 202.471634,215.905701 
	C207.851212,215.964996 212.767197,215.964996 217.684631,215.964996 
	C217.684631,155.649414 217.684631,96.033882 217.684631,36.159912 
	C213.580811,36.159912 209.791809,36.159912 205.538528,36.095402 
	C199.385056,36.070629 193.695847,36.110363 187.543121,36.085526 
	C182.050980,36.063530 177.022339,36.106102 171.530624,36.088833 
	C166.044800,36.071381 161.022079,36.113773 155.535095,36.093422 
	C149.379272,36.072498 143.687698,36.114323 137.532074,36.094048 
	C131.376968,36.073696 125.685890,36.115440 119.531143,36.095184 
	C113.710938,36.073441 108.354408,36.113697 102.564194,36.089958 
	C100.087952,35.958862 98.045380,35.891758 96.002060,35.387207 
	C95.254082,30.788334 94.606544,26.605963 93.737526,22.470125 
	C92.230576,15.298241 90.586540,8.155160 89.000000,1.000000 
M312.170807,163.635193 
	C315.896759,163.957230 314.953278,161.193069 314.958923,159.243881 
	C315.001831,144.423950 314.981049,129.603821 314.980408,114.783760 
	C314.980072,106.667877 314.980347,98.551987 314.980347,90.296082 
	C310.498199,90.296082 306.452942,90.296082 301.988037,90.296082 
	C301.988037,100.524429 301.988037,110.455589 301.988037,120.733253 
	C294.443542,120.733253 287.317444,120.733253 280.093384,120.733253 
	C280.093384,124.832390 280.093384,128.568512 280.093384,132.755371 
	C287.483948,132.755371 294.566528,132.755371 302.231689,132.755371 
	C302.231689,143.233627 302.231689,153.270309 302.231689,163.638428 
	C305.635986,163.638428 308.444611,163.638428 312.170807,163.635193 
M358.968475,94.380203 
	C366.964905,116.180008 374.928192,137.992172 383.034271,159.751129 
	C383.560516,161.163803 385.076416,163.044052 386.318054,163.197067 
	C390.030914,163.654648 393.836273,163.361542 398.190247,163.361542 
	C389.125000,138.512451 380.293396,114.303871 371.475769,90.133606 
	C366.757874,90.133606 362.459015,90.133606 357.816254,90.133606 
	C358.158295,91.424141 358.443420,92.499924 358.968475,94.380203 
M253.993683,156.389130 
	C253.993683,158.660812 253.993683,160.932510 253.993683,163.285828 
	C258.606293,163.285828 262.667267,163.285828 266.685181,163.285828 
	C266.685181,138.731644 266.685181,114.519997 266.685181,90.303917 
	C262.340515,90.303917 258.285278,90.303917 253.993683,90.303917 
	C253.993683,112.214874 253.993683,133.816498 253.993683,156.389130 
M331.105469,163.373322 
	C332.765900,163.373856 334.455902,163.174576 336.080902,163.414719 
	C339.974731,163.990143 341.876770,162.551010 343.306427,158.702652 
	C347.167908,148.308441 351.661896,138.150284 355.816772,127.862846 
	C356.411438,126.390442 357.167114,124.510513 356.735992,123.179527 
	C355.026306,117.901711 352.874847,112.767021 350.633514,106.917427 
	C349.737000,109.091972 349.164551,110.462006 348.606079,111.837723 
	C342.190643,127.641861 335.733612,143.429565 329.460083,159.289841 
	C329.033722,160.367661 325.816711,162.917358 331.105469,163.373322 
M411.492218,108.010620 
	C411.204102,107.922310 410.713562,107.694855 410.662323,107.769356 
	C410.417847,108.125031 410.146606,108.562469 410.146057,108.971184 
	C410.121704,126.916573 410.125061,144.862015 410.125061,163.091202 
	C414.504730,163.091202 418.592377,163.091202 423.005981,163.091202 
	C423.005981,156.443451 422.351074,149.896271 423.141388,143.528458 
	C424.822052,129.986725 421.352539,118.406105 411.492218,108.010620 
z"/>
<path fill="#C6E3DD" opacity="1.000000" stroke="none" 
	d="
M460.967834,91.999565 
	C459.614166,91.253502 457.746246,90.849617 456.986786,89.708199 
	C449.764862,78.854179 442.412811,68.064644 435.743164,56.872234 
	C430.353516,47.827812 425.800873,38.280510 420.972443,28.907097 
	C417.489075,22.144876 414.066742,15.347039 410.824890,8.467208 
	C409.857727,6.414661 409.592072,4.031541 409.002502,1.399939 
	C530.930908,1.000000 652.861877,1.000000 774.896362,1.000000 
	C774.896362,81.218658 774.896362,161.437485 774.896362,242.000000 
	C719.979553,242.000000 664.958435,242.000000 609.468628,242.000000 
	C605.417175,238.718567 602.031555,235.184479 598.213562,232.204330 
	C587.840454,224.107605 577.194519,216.360062 566.833374,208.248489 
	C560.344360,203.168350 554.012451,197.859116 547.908447,192.323669 
	C542.123596,187.077637 536.709351,181.421204 531.166931,175.910141 
	C527.119751,171.885864 523.129089,167.804688 519.425903,163.278549 
	C525.579041,160.070587 532.078186,158.206451 537.118286,154.406937 
	C546.572815,147.279556 550.459900,137.082794 549.916626,125.183968 
	C545.167480,125.183968 540.933105,125.183968 536.743469,125.183968 
	C534.879395,144.470795 525.320007,152.850433 507.002319,151.559021 
	C503.747864,147.285828 500.508575,143.000900 497.230194,138.746155 
	C496.163483,137.361755 494.994385,136.056244 493.025299,133.702377 
	C496.229889,133.388199 498.327393,133.506058 500.196930,132.909546 
	C502.120544,132.295792 503.821808,130.985275 505.451416,129.179138 
	C505.389374,111.404732 514.880737,101.987465 531.957092,101.931320 
	C537.878662,101.911850 543.800415,101.928223 549.740967,101.928223 
	C549.740967,97.696945 549.740967,94.110939 549.740967,90.218323 
	C541.897339,90.218323 534.242004,89.637337 526.703430,90.329102 
	C505.512054,92.273659 491.619324,106.135040 491.040680,129.893372 
	C489.044220,131.515640 489.372070,131.271072 487.841248,129.218964 
	C484.332458,124.515320 480.493988,120.055443 476.715088,115.559036 
	C476.371490,115.150230 475.491638,115.192093 474.427338,114.548401 
	C473.993835,106.150337 473.993835,98.228531 473.993835,90.075203 
	C470.463257,90.075203 467.627869,89.874771 464.842712,90.161987 
	C463.502197,90.300217 462.256500,91.358116 460.967834,91.999565 
M652.969849,162.008347 
	C653.553345,162.452866 654.135132,163.283188 654.720459,163.285690 
	C671.014343,163.355759 687.308594,163.341904 703.804565,163.341904 
	C703.804565,159.362732 703.804565,155.752670 703.804565,151.620422 
	C691.137146,151.620422 678.575623,151.620422 665.485229,151.620422 
	C665.485229,130.866394 665.485229,110.627434 665.485229,90.396339 
	C661.028442,90.396339 657.121399,90.396339 652.939026,90.396339 
	C652.939026,114.171028 652.939026,137.629074 652.969849,162.008347 
M566.106445,142.294830 
	C572.075500,154.818893 584.296143,163.649292 594.392944,162.514694 
	C594.392944,160.726425 594.210266,158.884872 594.431580,157.093185 
	C594.869934,153.543167 593.810242,151.722641 590.173889,150.093323 
	C579.950012,145.512375 575.785950,136.786835 576.028259,125.881905 
	C576.262695,115.334763 580.895691,107.489975 590.664368,102.892456 
	C592.085144,102.223808 594.001160,100.956619 594.218323,99.710365 
	C594.739502,96.718422 594.386841,93.574280 594.386841,90.423332 
	C570.054565,93.838516 556.932007,117.934540 566.106445,142.294830 
M634.292786,114.346008 
	C629.431946,100.652435 619.843079,92.723595 605.268311,90.134796 
	C605.268311,94.308159 605.268311,97.942635 605.268311,101.573509 
	C605.764221,101.828453 606.188293,102.099686 606.648865,102.275497 
	C617.509338,106.421104 622.913391,114.450439 623.214111,125.923203 
	C623.523376,137.720627 618.778259,146.437393 607.492554,151.122513 
	C606.449524,151.555511 605.343567,153.095917 605.216309,154.228760 
	C604.893005,157.107376 605.108826,160.046539 605.108826,163.318939 
	C607.091675,162.957199 608.403748,162.823944 609.655151,162.473679 
	C629.843567,156.823013 640.049500,137.438278 634.292786,114.346008 
z"/>
<path fill="#C0E0D9" opacity="1.000000" stroke="none" 
	d="
M180.003372,216.177338 
	C182.162415,219.778595 184.236862,223.434082 186.501175,226.967880 
	C189.582565,231.776810 192.808975,236.492828 195.986603,241.624344 
	C131.054291,242.000000 66.108582,242.000000 1.081436,242.000000 
	C1.081436,161.788132 1.081436,81.576149 1.081436,1.000000 
	C30.019878,1.000000 59.041283,1.000000 88.531342,1.000000 
	C90.586540,8.155160 92.230576,15.298241 93.737526,22.470125 
	C94.606544,26.605963 95.254082,30.788334 95.550888,35.451767 
	C92.061531,36.022785 89.022606,36.091793 85.519821,36.101559 
	C78.702103,36.084717 72.348236,36.127117 65.531685,36.105625 
	C60.044140,36.082874 55.019283,36.124023 49.535583,36.100685 
	C45.482658,36.036194 41.888580,36.036194 38.302040,36.036194 
	C38.302040,96.332993 38.302040,155.988800 38.302040,215.837082 
	C42.071358,215.837082 45.533230,215.837082 49.457054,215.906250 
	C54.611313,215.928680 59.303619,215.881943 64.460037,215.904327 
	C71.278252,215.929642 77.632355,215.885818 84.451111,215.911774 
	C91.275597,215.935455 97.635452,215.889359 104.459572,215.906952 
	C110.279488,215.926895 115.635139,215.883179 121.455780,215.905273 
	C127.944260,215.927505 133.967758,215.883896 140.455475,215.904419 
	C146.279327,215.925934 151.638916,215.883331 157.463211,215.903824 
	C164.282745,215.927200 170.637589,215.887482 177.366302,215.911636 
	C178.494568,216.042770 179.248978,216.110062 180.003372,216.177338 
z"/>
<path fill="#02ABEC" opacity="1.000000" stroke="none" 
	d="
M206.002792,36.159912 
	C209.791809,36.159912 213.580811,36.159912 217.684631,36.159912 
	C217.684631,96.033882 217.684631,155.649414 217.684631,215.964996 
	C212.767197,215.964996 207.851212,215.964996 202.468552,215.486023 
	C202.003189,212.769455 202.004471,210.531845 202.409042,208.224182 
	C204.170837,207.996628 205.529343,207.839096 207.082977,207.658966 
	C205.918976,204.786346 204.950729,202.396866 204.243652,199.693146 
	C205.106552,195.703613 205.708282,192.028351 206.534637,188.646774 
	C207.483185,190.447067 208.207138,191.953659 208.931076,193.460266 
	C209.227249,193.348969 209.523407,193.237671 209.819580,193.126389 
	C209.819580,183.729675 209.819580,174.332962 209.819580,164.922211 
	C209.412643,164.922211 209.201019,164.860870 209.138000,164.931702 
	C208.505234,165.643051 207.896851,166.376099 206.904480,166.995728 
	C206.018524,165.766968 205.546921,164.626663 204.990891,163.529144 
	C204.385986,162.335129 203.702667,161.180832 203.089890,159.641846 
	C204.448746,155.537720 205.965866,151.856995 207.060730,148.054703 
	C212.342529,129.711655 210.512817,111.740921 204.127869,93.701706 
	C205.215515,90.182114 206.143082,87.017868 207.322037,84.085518 
	C208.110519,85.314011 208.647614,86.310616 209.756195,88.367607 
	C209.756195,72.732086 209.756195,58.469791 209.756195,44.166431 
	C207.948380,43.987274 206.475784,43.841335 205.022797,43.318626 
	C205.362534,40.681210 205.682663,38.420563 206.002792,36.159912 
z"/>
<path fill="#151616" opacity="1.000000" stroke="none" 
	d="
M461.068237,92.458893 
	C462.256500,91.358116 463.502197,90.300217 464.842712,90.161987 
	C467.627869,89.874771 470.463257,90.075203 473.993835,90.075203 
	C473.993835,98.228531 473.993835,106.150337 474.070374,114.535187 
	C474.146912,130.949738 474.146912,146.901245 474.146912,162.786011 
	C467.411743,164.335068 462.819336,163.413376 458.645660,157.247238 
	C444.391266,136.188248 429.370483,115.648071 414.651917,94.903015 
	C413.720673,93.590454 412.872406,92.219040 411.462769,90.082779 
	C415.937073,90.082779 419.699463,89.784714 423.371399,90.230804 
	C424.821747,90.407005 426.389404,92.009949 427.362244,93.354874 
	C437.301025,107.094696 447.126068,120.916779 456.989685,134.710999 
	C458.031555,136.168030 459.116821,137.594009 461.168671,140.368744 
	C461.168671,123.578087 461.168671,108.248146 461.068237,92.458893 
z"/>
<path fill="#151616" opacity="1.000000" stroke="none" 
	d="
M311.712006,163.636810 
	C308.444611,163.638428 305.635986,163.638428 302.231689,163.638428 
	C302.231689,153.270309 302.231689,143.233627 302.231689,132.755371 
	C294.566528,132.755371 287.483948,132.755371 280.093384,132.755371 
	C280.093384,128.568512 280.093384,124.832390 280.093384,120.733253 
	C287.317444,120.733253 294.443542,120.733253 301.988037,120.733253 
	C301.988037,110.455589 301.988037,100.524429 301.988037,90.296082 
	C306.452942,90.296082 310.498199,90.296082 314.980347,90.296082 
	C314.980347,98.551987 314.980072,106.667877 314.980408,114.783760 
	C314.981049,129.603821 315.001831,144.423950 314.958923,159.243881 
	C314.953278,161.193069 315.896759,163.957230 311.712006,163.636810 
z"/>
<path fill="#141515" opacity="1.000000" stroke="none" 
	d="
M358.848511,93.977951 
	C358.443420,92.499924 358.158295,91.424141 357.816254,90.133606 
	C362.459015,90.133606 366.757874,90.133606 371.475769,90.133606 
	C380.293396,114.303871 389.125000,138.512451 398.190247,163.361542 
	C393.836273,163.361542 390.030914,163.654648 386.318054,163.197067 
	C385.076416,163.044052 383.560516,161.163803 383.034271,159.751129 
	C374.928192,137.992172 366.964905,116.180008 358.848511,93.977951 
z"/>
<path fill="#131313" opacity="1.000000" stroke="none" 
	d="
M253.993683,155.903625 
	C253.993683,133.816498 253.993683,112.214874 253.993683,90.303917 
	C258.285278,90.303917 262.340515,90.303917 266.685181,90.303917 
	C266.685181,114.519997 266.685181,138.731644 266.685181,163.285828 
	C262.667267,163.285828 258.606293,163.285828 253.993683,163.285828 
	C253.993683,160.932510 253.993683,158.660812 253.993683,155.903625 
z"/>
<path fill="#151616" opacity="1.000000" stroke="none" 
	d="
M491.500732,129.944382 
	C491.619324,106.135040 505.512054,92.273659 526.703430,90.329102 
	C534.242004,89.637337 541.897339,90.218323 549.740967,90.218323 
	C549.740967,94.110939 549.740967,97.696945 549.740967,101.928223 
	C543.800415,101.928223 537.878662,101.911850 531.957092,101.931320 
	C514.880737,101.987465 505.389374,111.404732 505.381470,128.770447 
	C500.973877,129.439972 496.467346,129.717682 491.500732,129.944382 
z"/>
<path fill="#141414" opacity="1.000000" stroke="none" 
	d="
M506.543884,151.658936 
	C525.320007,152.850433 534.879395,144.470795 536.743469,125.183968 
	C540.933105,125.183968 545.167480,125.183968 549.916626,125.183968 
	C550.459900,137.082794 546.572815,147.279556 537.118286,154.406937 
	C532.078186,158.206451 525.579041,160.070587 519.369812,162.938171 
	C510.090759,163.068100 501.180389,163.068100 492.086090,163.068100 
	C492.086090,159.377823 492.086090,155.813522 492.086090,151.758865 
	C496.901093,151.758865 501.493256,151.758865 506.543884,151.658936 
z"/>
<path fill="#151616" opacity="1.000000" stroke="none" 
	d="
M330.690643,163.371292 
	C325.816711,162.917358 329.033722,160.367661 329.460083,159.289841 
	C335.733612,143.429565 342.190643,127.641861 348.606079,111.837723 
	C349.164551,110.462006 349.737000,109.091972 350.633514,106.917427 
	C352.874847,112.767021 355.026306,117.901711 356.735992,123.179527 
	C357.167114,124.510513 356.411438,126.390442 355.816772,127.862846 
	C351.661896,138.150284 347.167908,148.308441 343.306427,158.702652 
	C341.876770,162.551010 339.974731,163.990143 336.080902,163.414719 
	C334.455902,163.174576 332.765900,163.373856 330.690643,163.371292 
z"/>
<path fill="#151616" opacity="1.000000" stroke="none" 
	d="
M411.719238,108.289734 
	C421.352539,118.406105 424.822052,129.986725 423.141388,143.528458 
	C422.351074,149.896271 423.005981,156.443451 423.005981,163.091202 
	C418.592377,163.091202 414.504730,163.091202 410.125061,163.091202 
	C410.125061,144.862015 410.121704,126.916573 410.146057,108.971184 
	C410.146606,108.562469 410.417847,108.125031 410.662323,107.769356 
	C410.713562,107.694855 411.204102,107.922310 411.719238,108.289734 
z"/>
<path fill="#1974BD" opacity="1.000000" stroke="none" 
	d="
M119.994812,36.157188 
	C125.685890,36.115440 131.376968,36.073696 137.533417,36.539177 
	C137.979935,39.447590 137.961090,41.848778 137.609894,44.276634 
	C136.490067,44.303303 135.702606,44.303303 134.767609,44.303303 
	C135.573181,46.268646 136.330063,48.115208 136.820587,50.179935 
	C135.697540,53.609982 134.840866,56.821857 133.736465,59.792759 
	C131.727493,56.354973 129.966232,53.158161 127.914230,49.433628 
	C125.493286,53.858780 123.398544,57.687691 121.112190,61.116447 
	C119.915955,57.801926 118.911331,54.887550 117.959976,51.621746 
	C118.675591,48.841259 119.337936,46.412205 120.000404,43.546864 
	C119.998627,40.792782 119.996719,38.474987 119.994812,36.157188 
z"/>
<path fill="#108BD0" opacity="1.000000" stroke="none" 
	d="
M155.999344,36.156170 
	C161.022079,36.113773 166.044800,36.071381 171.533005,36.509182 
	C171.996735,39.230526 171.995010,41.471672 171.614258,43.782192 
	C169.799240,43.967480 168.363266,44.083397 166.254318,44.253639 
	C169.637695,46.336098 172.237442,47.936230 174.474136,49.779739 
	C173.371338,52.138145 172.631592,54.253181 171.552979,56.240799 
	C165.797562,53.457874 160.381058,50.802376 155.125732,47.758888 
	C155.524414,43.632660 155.761871,39.894413 155.999344,36.156170 
z"/>
<path fill="#2460AA" opacity="1.000000" stroke="none" 
	d="
M85.983673,36.160805 
	C89.022606,36.091793 92.061531,36.022785 95.551636,35.889214 
	C98.045380,35.891758 100.087952,35.958862 102.564606,36.545097 
	C103.033684,40.492374 103.068680,43.920521 102.866058,47.596954 
	C98.401260,49.556820 94.174088,51.268402 89.668457,52.813633 
	C88.905991,50.388897 88.421989,48.130512 88.109070,45.636257 
	C87.512871,44.831421 86.745590,44.262451 85.981079,43.276192 
	C85.983780,40.626202 85.983727,38.393505 85.983673,36.160805 
z"/>
<path fill="#0E9DDE" opacity="1.000000" stroke="none" 
	d="
M202.005768,208.294235 
	C202.004471,210.531845 202.003189,212.769455 202.004974,215.426727 
	C194.983063,215.916031 187.958084,215.985657 180.468231,216.116302 
	C179.248978,216.110062 178.494568,216.042770 177.346558,215.496796 
	C176.647003,212.778442 176.341064,210.538773 176.433395,208.231064 
	C185.223038,208.206757 193.614410,208.250488 202.005768,208.294235 
z"/>
<path fill="#1481C8" opacity="1.000000" stroke="none" 
	d="
M155.535095,36.093422 
	C155.761871,39.894413 155.524414,43.632660 154.728500,47.733120 
	C148.760788,46.813545 143.351517,45.531754 137.942245,44.249966 
	C137.961090,41.848778 137.979935,39.447590 137.997437,36.601273 
	C143.687698,36.114323 149.379272,36.072498 155.535095,36.093422 
z"/>
<path fill="#1C69B3" opacity="1.000000" stroke="none" 
	d="
M103.103676,47.348663 
	C103.068680,43.920521 103.033684,40.492374 102.998283,36.609093 
	C108.354408,36.113697 113.710938,36.073441 119.531143,36.095184 
	C119.996719,38.474987 119.998627,40.792782 119.616959,43.667782 
	C113.856812,45.266209 108.480247,46.307434 103.103676,47.348663 
z"/>
<path fill="#07A1E3" opacity="1.000000" stroke="none" 
	d="
M205.538528,36.095402 
	C205.682663,38.420563 205.362534,40.681210 204.560562,43.395649 
	C198.722000,43.803284 193.365265,43.757126 188.006882,43.291924 
	C188.005707,40.631950 188.006180,38.391026 188.006638,36.150097 
	C193.695847,36.110363 199.385056,36.070629 205.538528,36.095402 
z"/>
<path fill="#1098D9" opacity="1.000000" stroke="none" 
	d="
M187.543121,36.085526 
	C188.006180,38.391026 188.005707,40.631950 187.544891,43.369110 
	C182.054138,43.814503 177.023697,43.763664 171.993286,43.712822 
	C171.995010,41.471672 171.996735,39.230526 171.996094,36.569027 
	C177.022339,36.106102 182.050980,36.063530 187.543121,36.085526 
z"/>
<path fill="#151616" opacity="1.000000" stroke="none" 
	d="
M652.954468,161.547729 
	C652.939026,137.629074 652.939026,114.171028 652.939026,90.396339 
	C657.121399,90.396339 661.028442,90.396339 665.485229,90.396339 
	C665.485229,110.627434 665.485229,130.866394 665.485229,151.620422 
	C678.575623,151.620422 691.137146,151.620422 703.804565,151.620422 
	C703.804565,155.752670 703.804565,159.362732 703.804565,163.341904 
	C687.308594,163.341904 671.014343,163.355759 654.720459,163.285690 
	C654.135132,163.283188 653.553345,162.452866 652.954468,161.547729 
z"/>
<path fill="#151515" opacity="1.000000" stroke="none" 
	d="
M565.997803,141.923187 
	C556.932007,117.934540 570.054565,93.838516 594.386841,90.423332 
	C594.386841,93.574280 594.739502,96.718422 594.218323,99.710365 
	C594.001160,100.956619 592.085144,102.223808 590.664368,102.892456 
	C580.895691,107.489975 576.262695,115.334763 576.028259,125.881905 
	C575.785950,136.786835 579.950012,145.512375 590.173889,150.093323 
	C593.810242,151.722641 594.869934,153.543167 594.431580,157.093185 
	C594.210266,158.884872 594.392944,160.726425 594.392944,162.514694 
	C584.296143,163.649292 572.075500,154.818893 565.997803,141.923187 
z"/>
<path fill="#151616" opacity="1.000000" stroke="none" 
	d="
M634.460571,114.716599 
	C640.049500,137.438278 629.843567,156.823013 609.655151,162.473679 
	C608.403748,162.823944 607.091675,162.957199 605.108826,163.318939 
	C605.108826,160.046539 604.893005,157.107376 605.216309,154.228760 
	C605.343567,153.095917 606.449524,151.555511 607.492554,151.122513 
	C618.778259,146.437393 623.523376,137.720627 623.214111,125.923203 
	C622.913391,114.450439 617.509338,106.421104 606.648865,102.275497 
	C606.188293,102.099686 605.764221,101.828453 605.268311,101.573509 
	C605.268311,97.942635 605.268311,94.308159 605.268311,90.134796 
	C619.843079,92.723595 629.431946,100.652435 634.460571,114.716599 
z"/>
<path fill="#2C3C8D" opacity="1.000000" stroke="none" 
	d="
M48.995102,215.837082 
	C45.533230,215.837082 42.071358,215.837082 38.302040,215.837082 
	C38.302040,155.988800 38.302040,96.332993 38.302040,36.036194 
	C41.888580,36.036194 45.482658,36.036194 49.537163,36.525787 
	C49.996727,39.287514 49.995865,41.559654 49.558758,43.896912 
	C45.854656,43.478893 45.850227,45.534328 45.861912,47.902870 
	C45.922573,60.193138 45.881142,72.483887 45.912403,84.774376 
	C45.914429,85.570274 46.227428,86.365387 46.482357,87.570030 
	C47.275928,86.400497 47.741329,85.714615 48.556351,85.160492 
	C49.273685,86.936485 49.498516,88.630890 50.052910,90.209557 
	C50.522678,91.547256 51.373489,92.751129 52.010323,94.390320 
	C50.962704,97.755310 49.841240,100.710213 48.977722,103.738670 
	C43.723381,122.166298 45.382008,140.220642 51.761543,158.237381 
	C50.514439,161.607742 49.550930,164.724258 48.368420,167.574371 
	C47.566544,166.535263 46.983669,165.762558 46.168102,164.681396 
	C46.168102,174.556015 46.168102,183.832520 46.168102,193.600922 
	C47.100513,192.447906 47.679565,191.731842 48.590248,191.145416 
	C49.951424,194.184311 50.980972,197.093567 51.963768,200.361710 
	C50.930725,203.199539 49.944427,205.678482 48.968105,208.584106 
	C48.983757,211.286194 48.989429,213.561646 48.995102,215.837082 
z"/>
<path fill="#2460AA" opacity="1.000000" stroke="none" 
	d="
M103.995300,215.843262 
	C97.635452,215.889359 91.275597,215.935455 84.455597,215.445724 
	C84.020180,212.708908 84.044907,210.507935 84.395294,208.233200 
	C86.183922,208.048538 87.646896,207.937607 89.692482,207.782516 
	C88.010185,206.619797 86.972359,205.902496 85.951286,204.766571 
	C86.675812,202.216064 87.383598,200.084167 88.443359,198.015076 
	C93.883537,200.308853 98.971733,202.539825 104.044258,205.240143 
	C104.017494,209.087433 104.006393,212.465347 103.995300,215.843262 
z"/>
<path fill="#108BD0" opacity="1.000000" stroke="none" 
	d="
M176.035126,208.299118 
	C176.341064,210.538773 176.647003,212.778442 176.972687,215.432938 
	C170.637589,215.887482 164.282745,215.927200 157.463593,215.455170 
	C156.610779,211.109146 156.222244,207.274887 156.119217,203.269821 
	C161.561020,200.632111 166.717316,198.165192 172.037567,196.078064 
	C172.462769,198.877487 172.724030,201.297150 172.653381,203.861404 
	C170.286270,205.203262 168.251068,206.400528 165.023712,208.299118 
	C169.564133,208.299118 172.799622,208.299118 176.035126,208.299118 
z"/>
<path fill="#1481C8" opacity="1.000000" stroke="none" 
	d="
M155.833725,203.440613 
	C156.222244,207.274887 156.610779,211.109146 156.998901,215.392075 
	C151.638916,215.883331 146.279327,215.925934 140.382233,215.510132 
	C139.533401,212.576538 139.222061,210.101364 139.234055,207.447296 
	C144.982834,205.992477 150.408279,204.716553 155.833725,203.440613 
z"/>
<path fill="#1C69B3" opacity="1.000000" stroke="none" 
	d="
M104.459572,215.906952 
	C104.006393,212.465347 104.017494,209.087433 104.454803,205.272766 
	C110.585152,205.919373 116.289276,207.002747 121.994247,208.486420 
	C121.660324,211.204300 121.325562,213.521881 120.990784,215.839462 
	C115.635139,215.883179 110.279488,215.926895 104.459572,215.906952 
z"/>
<path fill="#244F9E" opacity="1.000000" stroke="none" 
	d="
M85.519821,36.101562 
	C85.983727,38.393505 85.983780,40.626202 85.519279,43.347549 
	C78.700340,43.788223 72.345963,43.740257 65.992111,43.275520 
	C65.993217,40.629009 65.993797,38.399261 65.994377,36.169518 
	C72.348236,36.127117 78.702103,36.084717 85.519821,36.101562 
z"/>
<path fill="#244F9E" opacity="1.000000" stroke="none" 
	d="
M84.069641,208.306946 
	C84.044907,210.507935 84.020180,212.708908 83.990959,215.375946 
	C77.632355,215.885818 71.278252,215.929642 64.461357,215.485962 
	C63.997166,212.769470 63.995758,210.540466 64.456497,208.229889 
	C71.302315,208.201202 77.685974,208.254074 84.069641,208.306946 
z"/>
<path fill="#1974BD" opacity="1.000000" stroke="none" 
	d="
M121.455780,215.905273 
	C121.325562,213.521881 121.660324,211.204300 122.459259,208.427628 
	C128.252533,207.854416 133.581619,207.740295 138.910721,207.626175 
	C139.222061,210.101364 139.533401,212.576538 139.917984,215.446014 
	C133.967758,215.883896 127.944260,215.927505 121.455780,215.905273 
z"/>
<path fill="#284495" opacity="1.000000" stroke="none" 
	d="
M65.531685,36.105621 
	C65.993797,38.399261 65.993217,40.629009 65.531494,43.355053 
	C60.045231,43.844830 55.020119,43.838310 49.995007,43.831791 
	C49.995865,41.559654 49.996727,39.287514 49.996010,36.590275 
	C55.019283,36.124023 60.044140,36.082874 65.531685,36.105621 
z"/>
<path fill="#284495" opacity="1.000000" stroke="none" 
	d="
M63.994350,208.311462 
	C63.995758,210.540466 63.997166,212.769470 63.997253,215.416840 
	C59.303619,215.881943 54.611313,215.928680 49.457054,215.906250 
	C48.989429,213.561646 48.983757,211.286194 49.436577,208.562347 
	C54.594830,208.179779 59.294590,208.245621 63.994350,208.311462 
z"/>
<path fill="#C1E0DB" opacity="1.000000" stroke="none" 
	d="
M137.609894,44.276634 
	C143.351517,45.531754 148.760788,46.813545 154.567291,48.121105 
	C160.381058,50.802376 165.797562,53.457874 171.748520,56.493805 
	C177.803894,61.417442 183.324844,65.960648 188.961823,70.803688 
	C194.041168,78.754700 199.004486,86.405876 203.967789,94.057053 
	C210.512817,111.740921 212.342529,129.711655 207.060730,148.054703 
	C205.965866,151.856995 204.448746,155.537720 202.853943,159.887253 
	C201.023163,163.333115 199.464676,166.166199 197.662140,169.442917 
	C195.632416,166.257019 193.922836,163.573639 192.169495,160.520355 
	C188.448196,152.750488 184.770676,145.350494 181.036591,137.594467 
	C177.685776,130.811508 174.391556,124.384598 171.041199,117.600647 
	C167.354843,110.147957 163.724609,103.052299 160.037338,95.599922 
	C156.007065,87.459190 152.033813,79.675179 148.010086,71.537979 
	C144.335388,64.110451 140.711166,57.036110 137.086945,49.961769 
	C136.330063,48.115208 135.573181,46.268646 134.767609,44.303303 
	C135.702606,44.303303 136.490067,44.303303 137.609894,44.276634 
z"/>
<path fill="#C1E0DB" opacity="1.000000" stroke="none" 
	d="
M171.614243,43.782196 
	C177.023697,43.763664 182.054138,43.814503 187.546539,43.788155 
	C193.365265,43.757126 198.722000,43.803284 204.540955,43.772419 
	C206.475784,43.841335 207.948380,43.987274 209.756195,44.166431 
	C209.756195,58.469791 209.756195,72.732086 209.756195,88.367607 
	C208.647614,86.310616 208.110519,85.314011 207.275299,83.740250 
	C201.394623,75.916908 195.812073,68.670715 190.065491,61.163307 
	C184.880051,57.113514 179.858627,53.324940 174.837189,49.536366 
	C172.237442,47.936230 169.637695,46.336098 166.254318,44.253639 
	C168.363266,44.083397 169.799240,43.967480 171.614243,43.782196 
z"/>
<path fill="#C0E0D9" opacity="1.000000" stroke="none" 
	d="
M176.433395,208.231064 
	C172.799622,208.299118 169.564133,208.299118 165.023712,208.299118 
	C168.251068,206.400528 170.286270,205.203262 172.967621,203.761200 
	C178.763443,199.385605 183.913147,195.254791 189.395340,191.029953 
	C191.784393,189.200775 193.840942,187.465607 196.142471,185.523758 
	C198.893478,190.605957 201.437988,195.306686 203.982498,200.007401 
	C204.950729,202.396866 205.918976,204.786346 207.082977,207.658966 
	C205.529343,207.839096 204.170837,207.996628 202.409058,208.224182 
	C193.614410,208.250488 185.223038,208.206757 176.433395,208.231064 
z"/>
<path fill="#0BA2E3" opacity="1.000000" stroke="none" 
	d="
M204.243652,199.693146 
	C201.437988,195.306686 198.893478,190.605957 196.142471,185.523758 
	C193.840942,187.465607 191.784393,189.200775 189.233612,190.667343 
	C188.033615,188.199493 187.327866,186.000244 186.773285,183.492889 
	C191.379776,179.579773 192.828964,175.475662 189.043716,170.490921 
	C188.957962,170.378006 188.989441,170.176041 189.221039,169.726654 
	C190.388336,166.588547 191.300797,163.739395 192.213257,160.890259 
	C193.922836,163.573639 195.632416,166.257019 197.662140,169.442917 
	C199.464676,166.166199 201.023163,163.333115 202.817596,160.254639 
	C203.702667,161.180832 204.385986,162.335129 204.990891,163.529144 
	C205.546921,164.626663 206.018524,165.766968 206.857635,167.363297 
	C202.418488,174.484879 200.882980,181.270004 206.310013,188.353088 
	C205.708282,192.028351 205.106552,195.703613 204.243652,199.693146 
z"/>
<path fill="#0BA2E3" opacity="1.000000" stroke="none" 
	d="
M190.229523,61.424530 
	C195.812073,68.670715 201.394623,75.916908 207.023911,83.508362 
	C206.143082,87.017868 205.215515,90.182114 204.127869,93.701706 
	C199.004486,86.405876 194.041168,78.754700 188.997620,70.333244 
	C189.354736,66.850159 189.792130,64.137344 190.229523,61.424530 
z"/>
<path fill="#BDDED8" opacity="1.000000" stroke="none" 
	d="
M206.534637,188.646774 
	C200.882980,181.270004 202.418488,174.484879 207.234787,167.470612 
	C207.896851,166.376099 208.505234,165.643051 209.138000,164.931702 
	C209.201019,164.860870 209.412643,164.922211 209.819580,164.922211 
	C209.819580,174.332962 209.819580,183.729675 209.819580,193.126389 
	C209.523407,193.237671 209.227249,193.348969 208.931076,193.460266 
	C208.207138,191.953659 207.483185,190.447067 206.534637,188.646774 
z"/>
<path fill="#C1E0DA" opacity="1.000000" stroke="none" 
	d="
M188.966217,170.015625 
	C188.989441,170.176041 188.957962,170.378006 189.043716,170.490921 
	C192.828964,175.475662 191.379776,179.579773 186.491089,183.650574 
	C181.329666,187.976990 176.601639,191.837631 171.873611,195.698273 
	C166.717316,198.165192 161.561020,200.632111 156.119217,203.269821 
	C150.408279,204.716553 144.982834,205.992477 139.234055,207.447296 
	C133.581619,207.740295 128.252533,207.854416 122.458420,208.027313 
	C116.289276,207.002747 110.585152,205.919373 104.470474,204.803391 
	C98.971733,202.539825 93.883537,200.308853 88.224457,197.756897 
	C81.501541,192.829956 75.349503,188.224014 68.979828,183.371826 
	C65.933281,179.892868 62.551464,176.795837 66.290253,171.786163 
	C71.043793,162.379822 75.542366,153.201279 80.292992,143.791489 
	C84.705612,135.058105 88.866165,126.555946 93.276276,117.816948 
	C98.026810,108.405167 102.527779,99.230225 107.276550,89.816772 
	C112.117493,80.224380 116.710648,70.870491 121.303802,61.516602 
	C123.398544,57.687691 125.493286,53.858780 127.914230,49.433628 
	C129.966232,53.158161 131.727493,56.354973 133.779984,60.149372 
	C137.654770,67.862022 141.238312,74.977081 144.928253,82.434753 
	C148.786224,90.178268 152.537781,97.579170 156.387665,105.307266 
	C160.314651,113.108513 164.143326,120.582573 168.022125,128.410889 
	C171.349823,135.237640 174.627396,141.710144 177.991852,148.523666 
	C181.707886,155.914993 185.337051,162.965317 188.966217,170.015625 
z"/>
<path fill="#C0DFD9" opacity="1.000000" stroke="none" 
	d="
M52.045143,157.983521 
	C45.382008,140.220642 43.723381,122.166298 48.977722,103.738670 
	C49.841240,100.710213 50.962704,97.755310 52.268101,94.166397 
	C55.789124,87.873558 59.007004,82.180740 62.502304,76.280731 
	C67.204544,71.440704 71.629356,66.807869 76.374161,62.043640 
	C81.111725,58.934818 85.529320,55.957397 89.946915,52.979977 
	C94.174088,51.268402 98.401260,49.556820 102.866058,47.596954 
	C108.480247,46.307434 113.856812,45.266209 119.616837,44.104065 
	C119.337936,46.412205 118.675591,48.841259 117.704636,51.847206 
	C112.911232,61.575912 108.426437,70.727730 103.685577,80.117134 
	C99.228661,89.024879 95.027809,97.695038 90.539993,106.603165 
	C85.579147,116.231941 80.905243,125.622749 76.012512,135.299469 
	C71.510208,144.349731 67.226738,153.114090 62.688084,162.112579 
	C61.170464,164.547195 59.908024,166.747711 58.330437,169.497528 
	C56.001698,165.231522 54.023422,161.607529 52.045143,157.983521 
z"/>
<path fill="#216EB5" opacity="1.000000" stroke="none" 
	d="
M103.941635,79.879547 
	C108.426437,70.727730 112.911232,61.575912 117.651367,52.198635 
	C118.911331,54.887550 119.915955,57.801926 121.112198,61.116451 
	C116.710648,70.870491 112.117493,80.224380 107.115608,89.456017 
	C105.785126,86.182358 104.863380,83.030952 103.941635,79.879547 
z"/>
<path fill="#1A7FC4" opacity="1.000000" stroke="none" 
	d="
M144.821854,82.092140 
	C141.238312,74.977081 137.654770,67.862022 134.027695,60.390350 
	C134.840866,56.821857 135.697540,53.609982 136.820587,50.179935 
	C140.711166,57.036110 144.335388,64.110451 147.845306,71.904457 
	C146.761292,75.780128 145.791580,78.936134 144.821854,82.092140 
z"/>
<path fill="#1098D9" opacity="1.000000" stroke="none" 
	d="
M190.065506,61.163307 
	C189.792130,64.137344 189.354736,66.850159 188.881561,70.033409 
	C183.324844,65.960648 177.803894,61.417442 172.087402,56.621227 
	C172.631592,54.253181 173.371338,52.138145 174.474136,49.779739 
	C179.858627,53.324940 184.880051,57.113514 190.065506,61.163307 
z"/>
<path fill="#C0DFD9" opacity="1.000000" stroke="none" 
	d="
M49.558758,43.896912 
	C55.020119,43.838310 60.045231,43.844830 65.530960,43.771820 
	C72.345963,43.740257 78.700340,43.788223 85.516525,43.764835 
	C86.745590,44.262451 87.512871,44.831421 87.749237,45.669033 
	C83.120804,48.559036 79.023277,51.180397 74.598793,53.913937 
	C69.472076,58.591579 64.672318,63.157043 59.579460,67.898972 
	C55.593143,73.726540 51.899933,79.377632 48.206726,85.028732 
	C47.741329,85.714615 47.275928,86.400497 46.482357,87.570030 
	C46.227428,86.365387 45.914429,85.570274 45.912403,84.774376 
	C45.881142,72.483887 45.922573,60.193138 45.861912,47.902870 
	C45.850227,45.534328 45.854656,43.478893 49.558758,43.896912 
z"/>
<path fill="#2856A1" opacity="1.000000" stroke="none" 
	d="
M74.925751,53.801758 
	C79.023277,51.180397 83.120804,48.559036 87.578156,45.904900 
	C88.421989,48.130512 88.905991,50.388897 89.668457,52.813629 
	C85.529320,55.957397 81.111725,58.934818 76.357849,61.618706 
	C75.656288,58.817371 75.291023,56.309566 74.925751,53.801758 
z"/>
<path fill="#2C4897" opacity="1.000000" stroke="none" 
	d="
M51.761543,158.237381 
	C54.023422,161.607529 56.001698,165.231522 58.330437,169.497528 
	C59.908024,166.747711 61.170464,164.547195 62.924232,162.417770 
	C64.288803,165.663879 65.162048,168.838898 66.035286,172.013931 
	C62.551464,176.795837 65.933281,179.892868 68.811211,183.746307 
	C67.906311,186.578644 66.952385,188.790222 65.674332,190.895905 
	C63.648911,189.074097 61.947598,187.358185 59.941452,185.334824 
	C57.152004,190.493805 54.581257,195.248322 52.010513,200.002838 
	C50.980972,197.093567 49.951424,194.184311 48.662071,190.809479 
	C53.484962,183.076126 55.631908,175.764420 48.742840,168.308334 
	C48.641296,168.198441 48.637066,167.998611 48.587421,167.840759 
	C49.550930,164.724258 50.514439,161.607742 51.761543,158.237381 
z"/>
<path fill="#BDDED8" opacity="1.000000" stroke="none" 
	d="
M51.963764,200.361710 
	C54.581257,195.248322 57.152004,190.493805 59.941452,185.334824 
	C61.947598,187.358185 63.648911,189.074097 65.866425,191.166626 
	C72.899940,196.090576 79.417236,200.637894 85.934540,205.185196 
	C86.972359,205.902496 88.010185,206.619797 89.692482,207.782516 
	C87.646896,207.937607 86.183922,208.048538 84.395294,208.233200 
	C77.685974,208.254074 71.302315,208.201202 64.456497,208.229889 
	C59.294590,208.245621 54.594830,208.179779 49.426598,208.135681 
	C49.944427,205.678482 50.930725,203.199539 51.963764,200.361710 
z"/>
<path fill="#324B96" opacity="1.000000" stroke="none" 
	d="
M48.556351,85.160492 
	C51.899933,79.377632 55.593143,73.726540 59.745491,68.275330 
	C60.878044,71.146118 61.551464,73.817024 62.224884,76.487923 
	C59.007004,82.180740 55.789124,87.873558 52.313461,93.790298 
	C51.373489,92.751129 50.522678,91.547256 50.052910,90.209557 
	C49.498516,88.630890 49.273685,86.936485 48.556351,85.160492 
z"/>
<path fill="#BDDED8" opacity="1.000000" stroke="none" 
	d="
M48.368420,167.574371 
	C48.637066,167.998611 48.641296,168.198441 48.742840,168.308334 
	C55.631908,175.764420 53.484962,183.076126 48.330444,190.679871 
	C47.679565,191.731842 47.100513,192.447906 46.168102,193.600922 
	C46.168102,183.832520 46.168102,174.556015 46.168102,164.681396 
	C46.983669,165.762558 47.566544,166.535263 48.368420,167.574371 
z"/>
<path fill="#2856A1" opacity="1.000000" stroke="none" 
	d="
M85.951286,204.766571 
	C79.417236,200.637894 72.899940,196.090576 66.190544,191.272552 
	C66.952385,188.790222 67.906311,186.578644 69.028854,183.992554 
	C75.349503,188.224014 81.501541,192.829956 87.872482,197.694092 
	C87.383598,200.084167 86.675812,202.216064 85.951286,204.766571 
z"/>
<path fill="#1098D9" opacity="1.000000" stroke="none" 
	d="
M172.037567,196.078049 
	C176.601639,191.837631 181.329666,187.976990 186.339890,183.958664 
	C187.327866,186.000244 188.033615,188.199493 188.901123,190.761368 
	C183.913147,195.254791 178.763443,199.385605 173.299530,203.616608 
	C172.724030,201.297150 172.462769,198.877487 172.037567,196.078049 
z"/>
<path fill="#1786CA" opacity="1.000000" stroke="none" 
	d="
M144.928253,82.434753 
	C145.791580,78.936134 146.761292,75.780128 147.895782,72.257645 
	C152.033813,79.675179 156.007065,87.459190 159.751953,95.845276 
	C158.445511,99.291595 157.367432,102.135834 156.289352,104.980072 
	C152.537781,97.579170 148.786224,90.178268 144.928253,82.434753 
z"/>
<path fill="#158ED0" opacity="1.000000" stroke="none" 
	d="
M156.387665,105.307266 
	C157.367432,102.135834 158.445511,99.291595 159.808960,96.201996 
	C163.724609,103.052299 167.354843,110.147957 170.711945,117.803238 
	C169.616531,121.594124 168.794281,124.825371 167.972015,128.056625 
	C164.143326,120.582573 160.314651,113.108513 156.387665,105.307266 
z"/>
<path fill="#109CDC" opacity="1.000000" stroke="none" 
	d="
M189.221039,169.726654 
	C185.337051,162.965317 181.707886,155.914993 178.157684,148.172577 
	C179.188812,144.303818 180.140976,141.127167 181.093140,137.950516 
	C184.770676,145.350494 188.448196,152.750488 192.169495,160.520355 
	C191.300797,163.739395 190.388336,166.588547 189.221039,169.726654 
z"/>
<path fill="#1194D6" opacity="1.000000" stroke="none" 
	d="
M181.036575,137.594467 
	C180.140976,141.127167 179.188812,144.303818 178.070801,147.831558 
	C174.627396,141.710144 171.349823,135.237640 168.022125,128.410889 
	C168.794281,124.825371 169.616531,121.594124 170.768066,118.160278 
	C174.391556,124.384598 177.685776,130.811508 181.036575,137.594467 
z"/>
<path fill="#2464AD" opacity="1.000000" stroke="none" 
	d="
M103.685577,80.117134 
	C104.863380,83.030952 105.785126,86.182358 106.867813,89.694519 
	C102.527779,99.230225 98.026810,108.405167 93.110992,117.443710 
	C92.073074,113.659935 91.450012,110.012558 90.826950,106.365189 
	C95.027809,97.695038 99.228661,89.024879 103.685577,80.117134 
z"/>
<path fill="#275BA6" opacity="1.000000" stroke="none" 
	d="
M90.540001,106.603165 
	C91.450012,110.012558 92.073074,113.659935 92.861427,117.680542 
	C88.866165,126.555946 84.705612,135.058105 80.015633,143.542206 
	C78.401260,140.687286 77.316299,137.850433 76.231339,135.013565 
	C80.905243,125.622749 85.579147,116.231941 90.540001,106.603165 
z"/>
<path fill="#2B539F" opacity="1.000000" stroke="none" 
	d="
M76.012512,135.299469 
	C77.316299,137.850433 78.401260,140.687286 79.763573,143.773438 
	C75.542366,153.201279 71.043793,162.379822 66.290253,171.786163 
	C65.162048,168.838898 64.288803,165.663879 63.179413,162.183655 
	C67.226738,153.114090 71.510208,144.349731 76.012512,135.299469 
z"/>
<path fill="#2B539F" opacity="1.000000" stroke="none" 
	d="
M62.502304,76.280731 
	C61.551464,73.817024 60.878044,71.146118 60.038593,68.098862 
	C64.672318,63.157043 69.472076,58.591579 74.598793,53.913940 
	C75.291023,56.309566 75.656288,58.817371 76.037865,61.750107 
	C71.629356,66.807869 67.204544,71.440704 62.502304,76.280731 
z"/>
</svg>