<svg version="1.1" id="Layer_1" xmlns="http://www.w3.org/2000/svg" xmlns:xlink="http://www.w3.org/1999/xlink" x="0px" y="0px"
	 width="100%" viewBox="0 0 250 170" enable-background="new 0 0 250 170" xml:space="preserve">
<path fill="#FCFDFE" opacity="1.000000" stroke="none" 
	d="
M158.000000,171.000000 
	C105.333336,171.000000 53.166672,171.000000 1.000007,171.000000 
	C1.000005,114.333344 1.000005,57.666679 1.000002,1.000015 
	C84.333321,1.000010 167.666641,1.000010 250.999969,1.000005 
	C250.999985,57.666653 250.999985,114.333305 251.000000,170.999969 
	C220.166672,171.000000 189.333328,171.000000 158.000000,171.000000 
M34.799385,143.067825 
	C38.814751,141.677048 38.550819,138.319489 37.786194,135.336670 
	C37.398018,133.822388 35.434853,132.711868 34.183708,131.418808 
	C33.854416,131.717300 33.525124,132.015793 33.195831,132.314285 
	C36.608307,135.644943 36.355797,139.233948 33.618526,143.217773 
	C33.627136,143.572739 33.635746,143.927704 33.644360,144.282669 
	C33.771141,143.839737 33.897923,143.396790 34.799385,143.067825 
M188.687698,143.886749 
	C192.575394,142.532043 193.485062,139.512558 192.754379,135.932007 
	C192.149811,132.969391 190.242706,131.337814 186.302078,131.992462 
	C185.853409,132.000580 185.404724,132.008682 184.160446,131.998871 
	C183.243286,132.052338 182.326126,132.105804 181.591034,132.148666 
	C181.591034,136.295486 181.591034,140.027695 181.591034,143.839111 
	C183.720474,143.839111 185.843216,143.839111 188.687698,143.886749 
M88.798439,118.828369 
	C84.024422,118.732864 83.045654,116.394859 84.690079,106.692703 
	C83.209930,108.340073 82.143951,108.983017 82.024216,109.769928 
	C81.753250,111.550774 81.887283,113.405342 81.966621,115.225121 
	C82.199615,120.569427 85.152382,121.960594 90.593269,118.923271 
	C90.594017,118.697159 90.594757,118.471039 90.595505,118.244934 
	C90.243179,118.341858 89.890854,118.438782 88.798439,118.828369 
M175.707779,114.719048 
	C177.424530,116.698471 179.141266,118.677895 180.744171,120.526077 
	C180.485550,116.861053 180.328644,113.935760 180.038162,111.023804 
	C179.967285,110.313400 179.458099,109.646713 178.940796,108.414482 
	C178.623276,108.263420 178.305756,108.112350 177.317810,107.831802 
	C176.874176,107.930695 176.430557,108.029587 175.179565,108.012054 
	C174.252609,108.012054 173.325653,108.012054 172.444580,108.012054 
	C172.444580,112.249832 172.444580,116.035240 172.444580,120.120262 
	C173.503143,120.049324 174.804703,119.962112 175.453415,119.918640 
	C175.266098,117.973274 175.119370,116.449524 175.707779,114.719048 
M101.205933,118.690132 
	C102.296844,119.210747 103.387756,119.731361 105.669434,120.820244 
	C102.074547,115.506271 99.364815,111.500748 96.655083,107.495224 
	C96.329636,107.793739 96.004196,108.092247 95.678749,108.390762 
	C95.678749,112.218826 95.678749,116.046890 95.678749,120.390686 
	C97.082451,120.003258 98.416283,119.635124 100.250038,118.735146 
	C100.405312,118.547829 100.560585,118.360512 101.205933,118.690132 
M89.506187,131.184845 
	C88.322395,131.211533 87.138596,131.238205 85.321396,131.147064 
	C84.895493,131.186264 84.469589,131.225464 83.547714,131.163071 
	C83.683113,131.471100 83.818520,131.779114 84.295746,132.812759 
	C84.295746,136.491150 84.295746,140.169525 84.295746,143.843689 
	C85.156525,143.843689 86.438744,143.843689 87.456192,143.843689 
	C87.242142,142.059158 87.046295,140.426315 86.776222,138.174637 
	C89.196579,140.661499 91.056145,142.572144 92.395737,143.948547 
	C92.282265,140.881897 92.386192,138.168991 91.999649,135.527847 
	C91.800514,134.167236 90.728424,132.934387 89.506187,131.184845 
M152.189896,127.014206 
	C152.296616,127.088097 152.403336,127.161995 152.510056,127.235886 
	C152.271027,127.202278 152.032013,127.168678 151.601730,126.590813 
	C151.262680,126.314697 150.702942,125.742737 150.617447,125.806503 
	C149.153152,126.898819 146.594742,128.054840 146.579636,129.226562 
	C146.552002,131.370728 147.476990,134.148972 149.017365,135.547272 
	C151.387833,137.699097 153.689224,139.289413 151.338272,143.084961 
	C151.314011,143.305344 151.289734,143.525742 151.265457,143.746140 
	C151.667419,143.717667 152.069397,143.689194 153.104477,143.269928 
	C156.169113,138.749130 155.779724,137.409470 151.279449,133.533081 
	C149.994705,132.426468 149.501816,130.400589 148.645813,128.796234 
	C149.720398,128.239609 150.794968,127.682991 152.189896,127.014206 
M211.486359,109.542801 
	C213.626953,112.716942 216.173447,115.786217 213.759232,120.093849 
	C215.476639,120.093849 216.758362,120.093849 217.609207,120.093849 
	C217.435822,118.108704 217.647461,116.191650 217.045227,114.578423 
	C215.937271,111.610466 215.754852,107.646347 210.292633,107.101135 
	C199.950012,106.794815 199.950012,106.794815 199.375397,109.813377 
	C200.437485,109.613930 201.499588,109.414482 202.797424,109.170769 
	C202.797424,113.048729 202.797424,116.635948 202.797424,120.448563 
	C203.826599,120.448563 204.877426,120.448563 206.214340,120.448563 
	C206.214340,116.627342 206.214340,113.043335 206.214340,110.015366 
	C208.091019,109.621498 209.540802,109.317223 211.486359,109.542801 
M89.590279,30.415255 
	C94.704048,30.250921 95.961418,33.083626 95.902611,37.710442 
	C95.752380,49.530716 95.582382,61.371372 96.104843,73.173569 
	C96.596481,84.279358 103.985970,91.510986 114.648964,92.477234 
	C127.108047,93.606247 135.849533,88.311501 138.535538,77.690674 
	C139.300110,74.667458 139.447922,71.437553 139.505920,68.295555 
	C139.705536,57.478561 139.743744,46.658550 139.835449,35.839622 
	C139.858765,33.088711 140.589844,31.112179 143.778305,30.410904 
	C144.835556,30.178371 145.510590,28.208117 146.957458,26.206200 
	C139.026505,26.206200 132.586060,26.206200 126.145615,26.206200 
	C125.828384,26.622406 125.511147,27.038614 125.193916,27.454821 
	C126.413124,28.521114 127.525749,30.312733 128.872574,30.510643 
	C132.218094,31.002254 132.924164,33.086601 132.933792,35.753021 
	C132.979523,48.409843 133.170120,61.072655 132.850159,73.721718 
	C132.672974,80.727135 129.080124,84.883606 123.405235,86.191376 
	C113.738853,88.418968 106.587433,82.779243 106.109131,71.617729 
	C105.589058,59.481289 105.918343,47.309067 105.838020,35.152706 
	C105.819427,32.338772 107.059692,31.052000 109.876991,30.481285 
	C111.198845,30.213505 112.221115,28.466867 113.379158,27.390429 
	C113.048225,27.004683 112.717293,26.618938 112.386360,26.233192 
	C104.590553,26.233192 96.794754,26.233192 88.066124,26.135187 
	C79.955460,26.135187 71.844795,26.135187 63.734127,26.135187 
	C63.448013,26.657104 63.161896,27.179022 62.875782,27.700939 
	C64.157158,28.683189 65.485939,29.610401 66.707352,30.662285 
	C68.086716,31.850199 70.434258,33.085876 70.514359,34.412296 
	C70.909981,40.962818 70.694405,47.550251 70.694405,54.183380 
	C60.584969,54.183380 51.149368,54.183380 41.227695,54.183380 
	C41.227695,47.469700 41.015400,41.002491 41.398697,34.570778 
	C41.479771,33.210381 43.620499,31.050671 45.018349,30.872028 
	C48.532700,30.422907 48.440639,28.745646 47.873810,26.218798 
	C39.770229,26.218798 31.992739,26.218798 22.750191,26.218798 
	C24.258156,28.217482 25.089546,30.340267 26.025049,30.387184 
	C30.718102,30.622557 31.223989,33.414188 31.196247,37.174419 
	C31.096695,50.667778 30.997204,64.165169 31.237024,77.655006 
	C31.331959,82.995026 31.057335,87.432640 23.473568,87.681908 
	C24.390989,89.335083 25.380459,91.004333 26.423401,91.038445 
	C33.542778,91.271255 40.673393,91.160423 47.800385,91.160423 
	C48.094852,90.724602 48.389320,90.288780 48.683788,89.852951 
	C47.632938,88.757614 46.639290,87.599037 45.516499,86.583214 
	C44.165707,85.361107 41.545330,84.320366 41.482094,83.097298 
	C41.100037,75.708298 41.292007,68.289627 41.292007,60.812283 
	C51.406475,60.812283 60.843266,60.812283 70.754890,60.812283 
	C70.754890,68.186935 71.017593,75.324593 70.543770,82.413010 
	C70.443275,83.916473 67.602486,85.188049 66.121780,86.664291 
	C65.052612,87.730240 64.144997,88.958237 62.559296,90.828903 
	C72.135338,90.828903 79.899223,90.828903 87.663116,90.828903 
	C87.931084,90.432251 88.199059,90.035591 88.467033,89.638939 
	C87.436607,88.646454 86.503693,86.947464 85.358109,86.789352 
	C81.365051,86.238220 80.768272,83.877777 80.796692,80.457993 
	C80.908844,66.964828 80.842369,53.470181 80.842476,39.976086 
	C80.842545,31.476414 80.842796,31.476414 89.590279,30.415255 
M179.769547,67.635048 
	C181.711792,69.673492 183.408493,69.863640 183.512161,66.561951 
	C183.713959,60.135319 183.571259,53.697880 183.571259,47.264915 
	C183.079391,46.984016 182.587524,46.703114 182.095657,46.422211 
	C181.076736,47.563835 180.056625,48.704391 179.039215,49.847355 
	C177.746231,51.299904 176.642746,53.714630 175.125183,54.010654 
	C171.839600,54.651569 168.342468,54.208054 164.889236,54.208054 
	C164.889236,46.214882 164.889236,38.817242 164.889236,31.458149 
	C178.422806,29.876852 180.773102,31.027380 185.278580,42.066345 
	C190.655716,36.955616 186.563751,31.244259 188.004974,26.288067 
	C173.883545,26.288067 160.500641,26.288067 147.117752,26.288067 
	C146.841232,26.768162 146.564728,27.248255 146.288208,27.728350 
	C147.574768,28.734865 148.766434,30.410072 150.167603,30.608885 
	C153.097061,31.024544 154.245224,32.391582 154.240204,35.157257 
	C154.212173,50.628963 154.172501,66.100739 154.200241,81.572380 
	C154.205582,84.549950 153.063797,86.408012 149.973785,86.553001 
	C146.406036,86.720413 146.579544,88.575096 147.448898,90.949303 
	C155.548386,90.949303 163.316345,90.949303 171.084290,90.949303 
	C171.399597,90.588814 171.714890,90.228317 172.030182,89.867828 
	C171.012848,88.770447 170.070740,87.588684 168.958817,86.597389 
	C167.620148,85.403938 164.966736,84.431755 164.907303,83.261002 
	C164.531555,75.858643 164.716690,68.427818 164.716690,61.099297 
	C176.670197,59.513153 178.184189,60.134857 179.769547,67.635048 
M196.079727,54.186710 
	C199.559692,57.202988 202.981598,60.290043 206.540436,63.210201 
	C208.841553,65.098351 211.671738,66.432320 213.682068,68.564186 
	C217.192551,72.286896 217.656891,76.847038 215.695190,81.561447 
	C214.134644,85.311821 211.200424,87.380753 207.173676,87.361389 
	C202.153030,87.337265 199.539734,83.894463 197.574646,79.821602 
	C197.071899,78.779617 196.936798,77.501999 196.261078,76.616173 
	C195.374481,75.453880 194.119553,74.572540 193.023041,73.570374 
	C192.637177,73.895920 192.251312,74.221466 191.865448,74.547012 
	C192.315536,78.814049 192.667023,83.095581 193.290955,87.337036 
	C193.431808,88.294434 194.339294,89.395332 195.202408,89.950478 
	C203.675827,95.400581 217.287842,92.604874 222.984146,84.333794 
	C228.845673,75.822800 226.795517,63.419590 218.307800,57.190350 
	C214.968430,54.739532 210.908661,53.155582 207.919144,50.378048 
	C205.404434,48.041634 203.089325,44.773232 202.248611,41.514271 
	C200.862915,36.142685 204.214798,30.903566 208.455429,29.978527 
	C213.513718,28.875128 216.681427,31.190535 219.097137,37.266346 
	C219.569305,38.453922 221.222961,39.171741 222.331696,40.106224 
	C223.021317,35.517933 222.723297,32.048985 222.196060,28.615231 
	C222.048447,27.653793 221.452591,26.359709 220.678101,25.956814 
	C210.661118,20.745810 196.328384,26.407028 194.442932,37.022736 
	C193.511719,42.265766 195.256485,47.984081 196.079727,54.186710 
M37.199501,102.085449 
	C37.199501,108.050667 37.199501,114.015892 37.199501,120.096954 
	C38.527428,120.096954 40.125023,120.096954 41.229733,120.096954 
	C41.229733,114.043671 41.229733,108.237534 41.229733,102.039780 
	C40.229012,102.039780 39.106293,102.039780 37.199501,102.085449 
M131.122131,137.551224 
	C132.779800,139.697845 134.437454,141.844467 136.331268,144.296906 
	C136.331268,139.770386 136.331268,135.924332 136.331268,132.078293 
	C136.043137,132.101349 135.754990,132.124390 135.466858,132.147446 
	C135.466858,134.210632 135.466858,136.273834 135.466858,138.662781 
	C132.745255,135.696899 130.355484,133.092606 127.317505,129.781952 
	C127.317505,135.390472 127.317505,139.483826 127.317505,143.803436 
	C127.943237,143.803436 129.191193,143.803436 129.850708,143.803436 
	C129.540466,141.146667 129.241760,138.588699 128.804779,134.846710 
	C130.097946,136.264603 130.421936,136.619858 131.122131,137.551224 
M134.141495,111.471100 
	C132.517914,109.924210 130.894318,108.377327 129.270737,106.830437 
	C128.793304,107.330902 128.315857,107.831367 127.838417,108.331833 
	C131.147751,112.324654 134.457077,116.317467 138.246765,120.889839 
	C138.246765,116.144867 138.246765,112.302589 138.246765,108.460312 
	C138.015182,108.458107 137.783615,108.455902 137.552032,108.453697 
	C137.302704,110.241379 137.053360,112.029053 136.706436,114.516502 
	C135.632584,113.275566 135.112717,112.674812 134.141495,111.471100 
M70.024010,109.052895 
	C70.024010,112.620888 70.024010,116.188881 70.024010,119.548386 
	C73.353676,119.548386 76.351532,119.548386 79.221642,119.548386 
	C77.037125,116.093269 74.703194,112.401825 71.974823,108.086517 
	C72.275749,108.058083 71.307083,108.149620 70.024010,109.052895 
M64.121193,133.997299 
	C58.352703,133.717896 62.448418,129.605347 61.834400,126.659004 
	C63.834415,127.356842 65.834427,128.054672 67.623810,128.679016 
	C67.224663,125.544800 67.224663,125.544800 58.136669,126.175186 
	C58.136669,132.082825 58.136669,137.957840 58.136669,144.023605 
	C59.444004,143.965683 61.006580,143.896469 61.602264,143.870071 
	C61.423695,140.923737 61.263947,138.287964 61.070389,135.094376 
	C62.947536,135.367477 64.196884,135.549240 65.446228,135.731003 
	C65.273819,135.163452 65.101418,134.595917 64.121193,133.997299 
M203.024124,133.168884 
	C203.024124,136.669403 203.024124,140.169922 203.024124,144.111740 
	C205.340637,144.003647 208.165878,143.871826 210.991119,143.739990 
	C210.979736,143.345459 210.968338,142.950912 210.956940,142.556381 
	C209.474609,142.630112 207.992294,142.703827 205.087326,142.848328 
	C206.221909,140.351227 206.997803,138.643555 207.443237,137.663208 
	C206.615692,136.374878 205.616013,134.818619 204.111679,132.476669 
	C207.008759,132.476669 208.423706,132.476669 209.838654,132.476669 
	C209.748810,131.914627 209.658981,131.352585 209.569153,130.790543 
	C207.268417,131.323685 204.967682,131.856827 203.024124,133.168884 
M27.074247,111.408676 
	C26.898382,114.196907 26.722515,116.985130 26.536383,119.936142 
	C27.546806,119.936142 29.104286,119.936142 30.151300,119.936142 
	C30.151300,116.529213 30.397757,113.412621 30.101116,110.348595 
	C29.439003,103.509544 29.328585,103.520233 27.074272,103.557312 
	C27.074272,105.858513 27.074272,108.162895 27.074247,111.408676 
M168.228073,136.560913 
	C169.041183,139.056061 169.347672,141.961655 170.890320,143.865738 
	C171.614990,144.760208 174.719559,143.726501 176.745621,143.566589 
	C176.785599,143.018021 176.825562,142.469437 176.865524,141.920868 
	C173.959671,142.797943 170.846634,143.950943 170.840744,139.381042 
	C170.837265,136.685684 171.078278,133.990036 171.210938,131.261505 
	C170.016022,131.261505 168.771866,131.261505 167.514694,131.261505 
	C167.777603,132.905777 168.002228,134.310547 168.228073,136.560913 
M193.972122,120.333626 
	C195.195297,120.278992 196.418472,120.224358 197.238800,120.187721 
	C197.238800,115.720383 197.238800,111.718330 197.238800,107.523514 
	C196.080521,107.523514 194.717407,107.523514 194.287125,107.523514 
	C193.948914,111.924759 193.641739,115.922081 193.972122,120.333626 
M149.112610,107.347130 
	C150.407440,111.754143 151.702286,116.161156 152.997116,120.568169 
	C153.489288,120.520065 153.981476,120.471954 154.473663,120.423851 
	C155.316910,118.083946 156.160156,115.744034 157.003418,113.404129 
	C156.775101,113.283852 156.546799,113.163574 156.318481,113.043304 
	C155.643860,113.877182 154.969223,114.711067 153.812210,116.141182 
	C153.240860,113.222008 152.987549,110.963379 152.282211,108.856049 
	C152.040817,108.134804 150.666473,107.792755 149.112610,107.347130 
M53.636871,118.583488 
	C52.327576,114.748169 51.018276,110.912842 49.608524,106.783257 
	C43.195225,112.445824 51.732773,115.628922 50.741230,120.897011 
	C52.274689,120.078697 53.254654,119.555748 53.636871,118.583488 
M102.249802,142.930054 
	C101.119469,142.162460 99.989128,141.394852 98.858795,140.627258 
	C99.708702,139.427200 100.558609,138.227127 101.896149,136.338531 
	C100.721893,135.025482 99.092247,133.203201 97.462608,131.380920 
	C97.058586,131.646774 96.654556,131.912628 96.250534,132.178482 
	C96.250534,136.044800 96.250534,139.911118 96.250534,144.287720 
	C98.215240,143.910553 100.643471,143.444427 102.249802,142.930054 
M198.897202,138.411499 
	C198.897202,136.052628 198.897202,133.693741 198.897202,131.122513 
	C197.937881,131.193695 196.708191,131.284943 195.680542,131.361206 
	C195.680542,135.680969 195.680542,139.656952 195.680542,143.735916 
	C196.984558,143.735916 198.349503,143.735916 199.333435,143.735916 
	C199.170486,142.075256 199.033905,140.683212 198.897202,138.411499 
M187.671371,116.089775 
	C187.433640,117.244736 187.192307,118.399025 186.977295,119.558205 
	C186.971420,119.589920 187.249115,119.674225 187.394577,119.734009 
	C191.155380,118.661339 191.737045,116.384468 189.087845,113.567406 
	C187.581085,111.965134 186.274124,110.174973 184.719162,108.276474 
	C182.351822,111.616646 184.275131,113.741905 187.671371,116.089775 
M57.910191,111.671547 
	C60.478310,114.438141 63.046432,117.204727 65.884827,120.262482 
	C65.977837,115.634987 60.012951,108.202187 56.247059,107.884735 
	C56.688515,108.998550 57.100388,110.037735 57.910191,111.671547 
M167.471527,119.815536 
	C163.082703,117.783546 162.988281,116.621552 167.060516,109.684929 
	C165.189194,109.008644 163.440674,108.376747 161.692566,107.745003 
	C161.692566,112.360672 161.692566,116.133026 161.692566,120.009995 
	C163.435577,120.009995 165.083313,120.009995 167.471527,119.815536 
M118.710121,119.650909 
	C114.873711,115.808281 116.615509,110.903168 116.100182,106.410042 
	C115.959076,105.179672 114.996544,104.043526 114.410957,102.864143 
	C113.846848,107.167137 113.361763,110.885025 114.030373,114.382355 
	C114.425903,116.451279 116.644966,118.171577 118.710121,119.650909 
M45.828411,138.051605 
	C46.428078,138.390717 47.027740,138.729828 47.963177,139.258804 
	C47.871609,137.869751 47.802483,136.821106 47.752602,136.064423 
	C46.495834,136.454376 45.515442,136.758560 45.048107,136.903564 
	C44.022659,134.923355 43.208694,133.351547 42.394733,131.779739 
	C42.012455,132.025848 41.630173,132.271957 41.247894,132.518051 
	C41.247894,136.251740 41.247894,139.985413 41.247894,143.836365 
	C42.439835,143.836365 43.880619,143.836365 44.369564,143.836365 
	C44.637794,141.708939 44.868198,139.881516 45.828411,138.051605 
M69.562561,134.556534 
	C68.290695,140.976257 69.482002,143.180191 73.441376,143.636337 
	C72.798637,140.070557 72.104279,136.218384 71.390015,132.255768 
	C70.958763,132.732162 70.437088,133.308426 69.562561,134.556534 
M31.080299,144.085449 
	C30.179304,140.167892 29.278309,136.250336 28.461508,132.698868 
	C24.200966,135.722565 24.560541,140.794357 31.080299,144.085449 
M117.809456,132.558838 
	C114.343605,132.944199 112.983261,135.229599 113.793922,139.305008 
	C114.650482,143.611160 117.166977,144.799866 122.491325,143.413391 
	C116.050522,142.531006 114.626434,139.658951 117.809456,132.558838 
M215.778900,132.861313 
	C215.423218,132.528717 215.067551,132.196121 214.711884,131.863525 
	C212.671768,134.580322 213.720428,136.556702 215.890900,138.723877 
	C217.117401,139.948532 217.539719,141.978592 218.439529,143.890823 
	C221.252518,142.099533 221.391144,139.824127 218.622498,137.114731 
	C217.499329,136.015610 216.519470,134.770004 215.778900,132.861313 
M123.471268,116.925529 
	C123.441246,117.559204 123.411232,118.192886 123.312981,120.266739 
	C127.073189,114.082207 125.305336,108.597191 125.559258,103.400917 
	C125.560402,103.377396 124.023392,103.278709 123.754890,103.257858 
	C123.754890,107.791664 123.754890,112.021118 123.471268,116.925529 
M145.074982,118.414680 
	C145.074982,115.063660 145.074982,111.712646 145.074982,108.084946 
	C144.360153,108.142578 143.350250,108.224007 142.682648,108.277840 
	C142.682648,112.424377 142.682648,116.192886 142.682648,120.320412 
	C143.937057,120.047310 144.986938,119.818741 146.036835,119.590179 
	C145.886993,119.386017 145.737137,119.181854 145.074982,118.414680 
M77.240440,144.293961 
	C78.985771,141.967087 80.731094,139.640228 82.476425,137.313354 
	C82.069366,136.859451 81.662300,136.405548 81.255241,135.951645 
	C80.207008,136.452515 78.539116,136.710617 78.229523,137.500854 
	C77.381805,139.664658 77.105675,142.052414 77.240440,144.293961 
M162.001389,133.770889 
	C161.760193,133.226288 161.519012,132.681686 161.277832,132.137070 
	C160.797913,132.776901 159.933319,133.399307 159.903381,134.059555 
	C159.758591,137.254028 159.838104,140.458679 159.838104,143.692612 
	C160.275909,143.692612 161.816727,143.692612 162.003784,143.692612 
	C162.003784,140.511032 162.003784,137.595963 162.001389,133.770889 
M110.008049,140.967194 
	C109.997498,132.563019 109.997498,132.563019 107.310532,132.478378 
	C107.310532,136.212128 107.310532,139.946289 107.310532,145.451202 
	C108.618767,143.704453 109.328491,142.756821 110.008049,140.967194 
M80.640305,133.529953 
	C79.664482,133.054184 78.688660,132.578415 77.712837,132.102661 
	C77.564186,132.635956 77.415543,133.169250 77.266891,133.702560 
	C78.390854,133.859268 79.514824,134.015991 80.640305,133.529953 
M148.783386,144.419571 
	C148.850204,144.449142 148.917023,144.478699 148.783386,144.419571 
z"/>
<path fill="#15717C" opacity="1.000000" stroke="none" 
	d="
M89.014526,29.940086 
	C80.842796,31.476414 80.842545,31.476414 80.842476,39.976086 
	C80.842369,53.470181 80.908844,66.964828 80.796692,80.457993 
	C80.768272,83.877777 81.365051,86.238220 85.358109,86.789352 
	C86.503693,86.947464 87.436607,88.646454 88.467033,89.638939 
	C88.199059,90.035591 87.931084,90.432251 87.663116,90.828903 
	C79.899223,90.828903 72.135338,90.828903 62.559296,90.828903 
	C64.144997,88.958237 65.052612,87.730240 66.121780,86.664291 
	C67.602486,85.188049 70.443275,83.916473 70.543770,82.413010 
	C71.017593,75.324593 70.754890,68.186935 70.754890,60.812283 
	C60.843266,60.812283 51.406475,60.812283 41.292007,60.812283 
	C41.292007,68.289627 41.100037,75.708298 41.482094,83.097298 
	C41.545330,84.320366 44.165707,85.361107 45.516499,86.583214 
	C46.639290,87.599037 47.632938,88.757614 48.683788,89.852951 
	C48.389320,90.288780 48.094852,90.724602 47.800385,91.160423 
	C40.673393,91.160423 33.542778,91.271255 26.423401,91.038445 
	C25.380459,91.004333 24.390989,89.335083 23.473568,87.681908 
	C31.057335,87.432640 31.331959,82.995026 31.237024,77.655006 
	C30.997204,64.165169 31.096695,50.667778 31.196247,37.174419 
	C31.223989,33.414188 30.718102,30.622557 26.025049,30.387184 
	C25.089546,30.340267 24.258156,28.217482 22.750191,26.218798 
	C31.992739,26.218798 39.770229,26.218798 47.873810,26.218798 
	C48.440639,28.745646 48.532700,30.422907 45.018349,30.872028 
	C43.620499,31.050671 41.479771,33.210381 41.398697,34.570778 
	C41.015400,41.002491 41.227695,47.469700 41.227695,54.183380 
	C51.149368,54.183380 60.584969,54.183380 70.694405,54.183380 
	C70.694405,47.550251 70.909981,40.962818 70.514359,34.412296 
	C70.434258,33.085876 68.086716,31.850199 66.707352,30.662285 
	C65.485939,29.610401 64.157158,28.683189 62.875782,27.700939 
	C63.161896,27.179022 63.448013,26.657104 63.734127,26.135187 
	C71.844795,26.135187 79.955460,26.135187 88.533157,26.554863 
	C89.004974,27.963053 89.009750,28.951571 89.014526,29.940086 
z"/>
<path fill="#14717C" opacity="1.000000" stroke="none" 
	d="
M89.302399,30.177670 
	C89.009750,28.951571 89.004974,27.963053 88.999573,26.603865 
	C96.794754,26.233192 104.590553,26.233192 112.386360,26.233192 
	C112.717293,26.618938 113.048225,27.004683 113.379158,27.390429 
	C112.221115,28.466867 111.198845,30.213505 109.876991,30.481285 
	C107.059692,31.052000 105.819427,32.338772 105.838020,35.152706 
	C105.918343,47.309067 105.589058,59.481289 106.109131,71.617729 
	C106.587433,82.779243 113.738853,88.418968 123.405235,86.191376 
	C129.080124,84.883606 132.672974,80.727135 132.850159,73.721718 
	C133.170120,61.072655 132.979523,48.409843 132.933792,35.753021 
	C132.924164,33.086601 132.218094,31.002254 128.872574,30.510643 
	C127.525749,30.312733 126.413124,28.521114 125.193916,27.454821 
	C125.511147,27.038614 125.828384,26.622406 126.145615,26.206200 
	C132.586060,26.206200 139.026505,26.206200 146.957458,26.206200 
	C145.510590,28.208117 144.835556,30.178371 143.778305,30.410904 
	C140.589844,31.112179 139.858765,33.088711 139.835449,35.839622 
	C139.743744,46.658550 139.705536,57.478561 139.505920,68.295555 
	C139.447922,71.437553 139.300110,74.667458 138.535538,77.690674 
	C135.849533,88.311501 127.108047,93.606247 114.648964,92.477234 
	C103.985970,91.510986 96.596481,84.279358 96.104843,73.173569 
	C95.582382,61.371372 95.752380,49.530716 95.902611,37.710442 
	C95.961418,33.083626 94.704048,30.250921 89.302399,30.177670 
z"/>
<path fill="#1F7782" opacity="1.000000" stroke="none" 
	d="
M179.657394,67.253441 
	C178.184189,60.134857 176.670197,59.513153 164.716690,61.099297 
	C164.716690,68.427818 164.531555,75.858643 164.907303,83.261002 
	C164.966736,84.431755 167.620148,85.403938 168.958817,86.597389 
	C170.070740,87.588684 171.012848,88.770447 172.030182,89.867828 
	C171.714890,90.228317 171.399597,90.588814 171.084290,90.949303 
	C163.316345,90.949303 155.548386,90.949303 147.448898,90.949303 
	C146.579544,88.575096 146.406036,86.720413 149.973785,86.553001 
	C153.063797,86.408012 154.205582,84.549950 154.200241,81.572380 
	C154.172501,66.100739 154.212173,50.628963 154.240204,35.157257 
	C154.245224,32.391582 153.097061,31.024544 150.167603,30.608885 
	C148.766434,30.410072 147.574768,28.734865 146.288208,27.728350 
	C146.564728,27.248255 146.841232,26.768162 147.117752,26.288067 
	C160.500641,26.288067 173.883545,26.288067 188.004974,26.288067 
	C186.563751,31.244259 190.655716,36.955616 185.278580,42.066345 
	C180.773102,31.027380 178.422806,29.876852 164.889236,31.458149 
	C164.889236,38.817242 164.889236,46.214882 164.889236,54.208054 
	C168.342468,54.208054 171.839600,54.651569 175.125183,54.010654 
	C176.642746,53.714630 177.746231,51.299904 179.039215,49.847355 
	C180.056625,48.704391 181.076736,47.563835 182.095657,46.422211 
	C182.587524,46.703114 183.079391,46.984016 183.571259,47.264915 
	C183.571259,53.697880 183.713959,60.135319 183.512161,66.561951 
	C183.408493,69.863640 181.711792,69.673492 179.657394,67.253441 
z"/>
<path fill="#15717C" opacity="1.000000" stroke="none" 
	d="
M195.935089,53.837029 
	C195.256485,47.984081 193.511719,42.265766 194.442932,37.022736 
	C196.328384,26.407028 210.661118,20.745810 220.678101,25.956814 
	C221.452591,26.359709 222.048447,27.653793 222.196060,28.615231 
	C222.723297,32.048985 223.021317,35.517933 222.331696,40.106224 
	C221.222961,39.171741 219.569305,38.453922 219.097137,37.266346 
	C216.681427,31.190535 213.513718,28.875128 208.455429,29.978527 
	C204.214798,30.903566 200.862915,36.142685 202.248611,41.514271 
	C203.089325,44.773232 205.404434,48.041634 207.919144,50.378048 
	C210.908661,53.155582 214.968430,54.739532 218.307800,57.190350 
	C226.795517,63.419590 228.845673,75.822800 222.984146,84.333794 
	C217.287842,92.604874 203.675827,95.400581 195.202408,89.950478 
	C194.339294,89.395332 193.431808,88.294434 193.290955,87.337036 
	C192.667023,83.095581 192.315536,78.814049 191.865448,74.547012 
	C192.251312,74.221466 192.637177,73.895920 193.023041,73.570374 
	C194.119553,74.572540 195.374481,75.453880 196.261078,76.616173 
	C196.936798,77.501999 197.071899,78.779617 197.574646,79.821602 
	C199.539734,83.894463 202.153030,87.337265 207.173676,87.361389 
	C211.200424,87.380753 214.134644,85.311821 215.695190,81.561447 
	C217.656891,76.847038 217.192551,72.286896 213.682068,68.564186 
	C211.671738,66.432320 208.841553,65.098351 206.540436,63.210201 
	C202.981598,60.290043 199.559692,57.202988 195.935089,53.837029 
z"/>
<path fill="#428C95" opacity="1.000000" stroke="none" 
	d="
M37.591537,102.062614 
	C39.106293,102.039780 40.229012,102.039780 41.229733,102.039780 
	C41.229733,108.237534 41.229733,114.043671 41.229733,120.096954 
	C40.125023,120.096954 38.527428,120.096954 37.199501,120.096954 
	C37.199501,114.015892 37.199501,108.050667 37.591537,102.062614 
z"/>
<path fill="#7EB1B7" opacity="1.000000" stroke="none" 
	d="
M210.990585,109.012947 
	C209.540802,109.317223 208.091019,109.621498 206.214340,110.015366 
	C206.214340,113.043335 206.214340,116.627342 206.214340,120.448563 
	C204.877426,120.448563 203.826599,120.448563 202.797424,120.448563 
	C202.797424,116.635948 202.797424,113.048729 202.797424,109.170769 
	C201.499588,109.414482 200.437485,109.613930 199.376251,109.811722 
	C199.950012,106.794815 199.950012,106.794815 210.708069,107.536102 
	C211.079193,108.318359 211.034882,108.665649 210.990585,109.012947 
z"/>
<path fill="#237A84" opacity="1.000000" stroke="none" 
	d="
M130.934021,137.263153 
	C130.421936,136.619858 130.097946,136.264603 128.804779,134.846710 
	C129.241760,138.588699 129.540466,141.146667 129.850708,143.803436 
	C129.191193,143.803436 127.943237,143.803436 127.317505,143.803436 
	C127.317505,139.483826 127.317505,135.390472 127.317505,129.781952 
	C130.355484,133.092606 132.745255,135.696899 135.466858,138.662781 
	C135.466858,136.273834 135.466858,134.210632 135.466858,132.147446 
	C135.754990,132.124390 136.043137,132.101349 136.331268,132.078293 
	C136.331268,135.924332 136.331268,139.770386 136.331268,144.296906 
	C134.437454,141.844467 132.779800,139.697845 130.934021,137.263153 
z"/>
<path fill="#4B929A" opacity="1.000000" stroke="none" 
	d="
M134.367188,111.772583 
	C135.112717,112.674812 135.632584,113.275566 136.706436,114.516502 
	C137.053360,112.029053 137.302704,110.241379 137.552032,108.453697 
	C137.783615,108.455902 138.015182,108.458107 138.246765,108.460312 
	C138.246765,112.302589 138.246765,116.144867 138.246765,120.889839 
	C134.457077,116.317467 131.147751,112.324654 127.838417,108.331833 
	C128.315857,107.831367 128.793304,107.330902 129.270737,106.830437 
	C130.894318,108.377327 132.517914,109.924210 134.367188,111.772583 
z"/>
<path fill="#1C7580" opacity="1.000000" stroke="none" 
	d="
M70.181213,108.647034 
	C71.307083,108.149620 72.275749,108.058083 71.974823,108.086517 
	C74.703194,112.401825 77.037125,116.093269 79.221642,119.548386 
	C76.351532,119.548386 73.353676,119.548386 70.024010,119.548386 
	C70.024010,116.188881 70.024010,112.620888 70.181213,108.647034 
M73.099091,116.180717 
	C73.485504,117.265434 73.871918,118.350159 74.258331,119.434875 
	C74.740883,119.192062 75.223434,118.949249 75.705986,118.706436 
	C74.952797,117.634926 74.199608,116.563423 73.099091,116.180717 
z"/>
<path fill="#30818B" opacity="1.000000" stroke="none" 
	d="
M151.829239,142.841507 
	C153.689224,139.289413 151.387833,137.699097 149.017365,135.547272 
	C147.476990,134.148972 146.552002,131.370728 146.579636,129.226562 
	C146.594742,128.054840 149.153152,126.898819 150.617447,125.806503 
	C150.702942,125.742737 151.262680,126.314697 151.717865,126.853447 
	C151.833984,127.116081 151.869553,127.126366 151.869553,127.126366 
	C150.794968,127.682991 149.720398,128.239609 148.645813,128.796234 
	C149.501816,130.400589 149.994705,132.426468 151.279449,133.533081 
	C155.779724,137.409470 156.169113,138.749130 152.641663,143.249329 
	C152.062317,143.099640 151.945770,142.970581 151.829239,142.841507 
z"/>
<path fill="#15717C" opacity="1.000000" stroke="none" 
	d="
M64.525101,134.012833 
	C65.101418,134.595917 65.273819,135.163452 65.446228,135.731003 
	C64.196884,135.549240 62.947536,135.367477 61.070389,135.094376 
	C61.263947,138.287964 61.423695,140.923737 61.602264,143.870071 
	C61.006580,143.896469 59.444004,143.965683 58.136669,144.023605 
	C58.136669,137.957840 58.136669,132.082825 58.136669,126.175186 
	C67.224663,125.544800 67.224663,125.544800 67.623810,128.679016 
	C65.834427,128.054672 63.834415,127.356842 61.834400,126.659004 
	C62.448418,129.605347 58.352703,133.717896 64.525101,134.012833 
z"/>
<path fill="#237A84" opacity="1.000000" stroke="none" 
	d="
M84.043686,131.264664 
	C84.469589,131.225464 84.895493,131.186264 85.650497,131.584076 
	C86.058708,133.451935 86.137802,134.882812 86.223740,136.437393 
	C87.644379,136.241241 88.839874,136.076187 90.300034,135.874588 
	C90.216682,134.459824 90.133728,133.051819 90.050781,131.643799 
	C90.728424,132.934387 91.800514,134.167236 91.999649,135.527847 
	C92.386192,138.168991 92.282265,140.881897 92.395737,143.948547 
	C91.056145,142.572144 89.196579,140.661499 86.776222,138.174637 
	C87.046295,140.426315 87.242142,142.059158 87.456192,143.843689 
	C86.438744,143.843689 85.156525,143.843689 84.295746,143.843689 
	C84.295746,140.169525 84.295746,136.491150 84.166641,132.246368 
	C84.037529,131.679977 84.043686,131.264664 84.043686,131.264664 
z"/>
<path fill="#EEF5F6" opacity="1.000000" stroke="none" 
	d="
M184.956055,132.016785 
	C185.404724,132.008682 185.853409,132.000580 186.747345,132.355927 
	C191.188400,135.509781 191.410736,138.445084 187.546906,142.864960 
	C186.138947,142.183167 184.315460,141.482239 184.291092,140.723511 
	C184.198227,137.831375 184.685516,134.920593 184.956055,132.016785 
z"/>
<path fill="#1C7580" opacity="1.000000" stroke="none" 
	d="
M99.750114,119.266983 
	C98.416283,119.635124 97.082451,120.003258 95.678749,120.390686 
	C95.678749,116.046890 95.678749,112.218826 95.678749,108.390762 
	C96.004196,108.092247 96.329636,107.793739 96.655083,107.495224 
	C99.364815,111.500748 102.074547,115.506271 105.669434,120.820244 
	C103.387756,119.731361 102.296844,119.210747 100.854675,118.151062 
	C99.877907,116.929314 99.252403,116.246635 98.626900,115.563957 
	C98.349152,115.774612 98.071404,115.985268 97.793648,116.195923 
	C98.445808,117.219612 99.097961,118.243301 99.750114,119.266983 
z"/>
<path fill="#3C8992" opacity="1.000000" stroke="none" 
	d="
M202.845535,132.779434 
	C204.967682,131.856827 207.268417,131.323685 209.569153,130.790543 
	C209.658981,131.352585 209.748810,131.914627 209.838654,132.476669 
	C208.423706,132.476669 207.008759,132.476669 204.111679,132.476669 
	C205.616013,134.818619 206.615692,136.374878 207.443237,137.663208 
	C206.997803,138.643555 206.221909,140.351227 205.087326,142.848328 
	C207.992294,142.703827 209.474609,142.630112 210.956940,142.556381 
	C210.968338,142.950912 210.979736,143.345459 210.991119,143.739990 
	C208.165878,143.871826 205.340637,144.003647 203.024124,144.111740 
	C203.024124,140.169922 203.024124,136.669403 202.845535,132.779434 
z"/>
<path fill="#33838D" opacity="1.000000" stroke="none" 
	d="
M27.074261,110.937973 
	C27.074272,108.162895 27.074272,105.858513 27.074272,103.557312 
	C29.328585,103.520233 29.439003,103.509544 30.101116,110.348595 
	C30.397757,113.412621 30.151300,116.529213 30.151300,119.936142 
	C29.104286,119.936142 27.546806,119.936142 26.536383,119.936142 
	C26.722515,116.985130 26.898382,114.196907 27.074261,110.937973 
z"/>
<path fill="#4B929A" opacity="1.000000" stroke="none" 
	d="
M168.227448,136.138107 
	C168.002228,134.310547 167.777603,132.905777 167.514694,131.261505 
	C168.771866,131.261505 170.016022,131.261505 171.210938,131.261505 
	C171.078278,133.990036 170.837265,136.685684 170.840744,139.381042 
	C170.846634,143.950943 173.959671,142.797943 176.865524,141.920868 
	C176.825562,142.469437 176.785599,143.018021 176.745621,143.566589 
	C174.719559,143.726501 171.614990,144.760208 170.890320,143.865738 
	C169.347672,141.961655 169.041183,139.056061 168.227448,136.138107 
z"/>
<path fill="#5A9BA2" opacity="1.000000" stroke="none" 
	d="
M193.653351,120.126511 
	C193.641739,115.922081 193.948914,111.924759 194.287125,107.523514 
	C194.717407,107.523514 196.080521,107.523514 197.238800,107.523514 
	C197.238800,111.718330 197.238800,115.720383 197.238800,120.187721 
	C196.418472,120.224358 195.195297,120.278992 193.653351,120.126511 
z"/>
<path fill="#428C95" opacity="1.000000" stroke="none" 
	d="
M149.461182,107.312302 
	C150.666473,107.792755 152.040817,108.134804 152.282211,108.856049 
	C152.987549,110.963379 153.240860,113.222008 153.812210,116.141182 
	C154.969223,114.711067 155.643860,113.877182 156.318481,113.043304 
	C156.546799,113.163574 156.775101,113.283852 157.003418,113.404129 
	C156.160156,115.744034 155.316910,118.083946 154.473663,120.423851 
	C153.981476,120.471954 153.489288,120.520065 152.997116,120.568169 
	C151.702286,116.161156 150.407440,111.754143 149.461182,107.312302 
z"/>
<path fill="#30818B" opacity="1.000000" stroke="none" 
	d="
M211.238464,109.277878 
	C211.034882,108.665649 211.079193,108.318359 211.153381,107.708954 
	C215.754852,107.646347 215.937271,111.610466 217.045227,114.578423 
	C217.647461,116.191650 217.435822,118.108704 217.609207,120.093849 
	C216.758362,120.093849 215.476639,120.093849 213.759232,120.093849 
	C216.173447,115.786217 213.626953,112.716942 211.238464,109.277878 
z"/>
<path fill="#30818B" opacity="1.000000" stroke="none" 
	d="
M53.935745,118.808144 
	C53.254654,119.555748 52.274689,120.078697 50.741230,120.897011 
	C51.732773,115.628922 43.195225,112.445824 49.608524,106.783257 
	C51.018276,110.912842 52.327576,114.748169 53.935745,118.808144 
z"/>
<path fill="#15717C" opacity="1.000000" stroke="none" 
	d="
M102.660751,142.954163 
	C100.643471,143.444427 98.215240,143.910553 96.250534,144.287720 
	C96.250534,139.911118 96.250534,136.044800 96.250534,132.178482 
	C96.654556,131.912628 97.058586,131.646774 97.462608,131.380920 
	C99.092247,133.203201 100.721893,135.025482 101.896149,136.338531 
	C100.558609,138.227127 99.708702,139.427200 98.858795,140.627258 
	C99.989128,141.394852 101.119469,142.162460 102.660751,142.954163 
z"/>
<path fill="#287D87" opacity="1.000000" stroke="none" 
	d="
M198.897247,138.851334 
	C199.033905,140.683212 199.170486,142.075256 199.333435,143.735916 
	C198.349503,143.735916 196.984558,143.735916 195.680542,143.735916 
	C195.680542,139.656952 195.680542,135.680969 195.680542,131.361206 
	C196.708191,131.284943 197.937881,131.193695 198.897202,131.122513 
	C198.897202,133.693741 198.897202,136.052628 198.897247,138.851334 
z"/>
<path fill="#3C8992" opacity="1.000000" stroke="none" 
	d="
M187.399460,115.852661 
	C184.275131,113.741905 182.351822,111.616646 184.719162,108.276474 
	C186.274124,110.174973 187.581085,111.965134 189.087845,113.567406 
	C191.737045,116.384468 191.155380,118.661339 187.394577,119.734009 
	C187.249115,119.674225 186.971420,119.589920 186.977295,119.558205 
	C187.192307,118.399025 187.433640,117.244736 187.399460,115.852661 
z"/>
<path fill="#287D87" opacity="1.000000" stroke="none" 
	d="
M57.711227,111.374237 
	C57.100388,110.037735 56.688515,108.998550 56.247059,107.884735 
	C60.012951,108.202187 65.977837,115.634987 65.884827,120.262482 
	C63.046432,117.204727 60.478310,114.438141 57.711227,111.374237 
z"/>
<path fill="#14717C" opacity="1.000000" stroke="none" 
	d="
M167.101288,119.912766 
	C165.083313,120.009995 163.435577,120.009995 161.692566,120.009995 
	C161.692566,116.133026 161.692566,112.360672 161.692566,107.745003 
	C163.440674,108.376747 165.189194,109.008644 167.060516,109.684929 
	C162.988281,116.621552 163.082703,117.783546 167.101288,119.912766 
z"/>
<path fill="#287D87" opacity="1.000000" stroke="none" 
	d="
M179.150452,108.959923 
	C179.458099,109.646713 179.967285,110.313400 180.038162,111.023804 
	C180.328644,113.935760 180.485550,116.861053 180.744171,120.526077 
	C179.141266,118.677895 177.424530,116.698471 175.372528,114.441574 
	C175.353836,112.152222 175.670380,110.140350 175.986908,108.128479 
	C176.430557,108.029587 176.874176,107.930695 177.779175,108.131348 
	C178.543839,108.607231 178.847153,108.783577 179.150452,108.959923 
z"/>
<path fill="#15717C" opacity="1.000000" stroke="none" 
	d="
M118.377075,119.849777 
	C116.644966,118.171577 114.425903,116.451279 114.030373,114.382355 
	C113.361763,110.885025 113.846848,107.167137 114.410957,102.864143 
	C114.996544,104.043526 115.959076,105.179672 116.100182,106.410042 
	C116.615509,110.903168 114.873711,115.808281 118.377075,119.849777 
z"/>
<path fill="#1C7580" opacity="1.000000" stroke="none" 
	d="
M45.463509,138.052841 
	C44.868198,139.881516 44.637794,141.708939 44.369564,143.836365 
	C43.880619,143.836365 42.439835,143.836365 41.247894,143.836365 
	C41.247894,139.985413 41.247894,136.251740 41.247894,132.518051 
	C41.630173,132.271957 42.012455,132.025848 42.394733,131.779739 
	C43.208694,133.351547 44.022659,134.923355 45.048107,136.903564 
	C45.515442,136.758560 46.495834,136.454376 47.752602,136.064423 
	C47.802483,136.821106 47.871609,137.869751 47.963177,139.258804 
	C47.027740,138.729828 46.428078,138.390717 45.463509,138.052841 
z"/>
<path fill="#33838D" opacity="1.000000" stroke="none" 
	d="
M69.738991,134.220612 
	C70.437088,133.308426 70.958763,132.732162 71.390015,132.255768 
	C72.104279,136.218384 72.798637,140.070557 73.441376,143.636337 
	C69.482002,143.180191 68.290695,140.976257 69.738991,134.220612 
z"/>
<path fill="#33838D" opacity="1.000000" stroke="none" 
	d="
M30.698017,144.102509 
	C24.560541,140.794357 24.200966,135.722565 28.461508,132.698868 
	C29.278309,136.250336 30.179304,140.167892 30.698017,144.102509 
z"/>
<path fill="#287D87" opacity="1.000000" stroke="none" 
	d="
M117.619965,132.882828 
	C114.626434,139.658951 116.050522,142.531006 122.491325,143.413391 
	C117.166977,144.799866 114.650482,143.611160 113.793922,139.305008 
	C112.983261,135.229599 114.343605,132.944199 117.619965,132.882828 
z"/>
<path fill="#30818B" opacity="1.000000" stroke="none" 
	d="
M215.626648,133.226196 
	C216.519470,134.770004 217.499329,136.015610 218.622498,137.114731 
	C221.391144,139.824127 221.252518,142.099533 218.439529,143.890823 
	C217.539719,141.978592 217.117401,139.948532 215.890900,138.723877 
	C213.720428,136.556702 212.671768,134.580322 214.711884,131.863525 
	C215.067551,132.196121 215.423218,132.528717 215.626648,133.226196 
z"/>
<path fill="#287D87" opacity="1.000000" stroke="none" 
	d="
M90.102257,119.094223 
	C85.152382,121.960594 82.199615,120.569427 81.966621,115.225121 
	C81.887283,113.405342 81.753250,111.550774 82.024216,109.769928 
	C82.143951,108.983017 83.209930,108.340073 84.690079,106.692703 
	C83.045654,116.394859 84.024422,118.732864 89.306976,118.824120 
	C89.815521,118.819870 90.102257,119.094223 90.102257,119.094223 
z"/>
<path fill="#428C95" opacity="1.000000" stroke="none" 
	d="
M123.613083,116.588051 
	C123.754890,112.021118 123.754890,107.791664 123.754890,103.257858 
	C124.023392,103.278709 125.560402,103.377396 125.559258,103.400917 
	C125.305336,108.597191 127.073189,114.082207 123.312981,120.266739 
	C123.411232,118.192886 123.441246,117.559204 123.613083,116.588051 
z"/>
<path fill="#3C8992" opacity="1.000000" stroke="none" 
	d="
M187.957626,142.819290 
	C191.410736,138.445084 191.188400,135.509781 187.084137,132.355499 
	C190.242706,131.337814 192.149811,132.969391 192.754379,135.932007 
	C193.485062,139.512558 192.575394,142.532043 188.318069,143.608032 
	C187.951508,143.159302 187.954559,142.989288 187.957626,142.819290 
z"/>
<path fill="#15717C" opacity="1.000000" stroke="none" 
	d="
M175.583237,108.070267 
	C175.670380,110.140350 175.353836,112.152222 175.004974,114.544930 
	C175.119370,116.449524 175.266098,117.973274 175.453415,119.918640 
	C174.804703,119.962112 173.503143,120.049324 172.444580,120.120262 
	C172.444580,116.035240 172.444580,112.249832 172.444580,108.012054 
	C173.325653,108.012054 174.252609,108.012054 175.583237,108.070267 
z"/>
<path fill="#14717C" opacity="1.000000" stroke="none" 
	d="
M187.546906,142.864960 
	C187.954559,142.989288 187.951508,143.159302 187.957199,143.584198 
	C185.843216,143.839111 183.720474,143.839111 181.591034,143.839111 
	C181.591034,140.027695 181.591034,136.295486 181.591034,132.148666 
	C182.326126,132.105804 183.243286,132.052338 184.558258,132.007828 
	C184.685516,134.920593 184.198227,137.831375 184.291092,140.723511 
	C184.315460,141.482239 186.138947,142.183167 187.546906,142.864960 
z"/>
<path fill="#15717C" opacity="1.000000" stroke="none" 
	d="
M145.331131,118.696190 
	C145.737137,119.181854 145.886993,119.386017 146.036835,119.590179 
	C144.986938,119.818741 143.937057,120.047310 142.682648,120.320412 
	C142.682648,116.192886 142.682648,112.424377 142.682648,108.277840 
	C143.350250,108.224007 144.360153,108.142578 145.074982,108.084946 
	C145.074982,111.712646 145.074982,115.063660 145.331131,118.696190 
z"/>
<path fill="#287D87" opacity="1.000000" stroke="none" 
	d="
M34.041016,142.968338 
	C36.355797,139.233948 36.608307,135.644943 33.195831,132.314285 
	C33.525124,132.015793 33.854416,131.717300 34.183708,131.418808 
	C35.434853,132.711868 37.398018,133.822388 37.786194,135.336670 
	C38.550819,138.319489 38.814751,141.677048 34.399662,143.033966 
	C33.999939,143.000092 34.041016,142.968338 34.041016,142.968338 
z"/>
<path fill="#EEF5F6" opacity="1.000000" stroke="none" 
	d="
M76.921829,144.322723 
	C77.105675,142.052414 77.381805,139.664658 78.229523,137.500854 
	C78.539116,136.710617 80.207008,136.452515 81.255241,135.951645 
	C81.662300,136.405548 82.069366,136.859451 82.476425,137.313354 
	C80.731094,139.640228 78.985771,141.967087 76.921829,144.322723 
z"/>
<path fill="#14717C" opacity="1.000000" stroke="none" 
	d="
M162.002594,134.225891 
	C162.003784,137.595963 162.003784,140.511032 162.003784,143.692612 
	C161.816727,143.692612 160.275909,143.692612 159.838104,143.692612 
	C159.838104,140.458679 159.758591,137.254028 159.903381,134.059555 
	C159.933319,133.399307 160.797913,132.776901 161.277832,132.137070 
	C161.519012,132.681686 161.760193,133.226288 162.002594,134.225891 
z"/>
<path fill="#14717C" opacity="1.000000" stroke="none" 
	d="
M110.023132,141.388199 
	C109.328491,142.756821 108.618767,143.704453 107.310532,145.451202 
	C107.310532,139.946289 107.310532,136.212128 107.310532,132.478378 
	C109.997498,132.563019 109.997498,132.563019 110.023132,141.388199 
z"/>
<path fill="#428C95" opacity="1.000000" stroke="none" 
	d="
M89.778488,131.414322 
	C90.133728,133.051819 90.216682,134.459824 90.300034,135.874588 
	C88.839874,136.076187 87.644379,136.241241 86.223740,136.437393 
	C86.137802,134.882812 86.058708,133.451935 85.967209,131.642975 
	C87.138596,131.238205 88.322395,131.211533 89.778488,131.414322 
z"/>
<path fill="#EEF5F6" opacity="1.000000" stroke="none" 
	d="
M80.639542,133.851334 
	C79.514824,134.015991 78.390854,133.859268 77.266891,133.702560 
	C77.415543,133.169250 77.564186,132.635956 77.712837,132.102661 
	C78.688660,132.578415 79.664482,133.054184 80.639542,133.851334 
z"/>
<path fill="#30818B" opacity="1.000000" stroke="none" 
	d="
M151.813477,127.125580 
	C152.032013,127.168678 152.271027,127.202278 152.510056,127.235886 
	C152.403336,127.161995 152.296616,127.088097 152.029724,127.070282 
	C151.869553,127.126366 151.833984,127.116081 151.813477,127.125580 
z"/>
<path fill="#F6FAFA" opacity="1.000000" stroke="none" 
	d="
M34.012321,142.976974 
	C33.897923,143.396790 33.771141,143.839737 33.644356,144.282669 
	C33.635746,143.927704 33.627136,143.572739 33.829773,143.093048 
	C34.041016,142.968338 33.999939,143.000092 34.012321,142.976974 
z"/>
<path fill="#30818B" opacity="1.000000" stroke="none" 
	d="
M148.883606,144.463928 
	C148.917023,144.478699 148.850204,144.449142 148.883606,144.463928 
z"/>
<path fill="#287D87" opacity="1.000000" stroke="none" 
	d="
M89.677025,118.677788 
	C89.890854,118.438782 90.243179,118.341858 90.595505,118.244934 
	C90.594757,118.471039 90.594017,118.697159 90.347763,119.008743 
	C90.102257,119.094223 89.815521,118.819870 89.677025,118.677788 
z"/>
<path fill="#15717C" opacity="1.000000" stroke="none" 
	d="
M179.045624,108.687202 
	C178.847153,108.783577 178.543839,108.607231 178.114380,108.196083 
	C178.305756,108.112350 178.623276,108.263420 179.045624,108.687202 
z"/>
<path fill="#428C95" opacity="1.000000" stroke="none" 
	d="
M83.795700,131.213867 
	C84.043686,131.264664 84.037529,131.679977 83.995728,131.883560 
	C83.818520,131.779114 83.683113,131.471100 83.795700,131.213867 
z"/>
<path fill="#30818B" opacity="1.000000" stroke="none" 
	d="
M152.325104,143.444717 
	C152.069397,143.689194 151.667419,143.717667 151.265457,143.746124 
	C151.289734,143.525742 151.314011,143.305344 151.583755,142.963226 
	C151.945770,142.970581 152.062317,143.099640 152.325104,143.444717 
z"/>
<path fill="#FCFDFE" opacity="1.000000" stroke="none" 
	d="
M73.272751,115.836319 
	C74.199608,116.563423 74.952797,117.634926 75.705986,118.706436 
	C75.223434,118.949249 74.740883,119.192062 74.258331,119.434875 
	C73.871918,118.350159 73.485504,117.265434 73.272751,115.836319 
z"/>
<path fill="#FCFDFE" opacity="1.000000" stroke="none" 
	d="
M100.000076,119.001068 
	C99.097961,118.243301 98.445808,117.219612 97.793648,116.195923 
	C98.071404,115.985268 98.349152,115.774612 98.626900,115.563957 
	C99.252403,116.246635 99.877907,116.929314 100.609634,117.892593 
	C100.560585,118.360512 100.405312,118.547829 100.000076,119.001068 
z"/>
</svg>