<svg version="1.1" id="Layer_1" xmlns="http://www.w3.org/2000/svg" xmlns:xlink="http://www.w3.org/1999/xlink" x="0px" y="0px"
	 width="100%" viewBox="0 0 772 227" enable-background="new 0 0 772 227" xml:space="preserve">
<path fill="#9664A9" opacity="1.000000" stroke="none" 
	d="
M289.000000,228.000000 
	C236.645767,228.000000 184.291550,228.000000 131.468689,227.555969 
	C131.226761,221.647980 131.351669,216.301270 124.425529,214.443741 
	C123.635338,214.231812 123.287941,212.566772 122.617584,211.662735 
	C121.658119,210.368851 120.804771,208.409332 119.529762,208.042633 
	C115.101784,206.769211 114.517609,203.657486 115.043968,199.962524 
	C115.502098,196.746445 116.328865,193.582870 117.407700,190.320526 
	C120.781464,189.463104 123.740265,188.681274 127.040817,187.776520 
	C129.416336,186.740112 131.376862,185.561951 133.500763,184.974152 
	C136.823471,184.054596 137.192429,182.662216 134.882217,180.230453 
	C134.110214,179.417831 133.524063,178.428665 133.076141,177.274017 
	C145.508682,156.356110 157.718002,135.684357 170.071716,114.768135 
	C163.073105,110.556419 156.430649,106.559044 149.475845,102.373695 
	C147.522766,105.517853 145.846024,108.165733 144.219376,110.844040 
	C132.213684,130.611511 120.217995,150.385056 108.145317,169.823410 
	C107.715523,168.661850 107.359558,167.833588 107.001801,167.002655 
	C107.000000,167.000000 106.994705,166.996429 107.060585,166.664154 
	C106.514214,164.840714 105.961166,163.321533 105.272804,161.866364 
	C104.604706,160.454025 103.162498,159.110901 103.154839,157.731308 
	C103.105324,148.817932 103.343971,139.902649 103.516930,130.988556 
	C103.553444,129.106339 103.709488,127.226448 103.758858,126.306885 
	C101.285454,126.173340 99.634560,126.084198 97.863541,125.667503 
	C87.880013,110.067467 78.016594,94.794998 68.029495,79.331017 
	C63.255795,82.234077 59.178398,84.713699 54.844887,87.027496 
	C53.760406,87.637207 52.932041,88.412727 51.932369,89.438614 
	C50.723118,90.300140 49.685173,90.911278 48.531540,91.131134 
	C47.610142,88.551529 46.804424,86.363220 46.222626,83.910072 
	C51.126019,80.457748 55.805485,77.270256 60.080013,74.358597 
	C54.653419,69.711678 49.714405,65.482285 44.256035,60.808151 
	C43.055859,61.593693 41.034058,62.917004 38.958858,64.275261 
	C39.601402,65.654549 40.088608,66.700378 40.320538,67.923492 
	C38.895298,67.960953 36.984257,68.199554 36.685646,67.614784 
	C35.491592,65.276428 34.798473,62.682278 34.381191,61.494957 
	C36.995590,59.721443 38.999153,58.362297 41.377579,57.088127 
	C43.032726,57.453171 44.303146,57.794636 45.595074,58.002243 
	C50.214424,58.744545 51.632702,57.293201 50.816963,52.720768 
	C49.977505,48.015373 47.299568,46.844692 39.982616,47.960327 
	C39.961098,47.926800 39.994087,48.003998 40.031109,48.256599 
	C39.797977,49.091469 39.527821,49.673740 39.052757,50.035282 
	C38.117668,48.607643 37.387493,47.400730 36.895355,45.917297 
	C38.431324,43.954029 40.109516,42.429947 40.920193,40.534775 
	C41.730507,38.640469 42.374691,34.724533 41.890942,34.518848 
	C34.224049,31.258944 36.218819,25.263702 36.515484,19.169640 
	C36.808430,13.151945 35.567837,7.059597 35.000000,1.000000 
	C81.354225,1.000000 127.708458,1.000000 174.531342,1.466735 
	C175.011917,5.758894 174.582199,9.659235 175.213318,13.379615 
	C175.552826,15.381041 177.346390,17.976723 179.133194,18.699814 
	C182.002289,19.860901 183.163345,21.417356 182.965118,24.226627 
	C182.632782,28.936209 183.189499,32.965057 190.666992,32.937027 
	C186.744858,35.091991 184.321213,37.024517 181.576401,37.762474 
	C178.840195,38.498112 175.753922,37.823925 172.878769,38.203899 
	C171.739502,38.354458 170.755508,39.679935 169.700821,40.470463 
	C170.854752,41.034550 171.961533,41.896736 173.174332,42.088474 
	C174.746414,42.337009 176.402939,42.051353 178.161713,42.347954 
	C178.582687,43.931633 178.865082,45.163021 178.892929,46.604198 
	C167.642181,52.381664 162.995712,61.733582 163.126099,73.632835 
	C163.146393,75.483528 164.557114,77.976120 166.103455,79.037292 
	C172.244980,83.251900 178.695297,87.016525 184.931000,91.239700 
	C186.100784,92.941261 187.148483,94.834229 188.731873,95.562576 
	C189.558319,95.942734 192.027863,94.560577 192.483002,93.452042 
	C192.982956,92.234398 192.019897,90.416069 191.830338,88.588326 
	C192.510849,88.140465 193.055313,87.963745 193.867599,88.025986 
	C196.080826,89.256775 198.026230,90.248589 199.971634,91.240402 
	C200.434998,88.913651 200.898376,86.586899 201.441147,83.861526 
	C205.388412,83.049042 206.840118,84.934135 207.111267,89.163162 
	C207.308975,92.246750 207.952179,97.454201 209.515060,97.914017 
	C215.345734,99.629501 215.240616,103.496872 215.006958,107.935593 
	C214.812469,111.630585 215.742844,114.367203 219.994797,115.275391 
	C221.192230,115.531151 222.087463,117.440857 223.010010,118.675140 
	C223.871918,119.828239 224.440491,122.008339 225.388763,122.158981 
	C231.897156,123.192932 230.714172,127.998856 231.149017,132.387177 
	C231.362305,134.539642 232.694839,138.000610 234.134201,138.351212 
	C238.818802,139.492279 239.173325,142.442474 239.022812,146.185272 
	C238.956436,147.835724 238.707413,149.695480 239.342194,151.097656 
	C240.002136,152.555450 241.452362,154.161011 242.890961,154.595062 
	C243.971527,154.921082 245.668106,153.631104 246.928497,152.811539 
	C248.108826,152.044037 249.076279,150.949158 250.209534,150.358780 
	C250.576660,152.143784 250.871643,153.568359 250.872681,155.027588 
	C249.835144,157.391235 249.091553,159.720200 248.208755,162.485107 
	C254.419510,162.615082 255.353088,166.030243 255.039841,170.567139 
	C254.769287,174.485855 254.789886,178.297836 260.101166,179.303192 
	C261.260468,179.522659 262.117371,181.528183 263.037598,182.767548 
	C263.894104,183.921127 264.505280,186.044037 265.472748,186.199997 
	C271.621460,187.191116 271.138245,191.593277 271.021423,195.976807 
	C270.944275,198.873428 271.514679,201.056290 274.496826,202.952164 
	C278.853241,205.721771 282.628235,209.472290 286.364014,213.100281 
	C287.190338,213.902786 286.751373,215.951904 287.009552,217.406708 
	C287.637207,220.944168 288.332153,224.469681 289.000000,228.000000 
M105.812012,140.497009 
	C105.812012,145.876190 105.812012,151.255386 105.812012,156.634567 
	C112.921989,146.992203 118.309532,136.656006 125.093010,127.335808 
	C131.847260,118.055786 129.601120,108.203537 129.950378,98.184212 
	C121.653168,98.184212 113.968552,98.184212 105.811859,98.184212 
	C105.811859,112.265495 105.811859,125.881897 105.812012,140.497009 
M121.970856,58.483364 
	C121.970856,60.534813 121.970856,62.586258 121.970856,64.817490 
	C123.087708,64.523712 123.570465,64.537193 123.666130,64.351364 
	C128.007034,55.919834 132.356293,47.491756 136.560104,38.991817 
	C136.984222,38.134258 136.924393,36.524014 136.381134,35.780132 
	C130.434738,27.637648 124.347427,19.598064 117.862717,10.949426 
	C111.397102,19.626045 105.380898,27.562677 99.590477,35.660755 
	C98.940231,36.570145 99.122452,38.606926 99.674660,39.758308 
	C103.489403,47.712307 107.489998,55.577591 111.486122,63.443325 
	C111.780380,64.022522 112.507416,64.381851 113.227058,65.013512 
	C114.894562,56.396408 114.421623,54.662716 109.083176,48.947575 
	C104.439323,43.976044 104.881676,36.035160 110.053680,31.525568 
	C114.881470,27.316105 122.978172,27.950788 127.139091,32.864861 
	C131.413345,37.912777 131.019836,45.917252 125.656944,49.797092 
	C122.670334,51.957783 121.440086,54.159351 121.970856,58.483364 
M175.280945,106.449203 
	C176.990921,103.620537 178.700897,100.791862 180.708359,97.471100 
	C173.580338,93.171036 166.839752,89.104698 159.905838,84.921730 
	C157.625580,88.711189 155.701965,91.907951 153.649963,95.318077 
	C158.036819,97.990776 161.797318,100.442924 165.713226,102.614876 
	C168.658661,104.248543 171.803528,105.522675 175.280945,106.449203 
M115.622810,89.571259 
	C119.667686,89.571259 123.712570,89.571259 128.470322,89.571259 
	C126.690353,84.156212 125.481125,79.704315 123.682571,75.504814 
	C123.181564,74.335007 120.927773,73.268532 119.495049,73.289940 
	C117.070442,73.326180 113.286049,73.521660 112.501915,74.967400 
	C110.215866,79.182312 109.131294,84.048874 107.269157,89.568466 
	C110.491837,89.568466 112.585632,89.568466 115.622810,89.571259 
M233.095337,158.480850 
	C227.722778,158.195023 228.852829,162.239639 229.352859,164.957581 
	C229.618073,166.399170 231.961624,167.458389 233.366989,168.690216 
	C234.189224,166.464172 235.294968,164.287415 235.694748,161.987930 
	C235.855560,161.062805 234.468048,159.868500 233.095337,158.480850 
M205.076706,121.837006 
	C205.075928,122.655045 204.763580,123.671616 205.134079,124.253052 
	C206.154037,125.853668 207.460083,127.271973 208.652924,128.762390 
	C209.719666,127.734779 211.744125,126.626488 211.665680,125.695343 
	C211.465576,123.319626 210.327255,121.022934 209.564301,118.694611 
	C208.102844,119.477982 206.641403,120.261353 205.076706,121.837006 
M113.948044,40.656162 
	C115.454971,42.011353 116.809555,43.702080 118.569061,44.500973 
	C119.047340,44.718132 121.395309,42.375648 121.677521,40.966133 
	C121.897507,39.867390 119.996078,37.192974 119.469818,37.302200 
	C117.561096,37.698376 115.834534,38.972134 113.948044,40.656162 
z"/>
<path fill="#9A68AC" opacity="1.000000" stroke="none" 
	d="
M521.000000,228.000000 
	C466.645782,228.000000 412.291534,228.000000 357.454163,227.601868 
	C355.288757,223.245743 354.332458,218.705338 351.741913,215.475906 
	C348.441040,211.360992 343.789429,208.338638 339.798828,204.757553 
	C339.245148,204.260666 339.259369,203.181580 338.802826,202.514206 
	C338.078003,201.454605 337.331360,199.871948 336.326416,199.632278 
	C331.126404,198.392136 330.752869,194.636398 330.993408,190.393997 
	C331.196808,186.806000 330.505585,183.942520 326.408691,182.642883 
	C324.993042,182.193817 324.092163,180.138840 322.942474,178.829407 
	C321.892273,177.633240 320.862305,176.415695 319.753906,175.275116 
	C318.126556,173.600479 316.416260,172.006607 314.782837,170.337677 
	C313.882385,169.417633 313.201172,167.767868 312.190247,167.557755 
	C307.041107,166.487503 307.396118,162.943344 308.272308,158.944489 
	C310.671722,157.574783 313.275330,156.864517 314.836334,155.185104 
	C320.140625,149.478455 326.816406,144.923920 329.348358,136.853638 
	C333.857422,122.481491 332.837494,106.041611 316.188171,96.491562 
	C311.436432,93.765968 306.444855,91.436531 301.468475,89.129921 
	C294.827240,86.051620 287.949127,83.455338 281.440094,80.128998 
	C274.933289,76.803818 270.747803,71.726952 271.885040,63.697605 
	C272.854645,56.852043 277.832916,51.752129 285.731934,49.734955 
	C301.629761,45.675117 316.722839,55.193207 320.042236,71.151207 
	C320.351318,72.637260 322.218506,73.799210 323.362244,75.111649 
	C324.205475,73.685196 325.703033,72.291687 325.776794,70.826523 
	C326.069336,65.014954 326.078979,59.173607 325.814362,53.360550 
	C325.748688,51.917141 324.526733,49.605183 323.384705,49.280464 
	C315.582550,47.061962 307.743469,44.764187 299.759155,43.437805 
	C281.788391,40.452442 263.302063,43.560982 252.968964,61.763168 
	C251.285629,59.800522 250.119354,57.566151 248.280914,56.559975 
	C244.251297,54.354580 243.227844,51.277328 242.788422,46.865067 
	C242.278564,41.745811 241.229752,36.055401 238.426437,31.981031 
	C236.052490,28.530682 234.823425,25.549021 234.992920,21.652243 
	C235.136856,18.342842 234.056274,16.142736 230.671753,14.674978 
	C229.019714,13.958544 227.618561,11.406178 227.183884,9.445392 
	C226.586166,6.749178 227.012451,3.825957 227.000000,1.000000 
	C269.020905,1.000000 311.041779,1.000000 353.532837,1.405042 
	C356.166595,6.780303 358.316620,11.756510 360.500336,16.717901 
	C361.422211,18.812466 362.443848,20.863054 363.369720,22.955940 
	C365.644440,28.097897 368.335022,33.120342 369.926208,38.468204 
	C370.555573,40.583488 368.712982,43.434246 367.715332,46.171219 
	C351.350494,52.510654 340.615570,63.782150 336.757812,80.530838 
	C334.840454,88.855148 334.257019,97.653397 334.310974,106.229431 
	C334.414825,122.746780 340.753082,137.394257 352.664703,148.464249 
	C360.920319,156.136566 372.193481,159.190781 383.664856,159.919861 
	C394.909912,160.634552 406.014130,159.507446 416.931274,157.282776 
	C417.105377,158.068176 417.340790,158.605026 417.576233,159.141861 
	C417.975067,158.210129 418.373932,157.278412 418.979187,156.208160 
	C419.668121,155.968903 420.150665,155.868195 420.862061,156.051620 
	C422.917328,158.518295 424.743713,160.700836 425.902924,162.086105 
	C431.560242,158.717224 436.225037,155.939392 441.690918,152.684509 
	C438.289612,151.664566 435.069733,150.699036 432.039246,149.484924 
	C433.698578,148.111008 435.168518,146.985641 436.962830,145.988495 
	C438.096313,146.207138 439.023285,146.601074 439.695923,146.339920 
	C445.015320,144.274658 445.547882,144.586014 447.095764,150.337646 
	C447.460419,151.692627 448.283386,153.854248 449.158966,153.994003 
	C455.910522,155.071609 455.122589,160.007874 455.007660,164.657364 
	C454.923462,168.064041 456.703308,169.480545 459.623993,171.326126 
	C463.944092,174.056061 467.206696,178.462982 470.894379,182.180908 
	C471.093811,182.381989 470.952148,182.921967 471.151794,183.122238 
	C475.078796,187.061417 479.021088,190.985718 483.004486,194.867661 
	C483.313446,195.168762 484.035675,195.012314 484.415833,195.280869 
	C485.197876,195.833237 486.416046,196.455109 486.515991,197.178131 
	C487.356995,203.263168 491.730896,203.238724 496.235870,202.988693 
	C499.913300,202.784592 502.798676,203.366669 503.490326,207.864334 
	C503.659760,208.966171 505.522369,209.777252 506.543915,210.785446 
	C508.149445,212.369919 509.736176,213.976791 511.260742,215.638489 
	C511.916565,216.353302 512.315186,217.848785 512.969727,217.935104 
	C518.970093,218.726318 519.330200,223.861359 521.000000,228.000000 
M364.789429,41.872505 
	C364.944122,41.902225 365.098785,41.931950 365.253479,41.961674 
	C365.146759,41.889359 365.040009,41.817043 364.789429,41.872505 
z"/>
<path fill="#9E6FB0" opacity="1.000000" stroke="none" 
	d="
M773.000000,152.000000 
	C773.000000,177.279678 773.000000,202.559372 773.000000,228.000000 
	C729.645935,228.000000 686.291626,228.000000 642.338745,227.646790 
	C638.212219,226.527191 634.715515,225.429657 631.147034,225.092010 
	C627.889832,224.783829 625.350586,224.545929 624.751221,220.461823 
	C624.559021,219.152161 622.548523,218.041946 621.254028,216.981979 
	C620.142334,216.071655 617.964111,215.508377 617.808289,214.541565 
	C616.813354,208.371521 612.345886,209.218704 608.008728,208.822159 
	C605.700867,208.611145 602.441895,207.299606 601.575195,205.525772 
	C600.273743,202.862106 599.121094,201.083206 596.127808,200.571777 
	C595.281799,200.427231 593.999573,199.504669 593.906067,198.806534 
	C593.042358,192.357391 588.356323,192.834412 583.791199,192.991592 
	C580.126953,193.117767 577.164673,192.409515 576.719055,187.884552 
	C576.629700,186.977127 575.473022,185.591690 574.629089,185.442642 
	C570.973938,184.797119 569.234924,182.726334 568.476318,179.201355 
	C568.281494,178.295914 566.425720,177.830872 565.500366,176.981216 
	C563.919556,175.529556 562.426758,173.973862 560.983521,172.383408 
	C560.138489,171.452118 559.597229,169.651810 558.684448,169.478317 
	C554.779358,168.736053 552.920532,166.578735 552.694702,162.700699 
	C552.504089,159.426086 552.161316,156.160324 551.915527,152.896164 
	C551.945251,152.901672 551.917419,152.954407 552.200012,152.859573 
	C552.968140,152.430862 553.453674,152.096985 554.063965,151.577637 
	C554.588440,151.221252 554.988159,151.050354 555.790955,150.867310 
	C559.129944,148.903641 562.065857,146.952118 565.164795,144.964203 
	C565.547607,144.615463 565.767456,144.303146 565.951782,143.604950 
	C565.832275,142.707108 565.748352,142.195129 565.638306,141.690964 
	C565.612183,141.698776 565.618835,141.644638 565.805969,141.653305 
	C566.102661,141.339218 566.212158,141.016479 566.431274,140.489502 
	C566.540894,140.285263 566.917725,140.015411 567.220459,139.853073 
	C567.982666,138.925537 568.442078,138.160339 568.934692,137.174194 
	C569.228699,136.604614 569.489624,136.255997 570.125305,135.889801 
	C576.612305,133.678833 577.650146,130.933517 574.387146,125.552444 
	C574.433655,125.392281 574.741638,125.264153 574.945435,124.927368 
	C575.413330,123.865387 575.677429,123.140198 575.843018,122.173859 
	C575.859375,121.610069 575.974304,121.287437 576.255737,120.642731 
	C576.588196,119.362480 576.754150,118.404297 576.859863,117.202354 
	C576.887024,116.638565 576.974548,116.318542 577.377441,115.897278 
	C579.606323,114.629372 581.712708,112.257462 583.396484,112.526825 
	C588.049072,113.271149 589.196960,111.741058 588.425964,107.513191 
	C588.103088,105.742493 588.475403,103.791687 587.921082,102.125961 
	C585.794189,95.734711 584.348694,88.786728 576.710449,85.687408 
	C576.305969,83.926292 576.094299,82.477196 576.270142,80.973778 
	C582.702454,79.398827 578.094666,73.222137 580.226868,71.110291 
	C582.813232,72.994408 585.055542,74.506737 587.148743,76.203125 
	C588.219421,77.070839 589.563171,78.137932 589.852844,79.339302 
	C591.049866,84.303970 594.429871,84.255249 598.349426,83.611588 
	C600.542725,83.251404 602.785706,83.194160 604.990662,83.345734 
	C604.340820,84.696022 603.704163,85.699417 603.073242,86.706444 
	C602.390442,87.796356 601.713013,88.889626 600.793945,90.086395 
	C600.712585,91.132324 600.870544,92.073288 601.030518,93.339508 
	C601.030579,94.098434 601.028748,94.532104 601.082275,95.320114 
	C601.910583,96.493301 602.683533,97.312164 603.359619,98.461411 
	C602.609863,100.232513 601.957031,101.673248 600.918152,103.124001 
	C596.581116,103.733635 592.890747,104.581375 593.638550,110.069321 
	C590.542603,117.103722 587.439087,123.952370 585.236328,131.079422 
	C584.259888,134.238754 585.104919,137.961060 585.113281,141.585190 
	C585.103394,141.742569 584.914856,141.995346 584.611694,141.869324 
	C582.430359,140.550308 580.552124,139.357300 578.244263,137.891357 
	C579.221619,145.851639 579.026062,146.022552 569.030334,146.153793 
	C569.466003,147.934082 569.861145,149.548767 570.211670,151.504486 
	C570.133911,153.811920 570.100769,155.778336 570.134888,157.992203 
	C570.795227,158.815643 571.356873,159.841125 571.987122,159.885223 
	C574.061401,160.030334 576.160950,159.749786 578.250183,159.758591 
	C585.716309,159.790024 593.185608,160.028214 600.646912,159.870392 
	C604.281921,159.793518 605.864746,157.479462 605.434875,153.799789 
	C605.040161,150.420700 603.829102,148.815811 599.909912,149.588455 
	C597.269653,150.108978 594.366943,149.298248 591.420898,148.764099 
	C593.632629,141.267029 596.072327,134.110092 598.347839,126.901344 
	C599.407227,123.545181 601.386536,122.235229 604.958435,122.337044 
	C612.588928,122.554543 620.337280,123.205704 627.841370,122.207024 
	C638.806458,120.747742 645.556458,124.139580 647.821228,135.320709 
	C648.242432,137.400162 649.415649,139.316345 650.100586,141.355316 
	C652.717224,149.145248 651.062805,151.427200 642.916138,151.068420 
	C639.798096,150.931107 637.208252,151.237061 636.345947,154.920593 
	C635.244629,154.950806 634.421387,155.043198 633.060059,155.195984 
	C636.568726,159.507111 640.952881,159.812851 645.194763,159.921921 
	C653.332458,160.131149 661.480530,160.090271 669.621582,159.970108 
	C677.081543,159.860001 684.540894,159.564758 691.990540,159.164642 
	C692.635864,159.129990 693.206360,157.701401 693.966919,156.598236 
	C696.010071,152.815536 693.542908,151.259476 691.054626,151.432327 
	C685.241943,151.836121 681.784424,149.431442 679.935181,143.721283 
	C679.343262,139.039230 678.739746,134.809921 678.128723,130.528152 
	C676.145081,130.805832 674.993713,130.967010 673.868408,131.084564 
	C673.894592,131.040924 673.883240,131.141998 673.832214,130.858032 
	C673.542358,130.055069 673.303528,129.536057 672.856506,128.731323 
	C671.223511,124.312363 670.000488,120.094788 668.317566,116.069443 
	C666.612427,111.990593 664.452759,108.101761 662.744141,103.885925 
	C662.983154,101.896736 663.013000,100.149689 662.946045,98.406364 
	C662.865234,96.302704 662.702454,94.202209 662.593811,92.409332 
	C665.666443,93.976662 667.885559,94.927414 669.902588,96.198853 
	C671.337891,97.103569 672.765747,98.251839 673.737610,99.618156 
	C677.059326,104.288033 680.063049,109.013657 686.416199,110.325058 
	C690.168884,111.099663 695.935486,112.142387 696.861633,114.567368 
	C699.006042,120.181984 702.541809,119.911911 706.953796,120.140831 
	C709.155029,120.255043 712.896179,121.454315 713.164612,122.741776 
	C714.342834,128.390717 718.198853,127.832047 722.271423,128.123672 
	C724.680420,128.296158 728.760010,129.278122 729.060730,130.589996 
	C730.388062,136.381424 734.385193,135.733902 738.577393,136.191086 
	C740.754761,136.428558 744.269592,138.265091 744.521423,139.812073 
	C745.440125,145.456055 748.869507,145.139313 752.951111,144.778473 
	C754.972229,144.599808 758.461487,144.431412 758.876709,145.348907 
	C761.798462,151.805237 768.330994,149.824432 773.000000,152.000000 
z"/>
<path fill="#A072B2" opacity="1.000000" stroke="none" 
	d="
M773.000000,151.531342 
	C768.330994,149.824432 761.798462,151.805237 758.876709,145.348907 
	C758.461487,144.431412 754.972229,144.599808 752.951111,144.778473 
	C748.869507,145.139313 745.440125,145.456055 744.521423,139.812073 
	C744.269592,138.265091 740.754761,136.428558 738.577393,136.191086 
	C734.385193,135.733902 730.388062,136.381424 729.060730,130.589996 
	C728.760010,129.278122 724.680420,128.296158 722.271423,128.123672 
	C718.198853,127.832047 714.342834,128.390717 713.164612,122.741776 
	C712.896179,121.454315 709.155029,120.255043 706.953796,120.140831 
	C702.541809,119.911911 699.006042,120.181984 696.861633,114.567368 
	C695.935486,112.142387 690.168884,111.099663 686.416199,110.325058 
	C680.063049,109.013657 677.059326,104.288033 673.737610,99.618156 
	C672.765747,98.251839 671.337891,97.103569 669.902588,96.198853 
	C667.885559,94.927414 665.666443,93.976662 662.593811,92.409332 
	C662.702454,94.202209 662.865234,96.302704 662.946045,98.406364 
	C663.013000,100.149689 662.983154,101.896736 662.566956,103.596207 
	C654.600403,85.526352 647.130005,67.473839 639.452209,49.509972 
	C638.324646,46.871655 636.211609,44.654514 634.907837,42.138363 
	C636.242310,40.924961 637.223511,39.815712 638.204712,38.706467 
	C636.634460,37.809246 634.924255,35.960003 633.516235,36.166931 
	C623.190674,37.684456 620.821411,27.594189 614.432739,23.463131 
	C614.210449,23.319424 614.273804,22.783072 614.064453,22.562002 
	C613.195190,21.644316 612.420715,20.325344 611.342957,19.971611 
	C607.088318,18.575157 605.941956,15.471454 605.998962,11.458091 
	C606.048462,7.972759 606.003296,4.486082 606.000000,1.000000 
	C661.590027,1.000000 717.179993,1.000000 773.000000,1.000000 
	C773.000000,51.020660 773.000000,101.041672 773.000000,151.531342 
z"/>
<path fill="#9460A7" opacity="1.000000" stroke="none" 
	d="
M34.531342,1.000000 
	C35.567837,7.059597 36.808430,13.151945 36.515484,19.169640 
	C36.218819,25.263702 34.224049,31.258944 41.890942,34.518848 
	C42.374691,34.724533 41.730507,38.640469 40.920193,40.534775 
	C40.109516,42.429947 38.431324,43.954029 36.516998,45.880447 
	C33.492813,46.822754 31.085026,47.525391 28.198977,48.367592 
	C30.452288,52.086185 32.212128,54.990410 33.970402,57.892052 
	C35.279999,57.086060 36.379078,56.409634 37.820419,55.890327 
	C39.107544,56.363922 40.052399,56.680386 40.998577,56.998375 
	C40.999901,56.999897 41.002716,57.003151 41.002716,57.003151 
	C38.999153,58.362297 36.995590,59.721443 34.381191,61.494957 
	C34.798473,62.682278 35.491592,65.276428 36.685646,67.614784 
	C36.984257,68.199554 38.895298,67.960953 40.551865,68.175156 
	C42.063610,71.268974 43.139267,74.272484 44.097252,77.313080 
	C44.810059,79.575470 45.370441,81.885880 45.998707,84.174904 
	C46.804424,86.363220 47.610142,88.551529 48.505112,91.173279 
	C48.594368,91.606720 48.506973,91.559212 48.391731,91.531021 
	C48.014435,91.560249 47.920780,91.725517 47.962349,92.331985 
	C47.951473,93.110878 47.973782,93.556419 47.972878,94.146698 
	C48.227863,94.529320 48.506069,94.767197 49.005276,95.275757 
	C61.226143,113.834518 73.226006,132.122620 85.074402,150.746384 
	C83.601532,152.002228 82.280121,152.922394 80.958710,153.842545 
	C81.576569,153.784271 82.194427,153.725998 82.812294,153.667725 
	C85.286461,156.744019 89.012314,159.492615 89.924690,162.977768 
	C91.122414,167.552917 93.685577,167.797668 97.056992,167.920807 
	C97.000626,167.927032 96.988686,167.814240 97.210342,168.118439 
	C98.788208,172.501312 100.885780,175.761734 105.788010,176.370575 
	C105.786766,177.865952 105.752274,178.954041 105.675858,180.159393 
	C105.596397,180.533478 105.657486,180.766144 105.953690,181.295349 
	C107.413231,183.693558 108.736298,185.771072 110.076469,188.192551 
	C110.557137,189.797775 111.020706,191.059006 111.637794,192.737946 
	C113.177513,191.544022 114.072594,190.849945 115.310127,190.141190 
	C116.099304,190.216370 116.546021,190.306229 116.992737,190.396103 
	C116.328865,193.582870 115.502098,196.746445 115.043968,199.962524 
	C114.517609,203.657486 115.101784,206.769211 119.529762,208.042633 
	C120.804771,208.409332 121.658119,210.368851 122.617584,211.662735 
	C123.287941,212.566772 123.635338,214.231812 124.425529,214.443741 
	C131.351669,216.301270 131.226761,221.647980 131.000031,227.555969 
	C87.715195,228.000000 44.430393,228.000000 1.072794,228.000000 
	C1.072794,152.333359 1.072794,76.666687 1.072794,1.000000 
	C12.087316,1.000000 23.074999,1.000000 34.531342,1.000000 
z"/>
<path fill="#9C6BAD" opacity="1.000000" stroke="none" 
	d="
M551.885864,152.890656 
	C552.161316,156.160324 552.504089,159.426086 552.694702,162.700699 
	C552.920532,166.578735 554.779358,168.736053 558.684448,169.478317 
	C559.597229,169.651810 560.138489,171.452118 560.983521,172.383408 
	C562.426758,173.973862 563.919556,175.529556 565.500366,176.981216 
	C566.425720,177.830872 568.281494,178.295914 568.476318,179.201355 
	C569.234924,182.726334 570.973938,184.797119 574.629089,185.442642 
	C575.473022,185.591690 576.629700,186.977127 576.719055,187.884552 
	C577.164673,192.409515 580.126953,193.117767 583.791199,192.991592 
	C588.356323,192.834412 593.042358,192.357391 593.906067,198.806534 
	C593.999573,199.504669 595.281799,200.427231 596.127808,200.571777 
	C599.121094,201.083206 600.273743,202.862106 601.575195,205.525772 
	C602.441895,207.299606 605.700867,208.611145 608.008728,208.822159 
	C612.345886,209.218704 616.813354,208.371521 617.808289,214.541565 
	C617.964111,215.508377 620.142334,216.071655 621.254028,216.981979 
	C622.548523,218.041946 624.559021,219.152161 624.751221,220.461823 
	C625.350586,224.545929 627.889832,224.783829 631.147034,225.092010 
	C634.715515,225.429657 638.212219,226.527191 641.870117,227.646790 
	C601.979126,228.000000 561.958191,228.000000 521.468628,228.000000 
	C519.330200,223.861359 518.970093,218.726318 512.969727,217.935104 
	C512.315186,217.848785 511.916565,216.353302 511.260742,215.638489 
	C509.736176,213.976791 508.149445,212.369919 506.543915,210.785446 
	C505.522369,209.777252 503.659760,208.966171 503.490326,207.864334 
	C502.798676,203.366669 499.913300,202.784592 496.235870,202.988693 
	C491.730896,203.238724 487.356995,203.263168 486.515991,197.178131 
	C486.416046,196.455109 485.197876,195.833237 484.415833,195.280869 
	C484.035675,195.012314 483.313446,195.168762 483.004486,194.867661 
	C479.021088,190.985718 475.078796,187.061417 471.151794,183.122238 
	C470.952148,182.921967 471.093811,182.381989 470.894379,182.180908 
	C467.206696,178.462982 463.944092,174.056061 459.623993,171.326126 
	C456.703308,169.480545 454.923462,168.064041 455.007660,164.657364 
	C455.122589,160.007874 455.910522,155.071609 449.158966,153.994003 
	C448.283386,153.854248 447.460419,151.692627 447.095764,150.337646 
	C445.547882,144.586014 445.015320,144.274658 439.695923,146.339920 
	C439.023285,146.601074 438.096313,146.207138 437.088013,145.768341 
	C437.174805,145.248444 437.460754,145.076889 437.926147,144.874298 
	C438.293579,144.501633 438.481537,144.160004 438.847015,143.527710 
	C442.078552,138.490128 445.132507,133.743210 448.498413,128.880066 
	C449.533600,127.908051 450.488403,127.158920 450.940277,126.178108 
	C452.973755,121.763908 456.343750,120.138565 461.225525,121.190704 
	C461.546112,121.931030 461.675659,122.467125 461.475098,123.057228 
	C460.007874,124.209015 457.712646,125.932335 457.914825,126.306671 
	C459.708893,129.628098 461.843719,132.788544 464.147797,135.789337 
	C464.545715,136.307556 466.215363,135.849289 467.544250,136.060455 
	C477.186188,150.374847 490.680695,157.251846 507.229370,159.197357 
	C522.724426,161.018982 537.635132,159.492691 551.885864,152.890656 
z"/>
<path fill="#9866AB" opacity="1.000000" stroke="none" 
	d="
M226.531342,1.000000 
	C227.012451,3.825957 226.586166,6.749178 227.183884,9.445392 
	C227.618561,11.406178 229.019714,13.958544 230.671753,14.674978 
	C234.056274,16.142736 235.136856,18.342842 234.992920,21.652243 
	C234.823425,25.549021 236.052490,28.530682 238.426437,31.981031 
	C241.229752,36.055401 242.278564,41.745811 242.788422,46.865067 
	C243.227844,51.277328 244.251297,54.354580 248.280914,56.559975 
	C250.119354,57.566151 251.285629,59.800522 252.804871,62.113091 
	C247.700165,79.456810 251.038452,94.810097 267.220673,102.925667 
	C273.151947,105.900261 279.433990,108.168121 285.428040,111.026756 
	C291.099060,113.731339 296.957947,116.273590 302.087677,119.821930 
	C308.252625,124.086349 310.084076,130.728302 308.582977,137.987854 
	C307.077728,145.267380 302.646851,150.042679 295.333679,152.031860 
	C279.978424,156.208435 263.996582,147.835068 258.455231,132.507217 
	C257.276031,129.245407 256.819275,125.722374 255.639053,122.461044 
	C255.249023,121.383209 253.631271,120.749664 252.574860,119.912987 
	C251.749222,120.995956 250.697617,121.981995 250.176941,123.195786 
	C249.826508,124.012672 250.285797,125.151772 250.281509,126.146271 
	C250.247131,134.097015 250.188568,142.047668 250.137421,149.998352 
	C249.076279,150.949158 248.108826,152.044037 246.928497,152.811539 
	C245.668106,153.631104 243.971527,154.921082 242.890961,154.595062 
	C241.452362,154.161011 240.002136,152.555450 239.342194,151.097656 
	C238.707413,149.695480 238.956436,147.835724 239.022812,146.185272 
	C239.173325,142.442474 238.818802,139.492279 234.134201,138.351212 
	C232.694839,138.000610 231.362305,134.539642 231.149017,132.387177 
	C230.714172,127.998856 231.897156,123.192932 225.388763,122.158981 
	C224.440491,122.008339 223.871918,119.828239 223.010010,118.675140 
	C222.087463,117.440857 221.192230,115.531151 219.994797,115.275391 
	C215.742844,114.367203 214.812469,111.630585 215.006958,107.935593 
	C215.240616,103.496872 215.345734,99.629501 209.515060,97.914017 
	C207.952179,97.454201 207.308975,92.246750 207.111267,89.163162 
	C206.840118,84.934135 205.388412,83.049042 201.441147,83.861526 
	C200.898376,86.586899 200.434998,88.913651 199.971634,91.240402 
	C198.026230,90.248589 196.080826,89.256775 194.056946,87.735001 
	C195.991684,85.098671 198.222107,83.158081 199.978806,80.855995 
	C206.168961,72.744057 207.033386,63.737415 203.876801,53.943375 
	C201.926315,52.740582 200.102234,51.781700 198.155945,50.758568 
	C208.621124,47.175365 209.136703,46.525757 208.628418,37.751987 
	C208.422760,34.201710 206.895874,33.279579 203.709213,35.090370 
	C201.785690,35.871368 200.170029,36.529015 198.332245,37.114216 
	C197.549881,36.203114 196.989639,35.364456 195.645523,33.352394 
	C193.507462,36.357700 191.803665,38.752609 190.077209,41.123062 
	C190.054550,41.098602 190.117249,41.075886 189.825500,41.147781 
	C189.022949,41.527287 188.512146,41.834900 188.023163,42.100624 
	C188.044998,42.058731 188.128494,42.102936 187.803116,42.064800 
	C184.326202,42.016331 181.174652,42.005997 178.023117,41.995663 
	C176.402939,42.051353 174.746414,42.337009 173.174332,42.088474 
	C171.961533,41.896736 170.854752,41.034550 169.700821,40.470463 
	C170.755508,39.679935 171.739502,38.354458 172.878769,38.203899 
	C175.753922,37.823925 178.840195,38.498112 181.576401,37.762474 
	C184.321213,37.024517 186.744858,35.091991 190.666992,32.937027 
	C183.189499,32.965057 182.632782,28.936209 182.965118,24.226627 
	C183.163345,21.417356 182.002289,19.860901 179.133194,18.699814 
	C177.346390,17.976723 175.552826,15.381041 175.213318,13.379615 
	C174.582199,9.659235 175.011917,5.758894 175.000000,1.466735 
	C192.020889,1.000000 209.041794,1.000000 226.531342,1.000000 
z"/>
<path fill="#9E70B0" opacity="1.000000" stroke="none" 
	d="
M605.531372,1.000000 
	C606.003296,4.486082 606.048462,7.972759 605.998962,11.458091 
	C605.941956,15.471454 607.088318,18.575157 611.342957,19.971611 
	C612.420715,20.325344 613.195190,21.644316 614.064453,22.562002 
	C614.273804,22.783072 614.210449,23.319424 614.432739,23.463131 
	C620.821411,27.594189 623.190674,37.684456 633.516235,36.166931 
	C634.924255,35.960003 636.634460,37.809246 638.204712,38.706467 
	C637.223511,39.815712 636.242310,40.924961 634.526978,42.128063 
	C632.257385,42.206966 630.721924,42.192013 629.109680,41.855164 
	C628.452271,40.943356 627.871765,40.353443 627.291199,39.763542 
	C626.860840,40.508991 626.430420,41.254429 625.710327,42.026764 
	C622.933777,41.609653 620.458191,41.069221 617.953613,40.778549 
	C617.170166,40.687637 616.308533,41.270203 615.482727,41.544495 
	C615.840210,42.193638 616.145569,43.372162 616.562988,43.413235 
	C623.911377,44.136391 618.640137,47.919121 618.077393,50.844597 
	C614.982727,48.362431 612.908936,45.218048 610.398132,42.473560 
	C609.117554,41.073883 606.997253,39.561077 605.360535,39.669521 
	C604.214417,39.745461 602.451416,42.472759 602.440063,44.026714 
	C602.430603,45.330379 604.485229,46.723179 605.755493,47.941498 
	C607.057434,49.190205 609.447876,50.078323 609.740906,51.466461 
	C610.827332,56.613010 613.562134,56.603378 617.416931,54.780567 
	C618.914429,54.072479 620.513794,53.579910 622.038818,53.331375 
	C621.368469,55.118626 620.726013,56.563656 619.810303,58.036232 
	C619.047729,58.409851 618.558411,58.755924 618.069153,59.101990 
	C618.424927,59.412567 618.780701,59.723152 619.092468,60.399830 
	C616.996216,65.175140 614.943970,69.584358 612.584961,74.150009 
	C611.220276,77.609993 610.162354,80.913544 609.077271,84.420197 
	C609.050049,84.623291 608.857422,84.985008 608.603149,84.867920 
	C607.234741,84.167358 606.120544,83.583885 605.006348,83.000412 
	C602.785706,83.194160 600.542725,83.251404 598.349426,83.611588 
	C594.429871,84.255249 591.049866,84.303970 589.852844,79.339302 
	C589.563171,78.137932 588.219421,77.070839 587.148743,76.203125 
	C585.055542,74.506737 582.813232,72.994408 580.226868,71.110291 
	C578.094666,73.222137 582.702454,79.398827 576.031372,80.707916 
	C573.016418,75.275269 571.014038,69.825928 568.109070,64.909943 
	C566.028748,61.389389 562.406921,58.808880 560.088196,55.391430 
	C557.986328,52.293541 555.577332,50.058281 551.877625,48.753681 
	C547.477173,41.888802 546.639832,41.510300 539.413025,43.041229 
	C534.955078,42.947784 530.953369,42.869072 526.782104,42.683285 
	C526.103760,42.598148 525.595032,42.620079 524.617371,42.669609 
	C520.682983,42.571712 517.217468,42.446220 513.675964,42.310402 
	C513.599976,42.300072 513.158813,42.414295 512.724487,42.533482 
	C507.202209,42.830540 502.257660,43.368298 497.272339,44.872265 
	C483.615570,48.992226 472.758636,56.369766 465.960205,69.198334 
	C461.345947,77.905304 459.974457,87.398956 458.718567,96.999512 
	C458.496429,97.005753 458.052063,97.014091 457.643066,97.010803 
	C455.871307,97.005867 454.508606,97.004219 453.067566,96.611267 
	C452.966614,95.158623 452.943970,94.097275 453.060669,92.869705 
	C453.012085,92.276108 452.824097,91.848732 452.492188,91.049057 
	C451.286682,85.782127 450.225159,80.887505 449.552917,76.009773 
	C452.595886,75.910957 455.593872,78.337463 457.533813,73.887596 
	C458.572845,71.504272 461.867828,70.206261 463.681580,68.032097 
	C465.767761,65.531357 467.344757,62.605373 469.138275,59.861057 
	C471.210815,56.689743 473.278259,53.515095 475.347931,50.341885 
	C477.541016,48.580521 479.508545,46.414886 481.658691,44.448959 
	C482.441589,43.733162 483.619324,43.282196 484.687103,43.078712 
	C487.133881,42.612450 489.615570,42.267799 492.098694,42.071026 
	C494.568695,41.875282 496.782074,41.683846 496.958893,38.400467 
	C497.137695,35.080517 495.232239,34.478432 492.478638,33.701248 
	C490.744263,33.211727 488.492828,30.858200 488.411438,29.243189 
	C488.329346,27.613989 490.479431,25.704124 491.950867,24.212473 
	C493.399536,22.743919 496.741669,21.456831 496.612427,20.418756 
	C496.130768,16.548801 495.602631,11.759740 493.121674,9.315286 
	C490.470490,6.703115 488.839813,4.569417 489.000000,1.000000 
	C515.687561,1.000000 542.375122,1.000000 569.532837,1.418001 
	C570.361694,7.103573 572.777527,9.550200 576.243164,7.484829 
	C577.871887,6.514227 578.124023,3.233729 579.000000,0.999994 
	C587.687561,1.000000 596.375183,1.000000 605.531372,1.000000 
M456.265228,80.850754 
	C456.072754,81.869286 455.880280,82.887817 455.687805,83.906349 
	C456.165131,84.055298 456.642487,84.204247 457.119812,84.353195 
	C457.842285,82.937698 458.564758,81.522194 459.893585,78.918716 
	C457.977966,79.810440 457.327698,80.113144 456.265228,80.850754 
z"/>
<path fill="#9D6DAE" opacity="1.000000" stroke="none" 
	d="
M488.531342,1.000000 
	C488.839813,4.569417 490.470490,6.703115 493.121674,9.315286 
	C495.602631,11.759740 496.130768,16.548801 496.612427,20.418756 
	C496.741669,21.456831 493.399536,22.743919 491.950867,24.212473 
	C490.479431,25.704124 488.329346,27.613989 488.411438,29.243189 
	C488.492828,30.858200 490.744263,33.211727 492.478638,33.701248 
	C495.232239,34.478432 497.137695,35.080517 496.958893,38.400467 
	C496.782074,41.683846 494.568695,41.875282 492.098694,42.071026 
	C489.615570,42.267799 487.133881,42.612450 484.687103,43.078712 
	C483.619324,43.282196 482.441589,43.733162 481.658691,44.448959 
	C479.508545,46.414886 477.541016,48.580521 475.347931,50.341885 
	C473.278259,53.515095 471.210815,56.689743 469.138275,59.861057 
	C467.344757,62.605373 465.767761,65.531357 463.681580,68.032097 
	C461.867828,70.206261 458.572845,71.504272 457.533813,73.887596 
	C455.593872,78.337463 452.595886,75.910957 449.353699,75.710701 
	C442.010284,58.722431 429.599335,48.871811 412.247345,44.742214 
	C397.354034,41.197758 382.652496,42.120758 367.995911,45.950127 
	C368.712982,43.434246 370.555573,40.583488 369.926208,38.468204 
	C368.335022,33.120342 365.644440,28.097897 363.369720,22.955940 
	C362.443848,20.863054 361.422211,18.812466 360.500336,16.717901 
	C358.316620,11.756510 356.166595,6.780303 354.001465,1.405042 
	C398.687561,1.000000 443.375122,1.000000 488.531342,1.000000 
M375.275604,41.482124 
	C375.424042,41.461266 375.572449,41.440411 375.720886,41.419552 
	C375.605133,41.394016 375.489380,41.368481 375.275604,41.482124 
z"/>
<path fill="#9866AB" opacity="1.000000" stroke="none" 
	d="
M307.998718,159.159790 
	C307.396118,162.943344 307.041107,166.487503 312.190247,167.557755 
	C313.201172,167.767868 313.882385,169.417633 314.782837,170.337677 
	C316.416260,172.006607 318.126556,173.600479 319.753906,175.275116 
	C320.862305,176.415695 321.892273,177.633240 322.942474,178.829407 
	C324.092163,180.138840 324.993042,182.193817 326.408691,182.642883 
	C330.505585,183.942520 331.196808,186.806000 330.993408,190.393997 
	C330.752869,194.636398 331.126404,198.392136 336.326416,199.632278 
	C337.331360,199.871948 338.078003,201.454605 338.802826,202.514206 
	C339.259369,203.181580 339.245148,204.260666 339.798828,204.757553 
	C343.789429,208.338638 348.441040,211.360992 351.741913,215.475906 
	C354.332458,218.705338 355.288757,223.245743 356.985535,227.601868 
	C334.645782,228.000000 312.291534,228.000000 289.468628,228.000000 
	C288.332153,224.469681 287.637207,220.944168 287.009552,217.406708 
	C286.751373,215.951904 287.190338,213.902786 286.364014,213.100281 
	C282.628235,209.472290 278.853241,205.721771 274.496826,202.952164 
	C271.514679,201.056290 270.944275,198.873428 271.021423,195.976807 
	C271.138245,191.593277 271.621460,187.191116 265.472748,186.199997 
	C264.505280,186.044037 263.894104,183.921127 263.037598,182.767548 
	C262.117371,181.528183 261.260468,179.522659 260.101166,179.303192 
	C254.789886,178.297836 254.769287,174.485855 255.039841,170.567139 
	C255.353088,166.030243 254.419510,162.615082 248.208755,162.485107 
	C249.091553,159.720200 249.835144,157.391235 251.160980,155.222107 
	C257.191681,155.993454 262.661163,156.462082 268.082336,157.259277 
	C272.871460,157.963516 277.589172,159.670959 282.369720,159.803040 
	C290.900269,160.038727 299.454437,159.420792 307.998718,159.159790 
z"/>
<path fill="#A072B2" opacity="1.000000" stroke="none" 
	d="
M578.550049,0.999994 
	C578.124023,3.233729 577.871887,6.514227 576.243164,7.484829 
	C572.777527,9.550200 570.361694,7.103573 570.001465,1.418001 
	C572.700012,1.000000 575.400024,1.000000 578.550049,0.999994 
z"/>
<path fill="#F8F7D4" opacity="1.000000" stroke="none" 
	d="
M308.272308,158.944489 
	C299.454437,159.420792 290.900269,160.038727 282.369720,159.803040 
	C277.589172,159.670959 272.871460,157.963516 268.082336,157.259277 
	C262.661163,156.462082 257.191681,155.993454 251.454926,155.187439 
	C250.871643,153.568359 250.576660,152.143784 250.209549,150.358795 
	C250.188568,142.047668 250.247131,134.097015 250.281509,126.146271 
	C250.285797,125.151772 249.826508,124.012672 250.176941,123.195786 
	C250.697617,121.981995 251.749222,120.995956 252.574860,119.912987 
	C253.631271,120.749664 255.249023,121.383209 255.639053,122.461044 
	C256.819275,125.722374 257.276031,129.245407 258.455231,132.507217 
	C263.996582,147.835068 279.978424,156.208435 295.333679,152.031860 
	C302.646851,150.042679 307.077728,145.267380 308.582977,137.987854 
	C310.084076,130.728302 308.252625,124.086349 302.087677,119.821930 
	C296.957947,116.273590 291.099060,113.731339 285.428040,111.026756 
	C279.433990,108.168121 273.151947,105.900261 267.220673,102.925667 
	C251.038452,94.810097 247.700165,79.456810 253.017059,62.398430 
	C263.302063,43.560982 281.788391,40.452442 299.759155,43.437805 
	C307.743469,44.764187 315.582550,47.061962 323.384705,49.280464 
	C324.526733,49.605183 325.748688,51.917141 325.814362,53.360550 
	C326.078979,59.173607 326.069336,65.014954 325.776794,70.826523 
	C325.703033,72.291687 324.205475,73.685196 323.362244,75.111649 
	C322.218506,73.799210 320.351318,72.637260 320.042236,71.151207 
	C316.722839,55.193207 301.629761,45.675117 285.731934,49.734955 
	C277.832916,51.752129 272.854645,56.852043 271.885040,63.697605 
	C270.747803,71.726952 274.933289,76.803818 281.440094,80.128998 
	C287.949127,83.455338 294.827240,86.051620 301.468475,89.129921 
	C306.444855,91.436531 311.436432,93.765968 316.188171,96.491562 
	C332.837494,106.041611 333.857422,122.481491 329.348358,136.853638 
	C326.816406,144.923920 320.140625,149.478455 314.836334,155.185104 
	C313.275330,156.864517 310.671722,157.574783 308.272308,158.944489 
z"/>
<path fill="#F9F7D4" opacity="1.000000" stroke="none" 
	d="
M110.059372,187.848572 
	C108.736298,185.771072 107.413231,183.693558 105.971832,181.057648 
	C105.853508,180.499252 105.717781,180.042145 105.717773,180.042145 
	C105.752274,178.954041 105.786766,177.865952 105.906021,176.037994 
	C106.721992,173.590530 107.453209,171.882919 108.189293,170.165070 
	C108.194160,170.154846 108.219147,170.156693 108.219147,170.156693 
	C120.217995,150.385056 132.213684,130.611511 144.219376,110.844040 
	C145.846024,108.165733 147.522766,105.517853 149.475845,102.373695 
	C156.430649,106.559044 163.073105,110.556419 170.071716,114.768135 
	C157.718002,135.684357 145.508682,156.356110 132.804626,177.506775 
	C130.439621,181.290283 128.569336,184.594864 126.699074,187.899445 
	C123.740265,188.681274 120.781464,189.463104 117.407700,190.320526 
	C116.546021,190.306229 116.099304,190.216370 114.996155,190.008942 
	C112.912933,189.210434 111.486153,188.529510 110.059372,187.848572 
z"/>
<path fill="#F8F6D4" opacity="1.000000" stroke="none" 
	d="
M85.225861,150.410706 
	C73.226006,132.122620 61.226143,113.834518 48.965904,95.049759 
	C48.545631,94.270805 48.309151,94.087097 47.996090,94.001968 
	C47.973782,93.556419 47.951473,93.110878 48.120171,92.257019 
	C48.311176,91.848709 48.506973,91.559212 48.506973,91.559212 
	C48.506973,91.559212 48.594368,91.606720 48.620796,91.564568 
	C49.685173,90.911278 50.723118,90.300140 52.223694,89.350967 
	C53.491219,88.406395 54.296108,87.799858 55.100998,87.193314 
	C59.178398,84.713699 63.255795,82.234077 68.029495,79.331017 
	C78.016594,94.794998 87.880013,110.067467 97.764381,126.127586 
	C97.846420,138.277756 97.907494,149.640289 97.888687,161.396515 
	C97.535431,163.798218 97.262062,165.806229 96.988686,167.814240 
	C96.988686,167.814240 97.000626,167.927032 96.877182,167.637451 
	C92.911125,161.702148 89.068497,156.056427 85.225861,150.410706 
z"/>
<path fill="#F8F5D4" opacity="1.000000" stroke="none" 
	d="
M198.554352,37.186665 
	C200.170029,36.529015 201.785690,35.871368 203.984955,35.346962 
	C205.751846,45.745731 205.745956,45.721584 196.052826,48.083572 
	C193.958176,48.593990 191.848602,49.173992 189.873383,50.019707 
	C183.252991,52.854332 178.744888,57.771286 176.323273,64.529510 
	C175.356445,67.227730 174.339813,70.400223 177.989761,71.768692 
	C181.575195,73.112984 182.925507,70.398254 183.930725,67.482040 
	C185.993423,61.498028 190.295425,57.934292 196.346771,56.337616 
	C198.909622,55.661396 201.451691,54.906448 204.003204,54.187286 
	C207.033386,63.737415 206.168961,72.744057 199.978806,80.855995 
	C198.222107,83.158081 195.991684,85.098671 193.789124,87.496025 
	C193.055313,87.963745 192.510849,88.140465 191.513245,88.725555 
	C189.050461,89.738564 187.040833,90.343216 185.031204,90.947861 
	C178.695297,87.016525 172.244980,83.251900 166.103455,79.037292 
	C164.557114,77.976120 163.146393,75.483528 163.126099,73.632835 
	C162.995712,61.733582 167.642181,52.381664 179.250916,46.520836 
	C182.618454,44.852772 185.373474,43.477856 188.128494,42.102936 
	C188.128494,42.102936 188.044998,42.058731 188.328033,42.056652 
	C189.113144,41.728344 189.615189,41.402115 190.117249,41.075886 
	C190.117249,41.075886 190.054550,41.098602 190.434448,41.067665 
	C193.394333,39.753372 195.974350,38.470020 198.554352,37.186665 
z"/>
<path fill="#FAF9D4" opacity="1.000000" stroke="none" 
	d="
M105.811935,139.997650 
	C105.811859,125.881897 105.811859,112.265495 105.811859,98.184212 
	C113.968552,98.184212 121.653168,98.184212 129.950378,98.184212 
	C129.601120,108.203537 131.847260,118.055786 125.093010,127.335808 
	C118.309532,136.656006 112.921989,146.992203 105.812012,156.634567 
	C105.812012,151.255386 105.812012,145.876190 105.811935,139.997650 
z"/>
<path fill="#F7F2D4" opacity="1.000000" stroke="none" 
	d="
M121.968185,58.040726 
	C121.440086,54.159351 122.670334,51.957783 125.656944,49.797092 
	C131.019836,45.917252 131.413345,37.912777 127.139091,32.864861 
	C122.978172,27.950788 114.881470,27.316105 110.053680,31.525568 
	C104.881676,36.035160 104.439323,43.976044 109.083176,48.947575 
	C114.421623,54.662716 114.894562,56.396408 113.227058,65.013512 
	C112.507416,64.381851 111.780380,64.022522 111.486122,63.443325 
	C107.489998,55.577591 103.489403,47.712307 99.674660,39.758308 
	C99.122452,38.606926 98.940231,36.570145 99.590477,35.660755 
	C105.380898,27.562677 111.397102,19.626045 117.862717,10.949426 
	C124.347427,19.598064 130.434738,27.637648 136.381134,35.780132 
	C136.924393,36.524014 136.984222,38.134258 136.560104,38.991817 
	C132.356293,47.491756 128.007034,55.919834 123.666130,64.351364 
	C123.570465,64.537193 123.087708,64.523712 121.970856,64.817490 
	C121.970856,62.586258 121.970856,60.534813 121.968185,58.040726 
z"/>
<path fill="#F8F5D4" opacity="1.000000" stroke="none" 
	d="
M175.070282,106.703033 
	C171.803528,105.522675 168.658661,104.248543 165.713226,102.614876 
	C161.797318,100.442924 158.036819,97.990776 153.649963,95.318077 
	C155.701965,91.907951 157.625580,88.711189 159.905838,84.921730 
	C166.839752,89.104698 173.580338,93.171036 180.708359,97.471100 
	C178.700897,100.791862 176.990921,103.620537 175.070282,106.703033 
z"/>
<path fill="#F7F2D4" opacity="1.000000" stroke="none" 
	d="
M115.151123,89.569862 
	C112.585632,89.568466 110.491837,89.568466 107.269157,89.568466 
	C109.131294,84.048874 110.215866,79.182312 112.501915,74.967400 
	C113.286049,73.521660 117.070442,73.326180 119.495049,73.289940 
	C120.927773,73.268532 123.181564,74.335007 123.682571,75.504814 
	C125.481125,79.704315 126.690353,84.156212 128.470322,89.571259 
	C123.712570,89.571259 119.667686,89.571259 115.151123,89.569862 
z"/>
<path fill="#F7F2D4" opacity="1.000000" stroke="none" 
	d="
M46.222626,83.910072 
	C45.370441,81.885880 44.810059,79.575470 44.097252,77.313080 
	C43.139267,74.272484 42.063610,71.268974 40.807137,67.997879 
	C40.088608,66.700378 39.601402,65.654549 38.958858,64.275261 
	C41.034058,62.917004 43.055859,61.593693 44.256035,60.808151 
	C49.714405,65.482285 54.653419,69.711678 60.080013,74.358597 
	C55.805485,77.270256 51.126019,80.457748 46.222626,83.910072 
z"/>
<path fill="#9460A7" opacity="1.000000" stroke="none" 
	d="
M97.968575,161.002823 
	C97.907494,149.640289 97.846420,138.277756 97.884499,126.455147 
	C99.634560,126.084198 101.285454,126.173340 103.758858,126.306885 
	C103.709488,127.226448 103.553444,129.106339 103.516930,130.988556 
	C103.343971,139.902649 103.105324,148.817932 103.154839,157.731308 
	C103.162498,159.110901 104.604706,160.454025 105.272804,161.866364 
	C105.961166,163.321533 106.514214,164.840714 107.027145,166.685547 
	C106.927834,167.039215 107.003593,167.005310 107.003593,167.005310 
	C107.359558,167.833588 107.715523,168.661850 108.145309,169.823410 
	C108.219147,170.156693 108.194160,170.154846 107.818497,170.078506 
	C104.812538,168.783600 102.182243,167.565033 100.707787,166.881943 
	C100.707787,154.229553 100.707787,142.812134 100.707787,131.394699 
	C99.996559,139.349609 100.124763,147.317810 99.903984,155.276337 
	C99.850578,157.201584 98.644569,159.094849 97.968575,161.002823 
z"/>
<path fill="#9460A7" opacity="1.000000" stroke="none" 
	d="
M40.004135,47.993851 
	C47.299568,46.844692 49.977505,48.015373 50.816963,52.720768 
	C51.632702,57.293201 50.214424,58.744545 45.595074,58.002243 
	C44.303146,57.794636 43.032726,57.453171 41.377579,57.088127 
	C41.002716,57.003151 40.999901,56.999897 40.983063,56.539978 
	C40.897858,55.160187 40.829483,54.240314 40.649014,53.058876 
	C40.110504,51.950214 39.684086,51.103111 39.257668,50.256012 
	C39.527821,49.673740 39.797977,49.091469 40.034065,48.254578 
	C40.000000,47.999962 40.004135,47.993851 40.004135,47.993851 
z"/>
<path fill="#F4EDD5" opacity="1.000000" stroke="none" 
	d="
M39.052757,50.035282 
	C39.684086,51.103111 40.110504,51.950214 40.363937,53.245155 
	C39.286690,54.373066 38.382420,55.053135 37.478153,55.733200 
	C36.379078,56.409634 35.279999,57.086060 33.970402,57.892052 
	C32.212128,54.990410 30.452288,52.086185 28.198977,48.367592 
	C31.085026,47.525391 33.492813,46.822754 36.278957,46.156971 
	C37.387493,47.400730 38.117668,48.607643 39.052757,50.035282 
z"/>
<path fill="#9866AB" opacity="1.000000" stroke="none" 
	d="
M233.440277,158.638794 
	C234.468048,159.868500 235.855560,161.062805 235.694748,161.987930 
	C235.294968,164.287415 234.189224,166.464172 233.366974,168.690216 
	C231.961624,167.458389 229.618073,166.399170 229.352859,164.957581 
	C228.852829,162.239639 227.722778,158.195023 233.440277,158.638794 
z"/>
<path fill="#9866AB" opacity="1.000000" stroke="none" 
	d="
M205.128326,121.440865 
	C206.641403,120.261353 208.102844,119.477982 209.564301,118.694618 
	C210.327255,121.022934 211.465576,123.319626 211.665680,125.695343 
	C211.744125,126.626488 209.719666,127.734779 208.652924,128.762390 
	C207.460083,127.271973 206.154037,125.853668 205.134079,124.253052 
	C204.763580,123.671616 205.075928,122.655045 205.128326,121.440865 
z"/>
<path fill="#F4EDD5" opacity="1.000000" stroke="none" 
	d="
M113.993645,40.285488 
	C115.834534,38.972134 117.561096,37.698376 119.469818,37.302200 
	C119.996078,37.192974 121.897507,39.867390 121.677521,40.966133 
	C121.395309,42.375648 119.047340,44.718132 118.569061,44.500973 
	C116.809555,43.702080 115.454971,42.011353 113.993645,40.285488 
z"/>
<path fill="#9866AB" opacity="1.000000" stroke="none" 
	d="
M184.931000,91.239700 
	C187.040833,90.343216 189.050461,89.738564 191.377197,88.996689 
	C192.019897,90.416069 192.982956,92.234398 192.483002,93.452042 
	C192.027863,94.560577 189.558319,95.942734 188.731873,95.562576 
	C187.148483,94.834229 186.100784,92.941261 184.931000,91.239700 
z"/>
<path fill="#9460A7" opacity="1.000000" stroke="none" 
	d="
M127.040817,187.776520 
	C128.569336,184.594864 130.439621,181.290283 132.581421,177.752960 
	C133.524063,178.428665 134.110214,179.417831 134.882217,180.230453 
	C137.192429,182.662216 136.823471,184.054596 133.500763,184.974152 
	C131.376862,185.561951 129.416336,186.740112 127.040817,187.776520 
z"/>
<path fill="#996CA9" opacity="1.000000" stroke="none" 
	d="
M187.803116,42.064800 
	C185.373474,43.477856 182.618454,44.852772 179.505463,46.311050 
	C178.865082,45.163021 178.582687,43.931633 178.161713,42.347954 
	C181.174652,42.005997 184.326202,42.016331 187.803116,42.064800 
z"/>
<path fill="#9460A7" opacity="1.000000" stroke="none" 
	d="
M54.844887,87.027496 
	C54.296108,87.799858 53.491219,88.406395 52.395004,89.100586 
	C52.932041,88.412727 53.760406,87.637207 54.844887,87.027496 
z"/>
<path fill="#9460A7" opacity="1.000000" stroke="none" 
	d="
M39.997044,48.001980 
	C39.994087,48.003998 39.961098,47.926800 39.982616,47.960327 
	C40.004135,47.993851 40.000000,47.999962 39.997044,48.001980 
z"/>
<path fill="#F9F8D4" opacity="1.000000" stroke="none" 
	d="
M367.715332,46.171219 
	C382.652496,42.120758 397.354034,41.197758 412.247345,44.742214 
	C429.599335,48.871811 442.010284,58.722431 448.964447,75.693810 
	C450.225159,80.887505 451.286682,85.782127 452.472626,91.326935 
	C452.705139,92.330055 452.813232,92.682991 452.921326,93.035927 
	C452.943970,94.097275 452.966614,95.158623 453.016724,97.053009 
	C453.078674,100.256554 453.113098,102.627075 453.070251,105.412643 
	C451.390778,113.550552 449.788635,121.273415 448.186493,128.996277 
	C445.132507,133.743210 442.078552,138.490128 438.633911,143.651489 
	C437.997681,144.298386 437.832153,144.578186 437.746674,144.905334 
	C437.460754,145.076889 437.174805,145.248444 436.763672,145.640137 
	C435.168518,146.985641 433.698578,148.111008 431.709167,149.602570 
	C427.670898,151.901657 424.152039,153.834564 420.633209,155.767487 
	C420.150665,155.868195 419.668121,155.968903 418.662903,156.265518 
	C417.757690,156.652359 417.375153,156.843277 416.992584,157.034195 
	C406.014130,159.507446 394.909912,160.634552 383.664856,159.919861 
	C372.193481,159.190781 360.920319,156.136566 352.664703,148.464249 
	C340.753082,137.394257 334.414825,122.746780 334.310974,106.229431 
	C334.257019,97.653397 334.840454,88.855148 336.757812,80.530838 
	C340.615570,63.782150 351.350494,52.510654 367.715332,46.171219 
M383.909485,51.035099 
	C376.677704,53.310162 371.877441,58.304394 369.640686,65.292549 
	C367.728455,71.266792 366.154480,77.498474 365.578522,83.722488 
	C364.025909,100.500381 363.674896,117.323181 368.261475,133.786011 
	C370.082245,140.321320 373.174316,146.238342 379.396210,149.745316 
	C395.442078,158.789551 414.187988,151.293686 419.213531,133.608429 
	C423.596588,118.184082 423.509583,102.373825 422.272278,86.537567 
	C421.556091,77.371315 420.354523,68.314194 415.683746,60.135712 
	C412.623596,54.777378 408.121948,50.898911 401.998047,50.332760 
	C396.291199,49.805161 390.463928,50.580105 383.909485,51.035099 
z"/>
<path fill="#9C6BAD" opacity="1.000000" stroke="none" 
	d="
M420.862061,156.051605 
	C424.152039,153.834564 427.670898,151.901657 431.519806,149.851135 
	C435.069733,150.699036 438.289612,151.664566 441.690918,152.684509 
	C436.225037,155.939392 431.560242,158.717224 425.902924,162.086105 
	C424.743713,160.700836 422.917328,158.518295 420.862061,156.051605 
M424.558838,156.954834 
	C424.558838,156.954834 424.554993,157.019974 424.558838,156.954834 
z"/>
<path fill="#9C6BAD" opacity="1.000000" stroke="none" 
	d="
M416.931274,157.282776 
	C417.375153,156.843277 417.757690,156.652359 418.456512,156.404053 
	C418.373932,157.278412 417.975067,158.210129 417.576233,159.141861 
	C417.340790,158.605026 417.105377,158.068176 416.931274,157.282776 
z"/>
<path fill="#9D6DAE" opacity="1.000000" stroke="none" 
	d="
M364.861359,41.808617 
	C365.040009,41.817043 365.146759,41.889359 365.253479,41.961674 
	C365.098785,41.931950 364.944122,41.902225 364.861359,41.808617 
z"/>
<path fill="#F9F8D4" opacity="1.000000" stroke="none" 
	d="
M551.998230,49.077942 
	C555.577332,50.058281 557.986328,52.293541 560.088196,55.391430 
	C562.406921,58.808880 566.028748,61.389389 568.109070,64.909943 
	C571.014038,69.825928 573.016418,75.275269 575.643799,80.762238 
	C576.094299,82.477196 576.305969,83.926292 576.703491,86.119659 
	C576.946960,96.575470 577.004456,106.286987 577.062012,115.998512 
	C576.974548,116.318542 576.887024,116.638565 576.626648,117.501205 
	C576.332214,119.017464 576.210693,119.991127 576.089233,120.964798 
	C575.974304,121.287437 575.859375,121.610069 575.542969,122.435547 
	C575.141602,123.713646 574.941650,124.488899 574.741638,125.264160 
	C574.741638,125.264153 574.433655,125.392281 574.243774,125.857819 
	C572.619385,129.518036 571.184998,132.712708 569.750610,135.907379 
	C569.489624,136.255997 569.228699,136.604614 568.660889,137.371979 
	C567.875305,138.532288 567.396545,139.273849 566.917725,140.015411 
	C566.917725,140.015411 566.540894,140.285263 566.271729,140.614059 
	C565.801941,141.137054 565.674072,141.370972 565.618835,141.644638 
	C565.618835,141.644638 565.612183,141.698776 565.355469,141.859436 
	C561.861816,144.973221 558.624878,147.926361 555.387939,150.879486 
	C554.988159,151.050354 554.588440,151.221252 553.766602,151.636871 
	C552.868835,152.239197 552.393127,152.596802 551.917419,152.954407 
	C551.917419,152.954407 551.945251,152.901672 551.915527,152.896164 
	C537.635132,159.492691 522.724426,161.018982 507.229370,159.197357 
	C490.680695,157.251846 477.186188,150.374847 467.450134,135.708817 
	C465.341309,131.093597 463.573242,127.048409 461.805176,123.003220 
	C461.675659,122.467125 461.546112,121.931030 461.233459,120.850922 
	C460.979034,119.860985 460.907776,119.415062 460.836365,118.715683 
	C460.612366,118.238846 460.388580,118.015457 460.333374,117.780724 
	C460.501953,117.769386 460.499176,117.431450 460.510132,117.304764 
	C460.521118,117.178085 460.353760,116.986603 460.330261,116.584335 
	C460.120575,115.124557 459.934418,114.067039 459.787598,112.626770 
	C459.544647,110.499275 459.262329,108.754517 459.020691,106.675995 
	C459.017944,105.897362 458.974487,105.452484 458.966736,104.756851 
	C458.970703,104.340256 458.938965,104.174423 458.962219,103.581604 
	C458.980499,101.434883 458.943756,99.715164 458.956055,97.746262 
	C458.983643,97.329155 458.962158,97.161217 458.940674,96.993279 
	C459.974457,87.398956 461.345947,77.905304 465.960205,69.198334 
	C472.758636,56.369766 483.615570,48.992226 497.272339,44.872265 
	C502.257660,43.368298 507.202209,42.830540 512.880127,42.559364 
	C513.470215,42.466064 513.751953,42.320728 513.751953,42.320728 
	C517.217468,42.446220 520.682983,42.571712 524.920898,42.757812 
	C526.112793,42.809063 526.532227,42.799713 526.951660,42.790359 
	C530.953369,42.869072 534.955078,42.947784 539.453247,43.412331 
	C543.965881,45.558086 547.982056,47.318016 551.998230,49.077942 
M504.783844,149.956879 
	C525.795532,158.864456 542.403748,150.167053 545.608459,127.344322 
	C547.445740,114.259903 547.617065,100.801773 547.069336,87.572708 
	C546.718994,79.110847 544.184326,70.608490 541.687378,62.411098 
	C539.935974,56.661381 535.424866,52.197140 529.414490,50.870296 
	C510.250793,46.639736 497.256378,52.129078 492.996857,70.171028 
	C487.988281,91.385635 488.135284,112.767937 493.322266,133.953964 
	C494.877502,140.306213 498.084900,146.064896 504.783844,149.956879 
z"/>
<path fill="#F9F7D5" opacity="1.000000" stroke="none" 
	d="
M620.083496,58.008675 
	C620.726013,56.563656 621.368469,55.118626 622.265625,53.066624 
	C623.821777,49.601345 625.123169,46.743038 626.729370,43.771088 
	C627.738953,43.142792 628.443726,42.628139 629.142761,42.138321 
	C629.137024,42.163155 629.186523,42.177063 629.186523,42.177063 
	C630.721924,42.192013 632.257385,42.206966 634.173645,42.232216 
	C636.211609,44.654514 638.324646,46.871655 639.452209,49.509972 
	C647.130005,67.473839 654.600403,85.526352 662.314941,103.839996 
	C664.452759,108.101761 666.612427,111.990593 668.317566,116.069443 
	C670.000488,120.094788 671.223511,124.312363 672.839966,129.038040 
	C673.315430,130.134308 673.599365,130.638153 673.883240,131.141998 
	C673.883240,131.141998 673.894592,131.040924 673.923401,131.447647 
	C675.942627,135.960922 677.933044,140.067474 679.923462,144.174026 
	C681.784424,149.431442 685.241943,151.836121 691.054626,151.432327 
	C693.542908,151.259476 696.010071,152.815536 693.600342,156.780869 
	C692.789551,157.444321 692.501343,157.740570 692.211487,157.742081 
	C675.056030,157.832214 657.899963,157.966782 640.745911,157.836365 
	C639.364868,157.825867 637.997681,155.977234 636.624084,154.982773 
	C637.208252,151.237061 639.798096,150.931107 642.916138,151.068420 
	C651.062805,151.427200 652.717224,149.145248 650.100586,141.355316 
	C649.415649,139.316345 648.242432,137.400162 647.821228,135.320709 
	C645.556458,124.139580 638.806458,120.747742 627.841370,122.207024 
	C620.337280,123.205704 612.588928,122.554543 604.958435,122.337044 
	C601.386536,122.235229 599.407227,123.545181 598.347839,126.901344 
	C596.072327,134.110092 593.632629,141.267029 591.581299,149.160278 
	C594.223328,150.307861 596.634399,150.482819 598.837036,151.253387 
	C600.634155,151.882080 602.182312,153.222595 603.840820,154.247498 
	C602.215759,155.496429 600.619141,157.778351 598.960938,157.824036 
	C589.337830,158.089142 579.700256,157.827942 570.067566,157.744751 
	C570.100769,155.778336 570.133911,153.811920 570.634033,151.528122 
	C578.431091,152.224518 582.784302,148.775833 584.914856,141.995346 
	C584.914856,141.995346 585.103394,141.742569 585.366455,141.312042 
	C589.450806,131.588882 593.272156,122.296242 597.229492,112.838501 
	C597.365417,112.673416 597.489990,112.264244 597.684692,111.979912 
	C599.020996,108.835037 600.162537,105.974503 601.304199,103.113968 
	C601.957031,101.673248 602.609863,100.232513 603.527222,98.262337 
	C603.919128,97.231865 604.046570,96.730843 604.396057,95.956635 
	C606.031128,92.117302 607.444275,88.551147 608.857422,84.985001 
	C608.857422,84.985008 609.050049,84.623291 609.318054,84.147606 
	C610.687927,80.445808 611.789856,77.219704 612.891724,73.993584 
	C614.943970,69.584358 616.996216,65.175140 619.300049,60.198975 
	C619.728943,59.090908 619.906250,58.549786 620.083496,58.008675 
M615.537720,115.661057 
	C623.080444,115.661057 630.623169,115.661057 639.645874,115.661057 
	C633.307007,100.793770 627.616882,87.448112 621.926819,74.102463 
	C621.270813,74.168724 620.614868,74.234985 619.958862,74.301247 
	C614.432434,87.623299 608.905945,100.945343 602.801514,115.660614 
	C607.734070,115.660614 611.144470,115.660614 615.537720,115.661057 
z"/>
<path fill="#9E70B0" opacity="1.000000" stroke="none" 
	d="
M577.377441,115.897278 
	C577.004456,106.286987 576.946960,96.575470 576.896362,86.431686 
	C584.348694,88.786728 585.794189,95.734711 587.921082,102.125961 
	C588.475403,103.791687 588.103088,105.742493 588.425964,107.513191 
	C589.196960,111.741058 588.049072,113.271149 583.396484,112.526825 
	C581.712708,112.257462 579.606323,114.629372 577.377441,115.897278 
z"/>
<path fill="#9E70B0" opacity="1.000000" stroke="none" 
	d="
M597.093506,113.003586 
	C593.272156,122.296242 589.450806,131.588882 585.376282,141.154663 
	C585.104919,137.961060 584.259888,134.238754 585.236328,131.079422 
	C587.439087,123.952370 590.542603,117.103722 593.639771,110.070992 
	C594.000000,110.000175 594.002441,110.003845 594.061035,110.343323 
	C595.110901,111.456398 596.102173,112.229996 597.093506,113.003586 
z"/>
<path fill="#9970AB" opacity="1.000000" stroke="none" 
	d="
M636.345947,154.920593 
	C637.997681,155.977234 639.364868,157.825867 640.745911,157.836365 
	C657.899963,157.966782 675.056030,157.832214 692.211487,157.742081 
	C692.501343,157.740570 692.789551,157.444321 693.445068,157.102966 
	C693.206360,157.701401 692.635864,159.129990 691.990540,159.164642 
	C684.540894,159.564758 677.081543,159.860001 669.621582,159.970108 
	C661.480530,160.090271 653.332458,160.131149 645.194763,159.921921 
	C640.952881,159.812851 636.568726,159.507111 633.060059,155.195984 
	C634.421387,155.043198 635.244629,154.950806 636.345947,154.920593 
z"/>
<path fill="#9970AB" opacity="1.000000" stroke="none" 
	d="
M570.134888,157.992203 
	C579.700256,157.827942 589.337830,158.089142 598.960938,157.824036 
	C600.619141,157.778351 602.215759,155.496429 603.840820,154.247498 
	C602.182312,153.222595 600.634155,151.882080 598.837036,151.253387 
	C596.634399,150.482819 594.223328,150.307861 591.742004,149.479218 
	C594.366943,149.298248 597.269653,150.108978 599.909912,149.588455 
	C603.829102,148.815811 605.040161,150.420700 605.434875,153.799789 
	C605.864746,157.479462 604.281921,159.793518 600.646912,159.870392 
	C593.185608,160.028214 585.716309,159.790024 578.250183,159.758591 
	C576.160950,159.749786 574.061401,160.030334 571.987122,159.885223 
	C571.356873,159.841125 570.795227,158.815643 570.134888,157.992203 
z"/>
<path fill="#9E70B0" opacity="1.000000" stroke="none" 
	d="
M584.611694,141.869324 
	C582.784302,148.775833 578.431091,152.224518 570.678589,151.187103 
	C569.861145,149.548767 569.466003,147.934082 569.030334,146.153793 
	C579.026062,146.022552 579.221619,145.851639 578.244263,137.891357 
	C580.552124,139.357300 582.430359,140.550308 584.611694,141.869324 
z"/>
<path fill="#A378B3" opacity="1.000000" stroke="none" 
	d="
M608.603149,84.867920 
	C607.444275,88.551147 606.031128,92.117302 604.119507,95.749817 
	C602.756287,95.532715 601.891541,95.249252 601.026855,94.965782 
	C601.028748,94.532104 601.030579,94.098434 601.241943,93.172806 
	C601.312012,91.781036 601.172607,90.881226 601.033264,89.981422 
	C601.713013,88.889626 602.390442,87.796356 603.073242,86.706444 
	C603.704163,85.699417 604.340820,84.696022 604.990662,83.345734 
	C606.120544,83.583885 607.234741,84.167358 608.603149,84.867920 
z"/>
<path fill="#A378B3" opacity="1.000000" stroke="none" 
	d="
M679.935181,143.721283 
	C677.933044,140.067474 675.942627,135.960922 673.897217,131.491272 
	C674.993713,130.967010 676.145081,130.805832 678.128723,130.528152 
	C678.739746,134.809921 679.343262,139.039230 679.935181,143.721283 
z"/>
<path fill="#9E70B0" opacity="1.000000" stroke="none" 
	d="
M600.918091,103.123993 
	C600.162537,105.974503 599.020996,108.835037 597.405518,111.764923 
	C595.955261,111.224121 594.978821,110.613983 594.002441,110.003845 
	C594.002441,110.003845 594.000000,110.000175 593.998779,109.998505 
	C592.890747,104.581375 596.581116,103.733635 600.918091,103.123993 
z"/>
<path fill="#9E70B0" opacity="1.000000" stroke="none" 
	d="
M570.125305,135.889801 
	C571.184998,132.712708 572.619385,129.518036 574.197266,126.017990 
	C577.650146,130.933517 576.612305,133.678833 570.125305,135.889801 
z"/>
<path fill="#9C6BAD" opacity="1.000000" stroke="none" 
	d="
M555.790955,150.867325 
	C558.624878,147.926361 561.861816,144.973221 565.381592,141.851624 
	C565.748352,142.195129 565.832275,142.707108 565.776611,143.762268 
	C565.409546,144.522766 565.197815,144.754486 565.001831,145.000610 
	C562.065857,146.952118 559.129944,148.903641 555.790955,150.867325 
z"/>
<path fill="#9E70B0" opacity="1.000000" stroke="none" 
	d="
M600.793945,90.086380 
	C601.172607,90.881226 601.312012,91.781036 601.239990,92.847549 
	C600.870544,92.073288 600.712585,91.132324 600.793945,90.086380 
z"/>
<path fill="#9E70B0" opacity="1.000000" stroke="none" 
	d="
M601.082275,95.320114 
	C601.891541,95.249252 602.756287,95.532715 603.897522,96.022995 
	C604.046570,96.730843 603.919128,97.231865 603.624146,97.931961 
	C602.683533,97.312164 601.910583,96.493301 601.082275,95.320114 
z"/>
<path fill="#9E70B0" opacity="1.000000" stroke="none" 
	d="
M576.255737,120.642723 
	C576.210693,119.991127 576.332214,119.017464 576.686890,117.744965 
	C576.754150,118.404297 576.588196,119.362480 576.255737,120.642723 
z"/>
<path fill="#9E70B0" opacity="1.000000" stroke="none" 
	d="
M567.220459,139.853088 
	C567.396545,139.273849 567.875305,138.532288 568.627808,137.592926 
	C568.442078,138.160339 567.982666,138.925537 567.220459,139.853088 
z"/>
<path fill="#9E70B0" opacity="1.000000" stroke="none" 
	d="
M565.164795,144.964203 
	C565.197815,144.754486 565.409546,144.522766 565.812134,144.148148 
	C565.767456,144.303146 565.547607,144.615463 565.164795,144.964203 
z"/>
<path fill="#9E70B0" opacity="1.000000" stroke="none" 
	d="
M574.945435,124.927368 
	C574.941650,124.488899 575.141602,123.713646 575.641602,122.676697 
	C575.677429,123.140198 575.413330,123.865387 574.945435,124.927368 
z"/>
<path fill="#9C6BAD" opacity="1.000000" stroke="none" 
	d="
M552.200012,152.859573 
	C552.393127,152.596802 552.868835,152.239197 553.641846,151.822357 
	C553.453674,152.096985 552.968140,152.430862 552.200012,152.859573 
z"/>
<path fill="#A378B3" opacity="1.000000" stroke="none" 
	d="
M673.832214,130.858032 
	C673.599365,130.638153 673.315430,130.134308 673.048096,129.323746 
	C673.303528,129.536057 673.542358,130.055069 673.832214,130.858032 
z"/>
<path fill="#9E70B0" opacity="1.000000" stroke="none" 
	d="
M565.805969,141.653305 
	C565.674072,141.370972 565.801941,141.137054 566.162109,140.818298 
	C566.212158,141.016479 566.102661,141.339218 565.805969,141.653305 
z"/>
<path fill="#9664A9" opacity="1.000000" stroke="none" 
	d="
M97.888687,161.396515 
	C98.644569,159.094849 99.850578,157.201584 99.903984,155.276337 
	C100.124763,147.317810 99.996559,139.349609 100.707787,131.394699 
	C100.707787,142.812134 100.707787,154.229553 100.707787,166.881943 
	C102.182243,167.565033 104.812538,168.783600 107.813629,170.088730 
	C107.453209,171.882919 106.721992,173.590530 105.872772,175.630737 
	C100.885780,175.761734 98.788208,172.501312 97.210342,168.118439 
	C97.262062,165.806229 97.535431,163.798218 97.888687,161.396515 
z"/>
<path fill="#9664A9" opacity="1.000000" stroke="none" 
	d="
M85.074402,150.746384 
	C89.068497,156.056427 92.911125,161.702148 96.933556,167.631226 
	C93.685577,167.797668 91.122414,167.552917 89.924690,162.977768 
	C89.012314,159.492615 85.286461,156.744019 82.812294,153.667725 
	C82.194427,153.725998 81.576569,153.784271 80.958710,153.842545 
	C82.280121,152.922394 83.601532,152.002228 85.074402,150.746384 
z"/>
<path fill="#9664A9" opacity="1.000000" stroke="none" 
	d="
M110.076477,188.192551 
	C111.486153,188.529510 112.912933,189.210434 114.653687,190.023621 
	C114.072594,190.849945 113.177513,191.544022 111.637794,192.737946 
	C111.020706,191.059006 110.557137,189.797775 110.076477,188.192551 
z"/>
<path fill="#9664A9" opacity="1.000000" stroke="none" 
	d="
M37.820419,55.890327 
	C38.382420,55.053135 39.286690,54.373066 40.476036,53.506721 
	C40.829483,54.240314 40.897858,55.160187 40.981743,56.538456 
	C40.052399,56.680386 39.107544,56.363922 37.820419,55.890327 
z"/>
<path fill="#9664A9" opacity="1.000000" stroke="none" 
	d="
M47.972878,94.146698 
	C48.309151,94.087097 48.545631,94.270805 48.744896,94.779091 
	C48.506069,94.767197 48.227863,94.529320 47.972878,94.146698 
z"/>
<path fill="#9664A9" opacity="1.000000" stroke="none" 
	d="
M48.391731,91.531021 
	C48.506973,91.559212 48.311176,91.848709 48.153355,91.923676 
	C47.920780,91.725517 48.014435,91.560249 48.391731,91.531021 
z"/>
<path fill="#9664A9" opacity="1.000000" stroke="none" 
	d="
M105.675865,180.159393 
	C105.717781,180.042145 105.853508,180.499252 105.835358,180.736954 
	C105.657486,180.766144 105.596397,180.533478 105.675865,180.159393 
z"/>
<path fill="#9E70B0" opacity="1.000000" stroke="none" 
	d="
M458.931000,105.007614 
	C458.974487,105.452484 459.017944,105.897362 458.848511,106.979576 
	C459.006500,109.414452 459.377380,111.211990 459.748260,113.009521 
	C459.934418,114.067039 460.120575,115.124557 459.928772,116.587433 
	C458.139160,117.163948 456.727570,117.335091 455.315948,117.506233 
	C455.445496,118.006371 455.575043,118.506500 455.704590,119.006638 
	C457.302795,118.481575 458.901001,117.956520 460.499176,117.431458 
	C460.499176,117.431450 460.501953,117.769386 460.427856,117.987137 
	C460.485992,118.477776 460.646912,118.732521 460.836548,118.969131 
	C460.907776,119.415062 460.979034,119.860985 461.042389,120.646683 
	C456.343750,120.138565 452.973755,121.763908 450.940277,126.178108 
	C450.488403,127.158920 449.533600,127.908051 448.498413,128.880066 
	C449.788635,121.273415 451.390778,113.550552 453.478882,105.413033 
	C455.327728,104.994026 456.690613,104.989693 458.272888,104.990097 
	C458.492279,104.994843 458.931000,105.007614 458.931000,105.007614 
z"/>
<path fill="#9E70B0" opacity="1.000000" stroke="none" 
	d="
M461.475098,123.057228 
	C463.573242,127.048409 465.341309,131.093597 467.203491,135.490417 
	C466.215363,135.849289 464.545715,136.307556 464.147797,135.789337 
	C461.843719,132.788544 459.708893,129.628098 457.914825,126.306671 
	C457.712646,125.932335 460.007874,124.209015 461.475098,123.057228 
z"/>
<path fill="#9A68AC" opacity="1.000000" stroke="none" 
	d="
M437.926147,144.874298 
	C437.832153,144.578186 437.997681,144.298386 438.456360,143.942154 
	C438.481537,144.160004 438.293579,144.501633 437.926147,144.874298 
z"/>
<path fill="#996CA9" opacity="1.000000" stroke="none" 
	d="
M203.876801,53.943375 
	C201.451691,54.906448 198.909622,55.661396 196.346771,56.337616 
	C190.295425,57.934292 185.993423,61.498028 183.930725,67.482040 
	C182.925507,70.398254 181.575195,73.112984 177.989761,71.768692 
	C174.339813,70.400223 175.356445,67.227730 176.323273,64.529510 
	C178.744888,57.771286 183.252991,52.854332 189.873383,50.019707 
	C191.848602,49.173992 193.958176,48.593990 196.052826,48.083572 
	C205.745956,45.721584 205.751846,45.745731 204.292786,35.223618 
	C206.895874,33.279579 208.422760,34.201710 208.628418,37.751987 
	C209.136703,46.525757 208.621124,47.175365 198.155945,50.758568 
	C200.102234,51.781700 201.926315,52.740582 203.876801,53.943375 
z"/>
<path fill="#996CA9" opacity="1.000000" stroke="none" 
	d="
M198.332245,37.114220 
	C195.974350,38.470020 193.394333,39.753372 190.457092,41.092121 
	C191.803665,38.752609 193.507462,36.357700 195.645523,33.352394 
	C196.989639,35.364456 197.549881,36.203114 198.332245,37.114220 
z"/>
<path fill="#996CA9" opacity="1.000000" stroke="none" 
	d="
M189.825500,41.147781 
	C189.615189,41.402115 189.113144,41.728344 188.306213,42.098545 
	C188.512146,41.834900 189.022949,41.527287 189.825500,41.147781 
z"/>
<path fill="#A072B2" opacity="1.000000" stroke="none" 
	d="
M626.424622,43.884735 
	C625.123169,46.743038 623.821777,49.601345 622.293579,52.724411 
	C620.513794,53.579910 618.914429,54.072479 617.416931,54.780567 
	C613.562134,56.603378 610.827332,56.613010 609.740906,51.466461 
	C609.447876,50.078323 607.057434,49.190205 605.755493,47.941498 
	C604.485229,46.723179 602.430603,45.330379 602.440063,44.026714 
	C602.451416,42.472759 604.214417,39.745461 605.360535,39.669521 
	C606.997253,39.561077 609.117554,41.073883 610.398132,42.473560 
	C612.908936,45.218048 614.982727,48.362431 618.077393,50.844597 
	C618.640137,47.919121 623.911377,44.136391 616.562988,43.413235 
	C616.145569,43.372162 615.840210,42.193638 615.482727,41.544495 
	C616.308533,41.270203 617.170166,40.687637 617.953613,40.778549 
	C620.458191,41.069221 622.933777,41.609653 625.710327,42.026833 
	C626.000000,42.000000 626.000000,42.000153 626.097046,42.473351 
	C626.270874,43.259277 626.347717,43.572006 626.424622,43.884735 
z"/>
<path fill="#A378B3" opacity="1.000000" stroke="none" 
	d="
M551.877625,48.753685 
	C547.982056,47.318016 543.965881,45.558086 539.909485,43.427055 
	C546.639832,41.510300 547.477173,41.888802 551.877625,48.753685 
z"/>
<path fill="#9C6BAD" opacity="1.000000" stroke="none" 
	d="
M458.053497,104.985352 
	C456.690613,104.989693 455.327728,104.994026 453.556213,104.997978 
	C453.113098,102.627075 453.078674,100.256554 453.095062,97.444305 
	C454.508606,97.004219 455.871307,97.005867 457.772858,97.184402 
	C458.492065,97.589645 458.690491,97.801025 458.907013,97.995438 
	C458.943756,99.715164 458.980499,101.434883 458.806854,103.733032 
	C458.400269,104.523811 458.219269,104.748451 458.053497,104.985352 
z"/>
<path fill="#9D6DAE" opacity="1.000000" stroke="none" 
	d="
M456.471313,80.633301 
	C457.327698,80.113144 457.977966,79.810440 459.893585,78.918716 
	C458.564758,81.522194 457.842285,82.937698 457.119812,84.353195 
	C456.642487,84.204247 456.165131,84.055298 455.687805,83.906349 
	C455.880280,82.887817 456.072754,81.869286 456.471313,80.633301 
z"/>
<path fill="#A378B3" opacity="1.000000" stroke="none" 
	d="
M612.585022,74.150024 
	C611.789856,77.219704 610.687927,80.445808 609.345215,83.944504 
	C610.162354,80.913544 611.220276,77.609993 612.585022,74.150024 
z"/>
<path fill="#A072B2" opacity="1.000000" stroke="none" 
	d="
M626.000000,41.999931 
	C626.430420,41.254429 626.860840,40.508991 627.291199,39.763542 
	C627.871765,40.353443 628.452271,40.943356 629.109680,41.855167 
	C629.186523,42.177063 629.137024,42.163155 628.748108,42.114044 
	C627.572815,42.043339 626.786377,42.021744 626.000000,42.000153 
	C626.000000,42.000153 626.000000,42.000000 626.000000,41.999931 
z"/>
<path fill="#A072B2" opacity="1.000000" stroke="none" 
	d="
M619.810242,58.036224 
	C619.906250,58.549786 619.728943,59.090908 619.344055,59.832878 
	C618.780701,59.723152 618.424927,59.412567 618.069153,59.101990 
	C618.558411,58.755924 619.047729,58.409851 619.810242,58.036224 
z"/>
<path fill="#9C6BAD" opacity="1.000000" stroke="none" 
	d="
M453.060669,92.869705 
	C452.813232,92.682991 452.705139,92.330055 452.616577,91.699249 
	C452.824097,91.848732 453.012085,92.276108 453.060669,92.869705 
z"/>
<path fill="#A378B3" opacity="1.000000" stroke="none" 
	d="
M526.782104,42.683289 
	C526.532227,42.799713 526.112793,42.809063 525.389771,42.730217 
	C525.595032,42.620079 526.103760,42.598148 526.782104,42.683289 
z"/>
<path fill="#A378B3" opacity="1.000000" stroke="none" 
	d="
M458.956055,97.746262 
	C458.690491,97.801025 458.492065,97.589645 458.181885,97.187698 
	C458.052063,97.014091 458.496429,97.005753 458.718567,96.999512 
	C458.962158,97.161217 458.983643,97.329155 458.956055,97.746262 
z"/>
<path fill="#A378B3" opacity="1.000000" stroke="none" 
	d="
M513.675964,42.310402 
	C513.751953,42.320728 513.470215,42.466064 513.314514,42.440178 
	C513.158813,42.414295 513.599976,42.300072 513.675964,42.310402 
z"/>
<path fill="#9A68AC" opacity="1.000000" stroke="none" 
	d="
M375.324615,41.412537 
	C375.489380,41.368481 375.605133,41.394016 375.720886,41.419556 
	C375.572449,41.440411 375.424042,41.461266 375.324615,41.412537 
z"/>
<path fill="#9664A9" opacity="1.000000" stroke="none" 
	d="
M107.001801,167.002655 
	C107.003593,167.005310 106.927834,167.039215 106.961273,167.017822 
	C106.994705,166.996429 107.000000,167.000000 107.001801,167.002655 
z"/>
<path fill="#9B6BAD" opacity="1.000000" stroke="none" 
	d="
M384.299561,50.908382 
	C390.463928,50.580105 396.291199,49.805161 401.998047,50.332760 
	C408.121948,50.898911 412.623596,54.777378 415.683746,60.135712 
	C420.354523,68.314194 421.556091,77.371315 422.272278,86.537567 
	C423.509583,102.373825 423.596588,118.184082 419.213531,133.608429 
	C414.187988,151.293686 395.442078,158.789551 379.396210,149.745316 
	C373.174316,146.238342 370.082245,140.321320 368.261475,133.786011 
	C363.674896,117.323181 364.025909,100.500381 365.578522,83.722488 
	C366.154480,77.498474 367.728455,71.266792 369.640686,65.292549 
	C371.877441,58.304394 376.677704,53.310162 384.299561,50.908382 
z"/>
<path fill="#9A68AC" opacity="1.000000" stroke="none" 
	d="
M424.556915,156.987396 
	C424.554993,157.019974 424.558838,156.954834 424.556915,156.987396 
z"/>
<path fill="#9E6EAF" opacity="1.000000" stroke="none" 
	d="
M504.459534,149.766388 
	C498.084900,146.064896 494.877502,140.306213 493.322266,133.953964 
	C488.135284,112.767937 487.988281,91.385635 492.996857,70.171028 
	C497.256378,52.129078 510.250793,46.639736 529.414490,50.870296 
	C535.424866,52.197140 539.935974,56.661381 541.687378,62.411098 
	C544.184326,70.608490 546.718994,79.110847 547.069336,87.572708 
	C547.617065,100.801773 547.445740,114.259903 545.608459,127.344322 
	C542.403748,150.167053 525.795532,158.864456 504.459534,149.766388 
z"/>
<path fill="#9C6BAD" opacity="1.000000" stroke="none" 
	d="
M460.510132,117.304771 
	C458.901001,117.956520 457.302795,118.481575 455.704590,119.006638 
	C455.575043,118.506500 455.445496,118.006371 455.315948,117.506233 
	C456.727570,117.335091 458.139160,117.163948 459.952271,116.989700 
	C460.353760,116.986603 460.521118,117.178085 460.510132,117.304771 
z"/>
<path fill="#A378B3" opacity="1.000000" stroke="none" 
	d="
M459.787598,112.626770 
	C459.377380,111.211990 459.006500,109.414452 458.807800,107.313339 
	C459.262329,108.754517 459.544647,110.499275 459.787598,112.626770 
z"/>
<path fill="#A378B3" opacity="1.000000" stroke="none" 
	d="
M460.836365,118.715683 
	C460.646912,118.732521 460.485992,118.477776 460.259277,117.998474 
	C460.388580,118.015457 460.612366,118.238846 460.836365,118.715683 
z"/>
<path fill="#A378B3" opacity="1.000000" stroke="none" 
	d="
M458.272888,104.990097 
	C458.219269,104.748451 458.400269,104.523811 458.751831,104.160019 
	C458.938965,104.174423 458.970703,104.340256 458.966736,104.756851 
	C458.931000,105.007614 458.492279,104.994843 458.272888,104.990097 
z"/>
<path fill="#A074B1" opacity="1.000000" stroke="none" 
	d="
M615.046265,115.660835 
	C611.144470,115.660614 607.734070,115.660614 602.801514,115.660614 
	C608.905945,100.945343 614.432434,87.623299 619.958862,74.301247 
	C620.614868,74.234985 621.270813,74.168724 621.926819,74.102463 
	C627.616882,87.448112 633.307007,100.793770 639.645874,115.661057 
	C630.623169,115.661057 623.080444,115.661057 615.046265,115.660835 
z"/>
<path fill="#9E6FB0" opacity="1.000000" stroke="none" 
	d="
M594.061035,110.343323 
	C594.978821,110.613983 595.955261,111.224121 597.210815,112.049255 
	C597.489990,112.264244 597.365417,112.673416 597.229492,112.838501 
	C596.102173,112.229996 595.110901,111.456398 594.061035,110.343323 
z"/>
<path fill="#9E70B0" opacity="1.000000" stroke="none" 
	d="
M626.097046,42.473351 
	C626.786377,42.021744 627.572815,42.043339 628.753845,42.089211 
	C628.443726,42.628139 627.738953,43.142792 626.729370,43.771088 
	C626.347717,43.572006 626.270874,43.259277 626.097046,42.473351 
z"/>
</svg>